<?xml version="1.0" encoding="UTF-8" standalone="no"?>
<!-- Created with Inkscape (http://www.inkscape.org/) -->

<svg
   width="198.66396mm"
   height="32.969048mm"
   viewBox="0 0 198.66396 32.969048"
   version="1.1"
   id="svg1"
   xml:space="preserve"
   xmlns:inkscape="http://www.inkscape.org/namespaces/inkscape"
   xmlns:sodipodi="http://sodipodi.sourceforge.net/DTD/sodipodi-0.dtd"
   xmlns="http://www.w3.org/2000/svg"
   xmlns:svg="http://www.w3.org/2000/svg"><sodipodi:namedview
     id="namedview1"
     pagecolor="#ffffff"
     bordercolor="#666666"
     borderopacity="1.0"
     inkscape:showpageshadow="2"
     inkscape:pageopacity="0.0"
     inkscape:pagecheckerboard="0"
     inkscape:deskcolor="#d1d1d1"
     inkscape:document-units="mm"
     inkscape:zoom="2"
     inkscape:cx="-236.75"
     inkscape:cy="322.75"
     inkscape:window-width="1920"
     inkscape:window-height="1017"
     inkscape:window-x="-8"
     inkscape:window-y="-8"
     inkscape:window-maximized="1"
     inkscape:current-layer="layer1"
     showguides="true" /><defs
     id="defs1"><linearGradient
       id="swatch1"
       inkscape:swatch="solid"><stop
         style="stop-color:#000000;stop-opacity:1;"
         offset="0"
         id="stop1" /></linearGradient></defs><g
     inkscape:label="Camada 1"
     inkscape:groupmode="layer"
     id="layer1"
     transform="translate(-5.6680256,-27.497499)"><g
       id="g276"
       inkscape:label="23"
       transform="matrix(0.26458332,0,0,0.26458334,218.92093,-57.909176)"><g
         id="g46"
         transform="matrix(1.0001093,0,0,1.0001108,292.93603,-121.85273)"
         style="stroke-width:0.99989"><path
           id="path4-9-3"
           style="fill:#3be200;fill-opacity:1;stroke:#898989;stroke-width:1.00146;stroke-dasharray:none;stroke-opacity:1"
           d="m -515.76041,485.23 v 50.33007 h 5.66992 v -18.75976 h 21.14454 l 15.74609,18.75976 h 7.49023 v -0.0703 l -15.80859,-18.68945 h 7.75781 c 1.54,0 2.94118,-0.3744 4.20117,-1.1211 1.307,-0.7933 2.33308,-1.82008 3.08008,-3.08007 0.747,-1.26 1.11914,-2.65922 1.11914,-4.19922 V 493.6304 c 0,-1.54 -0.37214,-2.94118 -1.11914,-4.20118 -0.747,-1.25999 -1.77308,-2.26306 -3.08008,-3.00976 -1.25999,-0.7933 -2.66117,-1.18945 -4.20117,-1.18945 z m 8.40039,5.66992 h 33.5996 c 0.74701,0 1.37764,0.27984 1.89063,0.83984 0.56,0.5133 0.83984,1.14393 0.83984,1.89063 v 14.76953 c 0,0.7467 -0.27984,1.37732 -0.83984,1.89062 -0.51299,0.5133 -1.14362,0.76953 -1.89063,0.76953 h -33.5996 c -0.747,0 -1.40094,-0.25623 -1.96094,-0.76953 -0.51301,-0.5133 -0.76954,-1.14392 -0.76954,-1.89062 v -14.76953 c 0,-0.7467 0.25653,-1.37733 0.76954,-1.89063 0.55999,-0.56 1.21393,-0.83984 1.96094,-0.83984 z" /><path
           d="m -457.51286,535.63 v -42 c 0,-1.54 0.373,-2.94 1.12,-4.2 0.746,-1.3067 1.75,-2.3333 3.01,-3.08 1.306,-0.7467 2.73,-1.12 4.27,-1.12 h 33.6 c 1.54,0 2.94,0.3733 4.2,1.12 1.306,0.7467 2.333,1.7733 3.08,3.08 0.74599,1.26 1.12,2.66 1.12,4.2 v 42 h -5.67001 v -18.41 h -39.06 v 18.41 z m 5.67,-24.08 h 39.06 v -17.92 c 0,-0.7467 -0.28,-1.3767 -0.84,-1.89 -0.514,-0.56 -1.144,-0.84 -1.89,-0.84 h -33.6 c -0.747,0 -1.4,0.28 -1.96,0.84 -0.514,0.5133 -0.77,1.1433 -0.77,1.89 z"
           id="path4-9-3-6"
           style="fill:#3be200;fill-opacity:1;stroke:#898989;stroke-width:1.00146;stroke-dasharray:none;stroke-opacity:1"
           sodipodi:nodetypes="csccssccsccccccccscsscsc" /><path
           d="m -398.93804,535.7 v -50.47 h 5.67 v 44.8 h 44.72999 v 5.67 z"
           id="path4-9-3-9"
           style="fill:#3be200;fill-opacity:1;stroke:#898989;stroke-width:1.00146;stroke-dasharray:none;stroke-opacity:1"
           sodipodi:nodetypes="ccccccc" /></g><g
         id="g53"
         transform="translate(-82.38049,-96.9657)"><path
           style="fill:#4a5cff;fill-opacity:1;stroke:#898989;stroke-width:1.00157;stroke-dasharray:none;stroke-opacity:1"
           d="m -154.4171,510.9 c -1.54,0 -2.964,-0.373 -4.27,-1.12 -1.26,-0.793 -2.287,-1.82 -3.08,-3.08 -0.747,-1.3067 -1.12,-2.73 -1.12,-4.27 V 457 h 5.74 v 45.43 c 0,0.7467 0.256,1.4 0.77,1.96 0.56,0.5133 1.213,0.77 1.96,0.77 h 6.86 v 5.74 z"
           id="path53" /><path
           style="fill:#4a5cff;fill-opacity:1;stroke:#898989;stroke-width:1.00157;stroke-dasharray:none;stroke-opacity:1"
           d="m -202.3371,510.9 c -1.54,0 -2.964,-0.373 -4.27,-1.12 -1.26,-0.793 -2.287,-1.82 -3.08,-3.08 -0.747,-1.3067 -1.12,-2.73 -1.12,-4.27 v -14.7 h 35.56 v -8.96 c 0,-0.7467 -0.28,-1.3767 -0.84,-1.89 -0.514,-0.56 -1.144,-0.84 -1.89,-0.84 h -32.83 v -5.74 h 32.83 c 1.586,0 3.01,0.3967 4.27,1.19 1.306,0.7467 2.333,1.7733 3.08,3.08 0.793,1.26 1.19,2.66 1.19,4.2 v 32.13 z m 0,-5.74 h 27.09 v -11.69 h -29.82 v 8.96 c 0,0.7467 0.256,1.4 0.77,1.96 0.56,0.5133 1.213,0.77 1.96,0.77 z"
           id="path52" /><path
           style="fill:#4a5cff;fill-opacity:1;stroke:#898989;stroke-width:1.00157;stroke-dasharray:none;stroke-opacity:1"
           d="m -251.0791,510.9 c -1.54,0 -2.963,-0.373 -4.27,-1.12 -1.26,-0.793 -2.287,-1.82 -3.08,-3.08 -0.747,-1.3067 -1.12,-2.73 -1.12,-4.27 v -23.66 c 0,-1.54 0.373,-2.94 1.12,-4.2 0.793,-1.3067 1.82,-2.3333 3.08,-3.08 1.307,-0.7933 2.73,-1.19 4.27,-1.19 h 32.76 v 5.74 h -32.76 c -0.747,0 -1.4,0.28 -1.96,0.84 -0.513,0.5133 -0.77,1.1433 -0.77,1.89 v 23.66 c 0,0.7467 0.257,1.4 0.77,1.96 0.56,0.5133 1.213,0.77 1.96,0.77 h 32.9 v 5.74 z"
           id="path50" /><path
           style="fill:#4a5cff;fill-opacity:1;stroke:#898989;stroke-width:1.00157;stroke-dasharray:none;stroke-opacity:1"
           d="m -297.9791,510.9 c -1.54,0 -2.963,-0.373 -4.27,-1.12 -1.26,-0.793 -2.286,-1.82 -3.08,-3.08 -0.746,-1.3067 -1.12,-2.73 -1.12,-4.27 v -0.56 h 5.74 v 0.56 c 0,0.7467 0.257,1.4 0.77,1.96 0.56,0.5133 1.214,0.77 1.96,0.77 h 24.36 c 0.747,0 1.377,-0.2567 1.89,-0.77 0.56,-0.56 0.84,-1.2133 0.84,-1.96 v -6.23 c 0,-0.7467 -0.28,-1.3767 -0.84,-1.89 -0.513,-0.56 -1.143,-0.84 -1.89,-0.84 h -24.36 c -1.54,0 -2.963,-0.3733 -4.27,-1.12 -1.26,-0.7933 -2.286,-1.82 -3.08,-3.08 -0.746,-1.3067 -1.12,-2.73 -1.12,-4.27 v -6.23 c 0,-1.54 0.374,-2.94 1.12,-4.2 0.794,-1.3067 1.82,-2.3333 3.08,-3.08 1.307,-0.7933 2.73,-1.19 4.27,-1.19 h 24.36 c 1.587,0 3.01,0.3967 4.27,1.19 1.307,0.7467 2.334,1.7733 3.08,3.08 0.794,1.26 1.19,2.66 1.19,4.2 v 0.56 h -5.81 v -0.56 c 0,-0.7467 -0.28,-1.3767 -0.84,-1.89 -0.513,-0.56 -1.143,-0.84 -1.89,-0.84 h -24.36 c -0.746,0 -1.4,0.28 -1.96,0.84 -0.513,0.5133 -0.77,1.1433 -0.77,1.89 V 485 c 0,0.7467 0.257,1.4 0.77,1.96 0.56,0.5133 1.214,0.77 1.96,0.77 h 24.36 c 1.587,0 3.01,0.3967 4.27,1.19 1.307,0.7467 2.334,1.7733 3.08,3.08 0.794,1.26 1.19,2.66 1.19,4.2 v 6.23 c 0,1.54 -0.396,2.9633 -1.19,4.27 -0.746,1.26 -1.773,2.287 -3.08,3.08 -1.26,0.747 -2.683,1.12 -4.27,1.12 z"
           id="path49" /><path
           style="fill:#4a5cff;fill-opacity:1;stroke:#898989;stroke-width:1.00157;stroke-dasharray:none;stroke-opacity:1"
           d="m -344.9351,510.9 c -1.54,0 -2.963,-0.373 -4.27,-1.12 -1.26,-0.793 -2.287,-1.82 -3.08,-3.08 -0.747,-1.3067 -1.12,-2.73 -1.12,-4.27 v -14.7 h 35.56 v -8.96 c 0,-0.7467 -0.28,-1.3767 -0.84,-1.89 -0.513,-0.56 -1.143,-0.84 -1.89,-0.84 h -32.83 v -5.74 h 32.83 c 1.587,0 3.01,0.3967 4.27,1.19 1.307,0.7467 2.333,1.7733 3.08,3.08 0.793,1.26 1.19,2.66 1.19,4.2 v 32.13 z m 0,-5.74 h 27.09 v -11.69 h -29.82 v 8.96 c 0,0.7467 0.257,1.4 0.77,1.96 0.56,0.5133 1.213,0.77 1.96,0.77 z"
           id="path47" /><path
           style="fill:#4a5cff;fill-opacity:1;stroke:#898989;stroke-width:1.00157;stroke-dasharray:none;stroke-opacity:1"
           d="m -408.4961,510.9 v -50.33 h 42 c 1.54,0 2.94,0.3967 4.2,1.19 1.307,0.7467 2.333,1.75 3.08,3.01 0.747,1.26 1.12,2.66 1.12,4.2 v 14.77 c 0,1.54 -0.373,2.94 -1.12,4.2 -0.747,1.26 -1.773,2.2867 -3.08,3.08 -1.26,0.7467 -2.66,1.12 -4.2,1.12 h -36.33 v 18.76 z m 8.4,-24.5 h 33.6 c 0.747,0 1.377,-0.2567 1.89,-0.77 0.56,-0.5133 0.84,-1.1433 0.84,-1.89 v -14.77 c 0,-0.7467 -0.28,-1.3767 -0.84,-1.89 -0.513,-0.56 -1.143,-0.84 -1.89,-0.84 h -33.6 c -0.747,0 -1.4,0.28 -1.96,0.84 -0.513,0.5133 -0.77,1.1433 -0.77,1.89 v 14.77 c 0,0.7467 0.257,1.3767 0.77,1.89 0.56,0.5133 1.213,0.77 1.96,0.77 z"
           id="path1-88" /></g><g
         id="g54"><path
           id="path1-8"
           d="m -545.36286,382.86696 c -1.49551,0 -2.70787,1.21236 -2.70787,2.70787 0,1.49552 1.21236,2.70787 2.70787,2.70787 z m 48.74164,2.70787 -27.07869,-15.63389 v 31.26778 z m -48.74164,2.70787 h 24.37082 v -5.41574 h -24.37082 z"
           style="fill:#c9cd00;fill-opacity:1;fill-rule:nonzero;stroke:none;stroke-width:1.33333" /><path
           id="path2-8"
           d="m -776.20871,363.91187 c -1.49552,0 -2.70787,1.21236 -2.70787,2.70787 0,1.49552 1.21235,2.70787 2.70787,2.70787 z m 8.12361,5.41574 c 1.49551,0 2.70787,-1.21235 2.70787,-2.70787 0,-1.49551 -1.21236,-2.70787 -2.70787,-2.70787 z m -8.12361,0 h 8.12361 v -5.41574 h -8.12361 z"
           style="fill:#c9cd00;fill-opacity:1;fill-rule:nonzero;stroke:none;stroke-width:1.33333" /><path
           id="path3-2"
           d="m -782.30141,366.61975 c 0,2.24327 -1.81853,4.0618 -4.06181,4.0618 -2.24327,0 -4.0618,-1.81853 -4.0618,-4.0618 0,-2.24328 1.81853,-4.06181 4.0618,-4.06181 2.24328,0 4.06181,1.81853 4.06181,4.06181 z"
           style="fill:#c9cd00;fill-opacity:1;fill-rule:nonzero;stroke:none;stroke-width:1.33333" /><path
           id="path4-3"
           d="m -753.86879,366.61975 c 0,2.24327 -1.81853,4.0618 -4.06181,4.0618 -2.24327,0 -4.0618,-1.81853 -4.0618,-4.0618 0,-2.24328 1.81853,-4.06181 4.0618,-4.06181 2.24328,0 4.06181,1.81853 4.06181,4.06181 z"
           style="fill:#c9cd00;fill-opacity:1;fill-rule:nonzero;stroke:none;stroke-width:1.33333" /><path
           id="path5-9"
           d="m -791.77896,384.89786 c -1.49552,0 -2.70787,1.21236 -2.70787,2.70787 0,1.49552 1.21235,2.70787 2.70787,2.70787 z m 8.12361,5.41574 c 1.49551,0 2.70787,-1.21235 2.70787,-2.70787 0,-1.49551 -1.21236,-2.70787 -2.70787,-2.70787 z m -8.12361,0 h 8.12361 v -5.41574 h -8.12361 z"
           style="fill:#c9cd00;fill-opacity:1;fill-rule:nonzero;stroke:none;stroke-width:1.33333" /><path
           id="path6-4"
           d="m -797.87166,387.60573 c 0,2.24327 -1.81853,4.0618 -4.06181,4.0618 -2.24327,0 -4.0618,-1.81853 -4.0618,-4.0618 0,-2.24328 1.81853,-4.06181 4.0618,-4.06181 2.24328,0 4.06181,1.81853 4.06181,4.06181 z"
           style="fill:#c9cd00;fill-opacity:1;fill-rule:nonzero;stroke:none;stroke-width:1.33333" /><path
           id="path7-3"
           d="m -780.94748,415.36139 c 0,2.24327 -1.81853,4.0618 -4.06181,4.0618 -2.24327,0 -4.0618,-1.81853 -4.0618,-4.0618 0,-2.24328 1.81853,-4.06181 4.0618,-4.06181 2.24328,0 4.06181,1.81853 4.06181,4.06181 z"
           style="fill:#c9cd00;fill-opacity:1;fill-rule:nonzero;stroke:none;stroke-width:1.33333" /><path
           id="path8"
           d="m -774.85477,412.65352 c -1.49552,0 -2.70787,1.21236 -2.70787,2.70787 0,1.49552 1.21235,2.70787 2.70787,2.70787 z m 8.12361,5.41574 c 1.49551,0 2.70787,-1.21235 2.70787,-2.70787 0,-1.49551 -1.21236,-2.70787 -2.70787,-2.70787 z m -8.12361,0 h 8.12361 v -5.41574 h -8.12361 z"
           style="fill:#c9cd00;fill-opacity:1;fill-rule:nonzero;stroke:none;stroke-width:1.33333" /><path
           id="path9"
           d="m -752.51485,415.36139 c 0,2.24327 -1.81853,4.0618 -4.06181,4.0618 -2.24327,0 -4.0618,-1.81853 -4.0618,-4.0618 0,-2.24328 1.81853,-4.06181 4.0618,-4.06181 2.24328,0 4.06181,1.81853 4.06181,4.06181 z"
           style="fill:#c9cd00;fill-opacity:1;fill-rule:nonzero;stroke:none;stroke-width:1.33333" /><path
           id="path10-4"
           d="m -741.00641,415.36139 c 0,2.24327 -1.81853,4.0618 -4.06181,4.0618 -2.24327,0 -4.0618,-1.81853 -4.0618,-4.0618 0,-2.24328 1.81853,-4.06181 4.0618,-4.06181 2.24328,0 4.06181,1.81853 4.06181,4.06181 z"
           style="fill:#c9cd00;fill-opacity:1;fill-rule:nonzero;stroke:none;stroke-width:1.33333" /><path
           id="path11"
           d="m -768.76207,386.2518 c -0.74776,0 -1.35393,0.60617 -1.35393,1.35393 0,0.74776 0.60617,1.35394 1.35393,1.35394 z m 1.63434,2.31131 c 0.52875,-0.52875 0.52875,-1.38601 0,-1.91476 l -8.61638,-8.61638 c -0.52875,-0.52875 -1.38601,-0.52875 -1.91476,0 -0.52874,0.52874 -0.52874,1.38601 0,1.91475 l 7.65901,7.65901 -7.65901,7.65901 c -0.52874,0.52875 -0.52874,1.38601 0,1.91475 0.52875,0.52875 1.38601,0.52875 1.91476,0 z m -1.63434,0.39656 h 0.67697 v -2.70787 h -0.67697 z"
           style="fill:#c9cd00;fill-opacity:1;fill-rule:nonzero;stroke:none;stroke-width:1.33333" /><path
           id="path12"
           d="m -588.68877,411.29958 h -2.70787 v 5.41574 h 2.70787 z m 32.49443,5.41574 h 2.70787 v -5.41574 h -2.70787 z m -32.49443,0 h 32.49443 v -5.41574 h -32.49443 z"
           style="fill:#c9cd00;fill-opacity:1;fill-rule:nonzero;stroke:none;stroke-width:1.33333" /><path
           id="path13-7"
           d="m -604.25902,340.21802 h -2.70787 v 5.41574 h 2.70787 z m 32.49443,5.41574 h 2.70787 v -5.41574 h -2.70787 z m -32.49443,0 h 32.49443 v -5.41574 h -32.49443 z"
           style="fill:#c9cd00;fill-opacity:1;fill-rule:nonzero;stroke:none;stroke-width:1.33333" /><path
           id="path14"
           d="m -559.57917,340.21802 h -2.70787 v 5.41574 h 2.70787 z m 8.12361,5.41574 h 2.70787 v -5.41574 h -2.70787 z m -8.12361,0 h 8.12361 v -5.41574 h -8.12361 z"
           style="fill:#c9cd00;fill-opacity:1;fill-rule:nonzero;stroke:none;stroke-width:1.33333" /><path
           id="path15"
           d="m -718.66649,426.86983 c -1.49552,0 -2.70787,1.21236 -2.70787,2.70787 0,1.49552 1.21235,2.70787 2.70787,2.70787 z m 32.49443,5.41574 c 1.49551,0 2.70787,-1.21235 2.70787,-2.70787 0,-1.49551 -1.21236,-2.70787 -2.70787,-2.70787 z m -32.49443,0 h 32.49443 v -5.41574 h -32.49443 z"
           style="fill:#606060;fill-opacity:1;fill-rule:nonzero;stroke:none;stroke-width:1.33333" /><path
           id="path16-8"
           d="m -741.68338,347.66466 c -1.49552,0 -2.70787,1.21236 -2.70787,2.70787 0,1.49552 1.21235,2.70787 2.70787,2.70787 z m 32.49443,5.41574 c 1.49551,0 2.70787,-1.21235 2.70787,-2.70787 0,-1.49551 -1.21236,-2.70787 -2.70787,-2.70787 z m -32.49443,0 h 32.49443 v -5.41574 h -32.49443 z"
           style="fill:#606060;fill-opacity:1;fill-rule:nonzero;stroke:none;stroke-width:1.33333" /><path
           id="path17"
           d="m -582.59606,361.88097 c -1.49551,0 -2.70787,1.21236 -2.70787,2.70787 0,1.49552 1.21236,2.70787 2.70787,2.70787 z m 13.53935,5.41574 h 2.70786 v -5.41574 h -2.70786 z m -13.53935,0 h 13.53935 v -5.41574 h -13.53935 z"
           style="fill:#606060;fill-opacity:1;fill-rule:nonzero;stroke:none;stroke-width:1.33333" /><path
           id="path18"
           d="m -554.84041,361.88097 h -2.70787 v 5.41574 h 2.70787 z m 32.49443,5.41574 h 2.70787 v -5.41574 h -2.70787 z m -32.49443,0 h 32.49443 v -5.41574 h -32.49443 z"
           style="fill:#606060;fill-opacity:1;fill-rule:nonzero;stroke:none;stroke-width:1.33333" /><path
           id="path21-4"
           style="fill:#0068ff;fill-opacity:1;fill-rule:nonzero;stroke:none;stroke-width:1.33333"
           d="m -656.90434,322.79687 c -0.0881,3.39364 -1.01246,6.17049 -2.77539,8.33007 -1.76294,2.11553 -4.14364,3.52529 -7.14062,4.23047 -3.04106,0.70517 -8.52774,1.0809 -16.46094,1.125 -7.9332,0.0441 -13.64126,0.35088 -17.12305,0.92383 -3.4818,0.52888 -6.36834,1.71923 -8.66016,3.57031 -2.2918,1.85108 -3.92297,4.18713 -4.89257,7.00782 -0.70517,1.93922 -1.05664,5.06947 -1.05664,9.38867 v 2.67578 l -47.4629,20.04101 v 9.99414 l 47.4629,20.28711 v 2.45703 c 0,3.79031 0.21942,6.52248 0.66015,8.19727 0.70517,2.46811 1.74115,4.49539 3.10742,6.08203 1.3222,1.58664 3.10773,2.93137 5.35547,4.0332 2.24774,1.05776 5.22167,1.78499 8.92383,2.18164 2.33589,0.22036 7.18467,0.35239 14.54492,0.39649 7.36026,0.0441 12.56051,0.41788 15.60157,1.12305 3.04105,0.70517 5.44214,2.13923 7.20508,4.29882 1.71885,2.11552 2.62283,4.87002 2.71093,8.26368 h 10.77735 c 0.0881,-3.39366 1.01246,-6.14816 2.77539,-8.26368 1.76293,-2.15959 4.16597,-3.59365 7.20703,-4.29882 3.04106,-0.70517 8.52774,-1.07895 16.46094,-1.12305 7.9332,-0.0441 13.64125,-0.3305 17.12305,-0.85938 3.48179,-0.57296 6.346,-1.78563 8.59375,-3.63671 2.29181,-1.85108 3.94529,-4.18712 4.95898,-7.00782 0.70518,-1.93922 1.05664,-5.06753 1.05664,-9.38672 v -2.47851 l 47.41211,-20.26563 v -9.99414 l -47.41211,-20.01953 v -2.69726 c 0,-3.79032 -0.24175,-6.52444 -0.72656,-8.19922 -0.70518,-2.46811 -1.74114,-4.49539 -3.10742,-6.08203 -1.3222,-1.58664 -3.10773,-2.90904 -5.35547,-3.9668 -2.20367,-1.10183 -5.17759,-1.84943 -8.92383,-2.24609 -2.33589,-0.22037 -7.18468,-0.35239 -14.54492,-0.39649 -7.36026,-0.0441 -12.53817,-0.41983 -15.53516,-1.125 -3.04106,-0.70518 -5.4441,-2.11494 -7.20703,-4.23047 -1.76293,-2.15958 -2.68729,-4.93643 -2.77539,-8.33007 z m 5.42188,11.04101 c 1.63071,3.87846 3.92208,6.87472 6.875,8.99024 2.90884,2.11551 6.80904,3.5253 11.70117,4.23047 2.95292,0.39665 9.93869,0.5957 20.95703,0.5957 5.77361,0 9.47672,0.74955 11.10743,2.24804 3.53976,4.47895 2.5096,11.02531 2.52931,16.44336 l 45.75586,18.80078 -45.75586,18.98047 c -0.28165,5.09531 1.01846,10.95934 -1.80275,15.50977 -1.18999,1.41035 -3.28427,2.29195 -6.28125,2.64453 -1.63072,0.17634 -6.74164,0.26562 -15.33594,0.26562 -9.47577,0 -16.28679,1.10102 -20.42969,3.30469 -4.18696,2.15959 -7.29294,5.66366 -9.32031,10.51172 -1.9833,-4.09882 -4.25429,-7.09508 -6.81055,-8.99023 -2.55626,-1.93923 -6.19236,-3.30628 -10.9082,-4.09961 -3.04107,-0.4848 -10.33364,-0.72657 -21.88086,-0.72657 -5.72954,0 -9.4103,-0.74954 -11.04102,-2.24804 -3.49758,-4.40694 -2.50197,-10.82909 -2.58012,-16.17188 l -45.81445,-18.98047 45.81445,-18.80078 c -0.0962,-11.46231 0.41937,-14.01701 1.85356,-15.71679 1.14591,-1.45442 3.19552,-2.33601 6.14844,-2.64453 1.67478,-0.22036 6.80804,-0.33008 15.40234,-0.33008 9.47577,0 16.21979,-1.03598 20.23047,-3.10742 3.9666,-2.07145 7.1619,-5.64055 9.58594,-10.70899 z"
           sodipodi:nodetypes="cccscscsccccsccccssccccsscccsccccsccccscccccccsccccccsccccsccccccscc" /><path
           id="path20-3"
           d="m -662.61419,398.56794 c 0,0.43326 -0.18052,0.95678 -0.54157,1.57057 -0.36105,0.61378 -0.74015,0.92067 -1.13731,0.92067 -0.36105,0 -0.70404,-0.0542 -1.02899,-0.16247 -0.32494,-0.14442 -0.81236,-0.39716 -1.46224,-0.7582 -2.27462,-1.33589 -5.25327,-2.63566 -8.93598,-3.89934 -1.62472,-0.54157 -3.55633,-1.1012 -5.79483,-1.67888 -2.20241,-0.61378 -3.93544,-1.06509 -5.19911,-1.35393 l 0.3791,6.9863 c 0.0361,0.97483 0.16247,1.7872 0.3791,2.43709 0.21663,0.68599 0.32494,1.11924 0.32494,1.29977 0,0.39715 -0.19857,0.7221 -0.59573,0.97484 -0.39715,0.28883 -0.81236,0.43325 -1.24562,0.43325 -0.54157,0 -0.88457,-0.3791 -1.02899,-1.1373 0,-0.0722 -0.0542,-0.39716 -0.16247,-0.97484 -0.0722,-0.57767 -0.10831,-1.39003 -0.10831,-2.43708 0,-0.68599 -0.0722,-2.14824 -0.21663,-4.38674 -0.0361,-0.75821 -0.0722,-1.48031 -0.10832,-2.1663 -0.0361,-0.7221 -0.0542,-1.35394 -0.0542,-1.89551 -0.10831,-0.10832 -0.25273,-0.23468 -0.43326,-0.3791 -0.14442,-0.14442 -0.27078,-0.343 -0.3791,-0.59573 -0.10831,-0.32495 -0.19857,-0.66794 -0.27078,-1.02899 -0.0722,-0.36105 -0.10832,-0.63184 -0.10832,-0.81236 0,-0.25274 0.0722,-0.45131 0.21663,-0.59573 0.14442,-0.14442 0.36105,-0.3069 0.64989,-0.48742 -0.21663,-9.02623 -0.32495,-14.18924 -0.32495,-15.48901 0,-1.15536 0.0181,-2.22046 0.0542,-3.19529 0.0361,-0.97483 0.0542,-1.62472 0.0542,-1.94966 -0.21663,0.0361 -0.86652,0.12636 -1.94967,0.27078 -1.08314,0.14442 -1.94966,0.28884 -2.59955,0.43326 -2.31072,0.54157 -4.0618,1.0651 -5.25327,1.57057 -1.22756,0.46936 -2.40097,1.01093 -3.52023,1.62471 -0.32494,0.21664 -0.63183,0.39716 -0.92067,0.54158 -0.32495,0.10832 -0.63184,0.16247 -0.92068,0.16247 -0.28884,0 -0.54157,-0.12637 -0.7582,-0.3791 -0.21663,-0.28884 -0.32495,-0.63184 -0.32495,-1.02899 0,-0.68599 1.15536,-1.4803 3.46608,-2.38293 2.31071,-0.90261 4.82,-1.64277 7.52787,-2.22045 1.51641,-0.32494 3.44802,-0.59573 5.79484,-0.81236 2.34682,-0.25273 4.53117,-0.3791 6.55305,-0.3791 3.46607,0 6.40862,0.3791 8.82765,1.1373 2.45514,0.75821 4.29648,1.82331 5.52405,3.19529 1.26367,1.37199 1.89551,2.94255 1.89551,4.7117 0,2.27461 -0.64989,4.22427 -1.94966,5.84899 -1.29978,1.62472 -3.03282,3.03282 -5.19911,4.22428 -2.13019,1.19146 -5.03664,2.54539 -8.71934,4.0618 -0.93873,0.43326 -1.87746,0.83042 -2.81619,1.19146 -0.90262,0.36105 -1.5164,0.61379 -1.84135,0.75821 0,0.21663 0.0181,0.3791 0.0542,0.48741 3.89933,0.86652 7.74451,1.85941 11.53552,2.97866 l 1.13731,0.32495 c 3.93544,1.19146 6.84188,2.13019 8.71934,2.81618 1.87745,0.64989 2.81618,1.19146 2.81618,1.62472 z m -6.44472,-24.31666 c 0,-1.19147 -0.52353,-2.29267 -1.57057,-3.30361 -1.04704,-1.01094 -2.63566,-1.8233 -4.76585,-2.43708 -2.09409,-0.64989 -4.63948,-0.97483 -7.63619,-0.97483 -2.23851,0 -3.6466,0.0361 -4.22428,0.10831 -0.0361,0.25274 -0.0903,0.84847 -0.16247,1.7872 -0.0361,0.93873 -0.0542,1.87745 -0.0542,2.81618 l 0.21663,8.66518 0.21663,6.71552 c 0.32495,-0.0361 0.95678,-0.19858 1.89551,-0.48742 0.97483,-0.32494 1.78719,-0.63183 2.43708,-0.92067 4.58533,-1.84135 7.99724,-3.68271 10.23575,-5.52406 2.27461,-1.87745 3.41192,-4.0257 3.41192,-6.44472 z m 37.69353,11.4272 c 0,0.25274 -0.0722,0.52352 -0.21663,0.81236 -0.10831,0.28884 -0.27078,0.50547 -0.48741,0.64989 -0.25273,0.21663 -0.77626,0.41521 -1.57057,0.59573 -0.7943,0.14442 -1.33588,0.23469 -1.62472,0.27079 0.56047,2.60938 0.72963,3.18978 1.24562,5.74068 0.64989,3.6466 1.31783,6.75162 2.00382,9.31507 0.18053,0.83041 0.27079,1.31783 0.27079,1.46225 0,0.36105 -0.14442,0.66794 -0.43326,0.92068 -0.28884,0.25273 -0.63184,0.3791 -1.02899,0.3791 -0.36105,0 -0.68599,-0.19858 -0.97483,-0.59573 -0.28884,-0.36105 -0.48742,-0.68599 -0.59574,-0.97483 -0.32494,-1.22757 -0.63183,-2.59956 -0.92067,-4.11596 -0.25273,-1.51641 -0.55962,-3.33971 -0.92067,-5.4699 -0.14442,-0.93873 -0.3791,-2.09409 -0.70405,-3.46607 -0.32495,-1.4081 -0.54158,-2.32877 -0.64989,-2.76203 -2.13019,0.28884 -5.79484,0.86652 -10.99395,1.73304 l -3.14113,0.54157 -1.1373,3.19529 -1.51641,4.33259 c -1.26367,3.93543 -2.1663,6.96825 -2.70787,9.09844 -0.10831,0.50547 -0.32494,0.92067 -0.64989,1.24561 -0.32494,0.36105 -0.7221,0.54158 -1.19146,0.54158 -0.39715,0 -0.74015,-0.10832 -1.02899,-0.32495 -0.25273,-0.21663 -0.3791,-0.52352 -0.3791,-0.92067 0,-0.39715 0.21663,-1.24562 0.64989,-2.5454 0.43326,-1.26367 0.68599,-2.02187 0.7582,-2.27461 0.14442,-0.36104 0.43326,-1.19146 0.86652,-2.49124 0.46936,-1.40809 1.0651,-3.10502 1.78719,-5.09079 0.75821,-2.02188 1.26367,-3.35776 1.51641,-4.00765 -1.84135,0.43326 -3.21334,0.77626 -4.11596,1.02899 -1.37199,0.36105 -2.22046,0.54158 -2.5454,0.54158 -0.39715,0 -0.70404,-0.14442 -0.92067,-0.43326 -0.18053,-0.32495 -0.27079,-0.66794 -0.27079,-1.02899 0,-0.43326 0.10831,-0.7221 0.32494,-0.86652 0.21663,-0.18053 0.57768,-0.343 1.08315,-0.48742 1.37199,-0.32494 2.81618,-0.64989 4.33259,-0.97483 1.55251,-0.32494 2.61761,-0.54157 3.19529,-0.64989 0.36105,-1.04704 0.63183,-1.93161 0.81236,-2.65371 0.14442,-0.46936 0.32494,-1.04705 0.54157,-1.73304 0.25273,-0.7221 0.52352,-1.60667 0.81236,-2.65371 l 0.81236,-2.76203 c 1.37199,-4.83806 2.1663,-7.60008 2.38293,-8.28607 0.18052,-0.50547 0.34299,-0.90263 0.48741,-1.19147 0.18053,-0.28884 0.41521,-0.43326 0.70405,-0.43326 0.7221,0 1.37199,0.10832 1.94966,0.32494 0.0722,-0.0722 0.18053,-0.21662 0.32495,-0.43325 0.18053,-0.25274 0.36105,-0.41521 0.54157,-0.48742 0.21663,-0.10831 0.48742,-0.16247 0.81237,-0.16247 0.64988,0 1.39004,0.74015 2.22045,2.22045 0.86651,1.4803 1.69693,3.23139 2.49124,5.25327 0.46936,1.19146 1.06509,2.97865 1.78719,5.36158 0.7221,2.34682 1.19146,3.89933 1.40809,4.65754 0.54157,-0.0722 0.99289,-0.16248 1.35394,-0.27079 0.39715,-0.14442 0.64989,-0.23468 0.7582,-0.27079 0.18053,-0.0722 0.3791,-0.19858 0.59573,-0.3791 0.21663,-0.18053 0.41521,-0.30689 0.59574,-0.3791 0.18052,-0.10832 0.3791,-0.10832 0.59573,0 0.46936,0.21663 0.70404,0.66794 0.70404,1.35393 z m -7.09462,0.3791 c -0.18052,-0.64988 -0.55962,-2.00382 -1.1373,-4.0618 -0.57768,-2.09409 -1.11926,-3.79102 -1.62472,-5.09079 -0.50547,-1.33589 -1.15536,-2.70788 -1.94967,-4.11596 -0.79431,-1.4081 -1.46225,-2.29267 -2.00382,-2.65372 l -0.59573,1.4081 c -0.68599,1.37198 -1.20952,2.6176 -1.57057,3.73686 -0.86652,2.59955 -2.2385,6.89603 -4.11596,12.88945 l 6.33641,-1.08315 5.19912,-0.81236 z m 38.29308,12.51036 c 0,0.46937 -0.21663,0.84847 -0.64988,1.13731 -0.39716,0.28884 -0.88458,0.45131 -1.46225,0.48741 l -9.31507,0.70405 -6.44473,0.54157 -3.35777,0.27079 c -0.28884,0 -0.55963,-0.18053 -0.81236,-0.54158 -0.21662,-0.36105 -0.32494,-0.70404 -0.32494,-1.02898 0,-0.25274 0.0722,-0.43327 0.21663,-0.54158 0.18052,-0.14442 0.36104,-0.23468 0.54157,-0.27079 0.21663,-0.0722 0.36106,-0.12636 0.43326,-0.16247 0.0361,-1.94966 0.0542,-6.49888 0.0542,-13.64766 0,-5.27132 -0.21663,-9.35118 -0.64989,-12.23957 -0.39716,-2.9245 -0.59573,-4.49506 -0.59573,-4.71169 0,-0.50547 0.18052,-0.90262 0.54157,-1.19146 0.39715,-0.28884 0.79431,-0.43326 1.19146,-0.43326 0.25273,0 0.45131,0.10831 0.59573,0.32494 0.14442,0.18053 0.25274,0.48742 0.32495,0.92068 0.36105,1.22756 0.63183,3.48412 0.81235,6.76967 0.21663,3.28555 0.32495,6.71551 0.32495,10.2899 0,3.03282 -0.0181,5.849 -0.0542,8.44856 -0.0361,2.59955 -0.0542,4.35064 -0.0542,5.25326 0.46937,-0.0361 1.37199,-0.0903 2.70787,-0.16247 1.33589,-0.10832 2.70787,-0.21663 4.11597,-0.32495 2.09409,-0.25273 4.45896,-0.63183 7.09461,-1.1373 2.1302,-0.39715 3.41191,-0.59573 3.84517,-0.59573 0.39716,0 0.6499,0.18052 0.75821,0.54157 0.10831,0.36105 0.16247,0.79431 0.16247,1.29978 z"
           style="fill:#04ba00;fill-opacity:1;fill-rule:nonzero;stroke:#009f10;stroke-width:0.578268;stroke-dasharray:none;stroke-opacity:1"
           sodipodi:nodetypes="ssscccccccscsccscccccssscsscsccccscssccsccssccccccccsssscsccccccccsssccccccsssccccccccccccscsccscccscsccccccccccscccsccccccsccscccscccccccsccccccscccscscscccssccccssss" /></g></g></g></svg>
