<?xml version="1.0" encoding="UTF-8" standalone="no"?>
<!-- Created with Inkscape (http://www.inkscape.org/) -->

<svg
   width="166.09364mm"
   height="66.898003mm"
   viewBox="0 0 166.09364 66.898003"
   version="1.1"
   id="svg1"
   xml:space="preserve"
   xmlns:inkscape="http://www.inkscape.org/namespaces/inkscape"
   xmlns:sodipodi="http://sodipodi.sourceforge.net/DTD/sodipodi-0.dtd"
   xmlns="http://www.w3.org/2000/svg"
   xmlns:svg="http://www.w3.org/2000/svg"><sodipodi:namedview
     id="namedview1"
     pagecolor="#ffffff"
     bordercolor="#666666"
     borderopacity="1.0"
     inkscape:showpageshadow="2"
     inkscape:pageopacity="0.0"
     inkscape:pagecheckerboard="0"
     inkscape:deskcolor="#d1d1d1"
     inkscape:document-units="mm"
     inkscape:zoom="2"
     inkscape:cx="-236.75"
     inkscape:cy="322.75"
     inkscape:window-width="1920"
     inkscape:window-height="1017"
     inkscape:window-x="-8"
     inkscape:window-y="-8"
     inkscape:window-maximized="1"
     inkscape:current-layer="layer1"
     showguides="true" /><defs
     id="defs1"><linearGradient
       id="swatch1"
       inkscape:swatch="solid"><stop
         style="stop-color:#000000;stop-opacity:1;"
         offset="0"
         id="stop1" /></linearGradient></defs><g
     inkscape:label="Camada 1"
     inkscape:groupmode="layer"
     id="layer1"
     transform="translate(-20.439999,-115.05101)"><g
       id="g8"><path
         id="path1-8-8"
         d="m 160.36574,147.30084 c -0.8029,0 -1.45378,0.65087 -1.45378,1.45378 0,0.80287 0.65088,1.45375 1.45378,1.45375 z m 26.16792,1.45378 -14.53773,-8.39338 v 16.78673 z m -26.16792,1.45375 h 13.08396 v -2.90753 h -13.08396 z"
         style="fill:#c9cd00;fill-opacity:1;fill-rule:nonzero;stroke:none;stroke-width:0.352777" /><path
         id="path2-8-0"
         d="m 36.431511,137.12441 c -0.802899,0 -1.453774,0.65088 -1.453774,1.45377 0,0.80291 0.650875,1.45378 1.453774,1.45378 z m 4.361323,2.90755 c 0.802894,0 1.453774,-0.65087 1.453774,-1.45378 0,-0.80289 -0.65088,-1.45377 -1.453774,-1.45377 z m -4.361323,0 h 4.361323 v -2.90755 h -4.361323 z"
         style="fill:#c9cd00;fill-opacity:1;fill-rule:nonzero;stroke:none;stroke-width:0.352777" /><path
         id="path3-2-7"
         d="m 33.160523,138.57819 c 0,1.20435 -0.976315,2.18066 -2.180664,2.18066 -1.204344,0 -2.180659,-0.97631 -2.180659,-2.18066 0,-1.20435 0.976315,-2.18066 2.180659,-2.18066 1.204349,0 2.180664,0.97631 2.180664,2.18066 z"
         style="fill:#c9cd00;fill-opacity:1;fill-rule:nonzero;stroke:none;stroke-width:0.352777" /><path
         id="path4-3-4"
         d="m 48.425144,138.57819 c 0,1.20435 -0.976312,2.18066 -2.180664,2.18066 -1.204343,0 -2.180658,-0.97631 -2.180658,-2.18066 0,-1.20435 0.976315,-2.18066 2.180658,-2.18066 1.204352,0 2.180664,0.97631 2.180664,2.18066 z"
         style="fill:#c9cd00;fill-opacity:1;fill-rule:nonzero;stroke:none;stroke-width:0.352777" /><path
         id="path5-9-2"
         d="m 28.07231,148.39116 c -0.802899,0 -1.453774,0.65087 -1.453774,1.45378 0,0.8029 0.650875,1.45378 1.453774,1.45378 z m 4.361323,2.90756 c 0.802894,0 1.453774,-0.65088 1.453774,-1.45378 0,-0.80291 -0.65088,-1.45378 -1.453774,-1.45378 z m -4.361323,0 h 4.361323 v -2.90756 H 28.07231 Z"
         style="fill:#c9cd00;fill-opacity:1;fill-rule:nonzero;stroke:none;stroke-width:0.352777" /><path
         id="path6-4-8"
         d="m 24.801322,149.84494 c 0,1.20435 -0.976315,2.18067 -2.180664,2.18067 -1.204346,0 -2.180658,-0.97632 -2.180658,-2.18067 0,-1.20436 0.976312,-2.18067 2.180658,-2.18067 1.204349,0 2.180664,0.97631 2.180664,2.18067 z"
         style="fill:#c9cd00;fill-opacity:1;fill-rule:nonzero;stroke:none;stroke-width:0.352777" /><path
         id="path7-3-1"
         d="m 33.887407,164.74611 c 0,1.20436 -0.976315,2.18067 -2.180664,2.18067 -1.204343,0 -2.180658,-0.97631 -2.180658,-2.18067 0,-1.20433 0.976315,-2.18064 2.180658,-2.18064 1.204349,0 2.180664,0.97631 2.180664,2.18064 z"
         style="fill:#c9cd00;fill-opacity:1;fill-rule:nonzero;stroke:none;stroke-width:0.352777" /><path
         id="path8-9"
         d="m 37.158401,163.29236 c -0.8029,0 -1.453775,0.65087 -1.453775,1.45375 0,0.80291 0.650875,1.45378 1.453775,1.45378 z m 4.361322,2.90753 c 0.802894,0 1.453775,-0.65087 1.453775,-1.45378 0,-0.80288 -0.650881,-1.45375 -1.453775,-1.45375 z m -4.361322,0 h 4.361322 v -2.90753 h -4.361322 z"
         style="fill:#c9cd00;fill-opacity:1;fill-rule:nonzero;stroke:none;stroke-width:0.352777" /><path
         id="path9-0"
         d="m 49.152034,164.74611 c 0,1.20436 -0.976312,2.18067 -2.180664,2.18067 -1.204344,0 -2.180659,-0.97631 -2.180659,-2.18067 0,-1.20433 0.976315,-2.18064 2.180659,-2.18064 1.204352,0 2.180664,0.97631 2.180664,2.18064 z"
         style="fill:#c9cd00;fill-opacity:1;fill-rule:nonzero;stroke:none;stroke-width:0.352777" /><path
         id="path10-4-9"
         d="m 55.330573,164.74611 c 0,1.20436 -0.976315,2.18067 -2.180664,2.18067 -1.204346,0 -2.180661,-0.97631 -2.180661,-2.18067 0,-1.20433 0.976315,-2.18064 2.180661,-2.18064 1.204349,0 2.180664,0.97631 2.180664,2.18064 z"
         style="fill:#c9cd00;fill-opacity:1;fill-rule:nonzero;stroke:none;stroke-width:0.352777" /><path
         id="path11-6"
         d="m 40.429389,149.11805 c -0.40145,0 -0.726885,0.32543 -0.726885,0.72689 0,0.40145 0.325435,0.72689 0.726885,0.72689 z m 0.877429,1.24087 c 0.283869,-0.28388 0.283869,-0.74409 0,-1.02796 l -4.625876,-4.6259 c -0.283872,-0.28387 -0.744109,-0.28387 -1.027978,0 -0.283866,0.28387 -0.283866,0.74412 0,1.02799 l 4.111892,4.11189 -4.111892,4.11189 c -0.283866,0.28387 -0.283866,0.74411 0,1.02798 0.283869,0.28387 0.744106,0.28387 1.027978,0 z m -0.877429,0.21291 h 0.363445 v -1.45378 h -0.363445 z"
         style="fill:#c9cd00;fill-opacity:1;fill-rule:nonzero;stroke:none;stroke-width:0.352777" /><path
         id="path12-7"
         d="m 137.10535,162.56547 h -1.45377 v 2.90753 h 1.45377 z m 17.44529,2.90753 h 1.45378 v -2.90753 h -1.45378 z m -17.44529,0 h 17.44529 v -2.90753 h -17.44529 z"
         style="fill:#c9cd00;fill-opacity:1;fill-rule:nonzero;stroke:none;stroke-width:0.352777" /><path
         id="path13-7-8"
         d="m 128.74615,124.40389 h -1.45377 v 2.90755 h 1.45377 z m 17.44529,2.90755 h 1.45377 v -2.90755 h -1.45377 z m -17.44529,0 h 17.44529 v -2.90755 h -17.44529 z"
         style="fill:#c9cd00;fill-opacity:1;fill-rule:nonzero;stroke:none;stroke-width:0.352777" /><path
         id="path14-5"
         d="m 152.73342,124.40389 h -1.45377 v 2.90755 h 1.45377 z m 4.36133,2.90755 h 1.45377 v -2.90755 h -1.45377 z m -4.36133,0 h 4.36133 v -2.90755 h -4.36133 z"
         style="fill:#c9cd00;fill-opacity:1;fill-rule:nonzero;stroke:none;stroke-width:0.352777" /><path
         id="path15-5"
         d="m 67.324206,170.92466 c -0.802899,0 -1.453774,0.65088 -1.453774,1.45378 0,0.80288 0.650875,1.45375 1.453774,1.45375 z m 17.445286,2.90753 c 0.802896,0 1.453777,-0.65087 1.453777,-1.45375 0,-0.8029 -0.650881,-1.45378 -1.453777,-1.45378 z m -17.445286,0 h 17.445286 v -2.90753 H 67.324206 Z"
         style="fill:#606060;fill-opacity:1;fill-rule:nonzero;stroke:none;stroke-width:0.352777" /><path
         id="path16-8-5"
         d="m 54.967128,128.40177 c -0.802902,0 -1.453774,0.65088 -1.453774,1.45377 0,0.8029 0.650872,1.45378 1.453774,1.45378 z m 17.445286,2.90755 c 0.802894,0 1.453774,-0.65088 1.453774,-1.45378 0,-0.80289 -0.65088,-1.45377 -1.453774,-1.45377 z m -17.445286,0 h 17.445286 v -2.90755 H 54.967128 Z"
         style="fill:#606060;fill-opacity:1;fill-rule:nonzero;stroke:none;stroke-width:0.352777" /><path
         id="path17-4"
         d="m 140.37635,136.03408 c -0.8029,0 -1.45378,0.65088 -1.45378,1.45377 0,0.80291 0.65088,1.45378 1.45378,1.45378 z m 7.26887,2.90755 h 1.45377 v -2.90755 h -1.45377 z m -7.26887,0 h 7.26887 v -2.90755 h -7.26887 z"
         style="fill:#606060;fill-opacity:1;fill-rule:nonzero;stroke:none;stroke-width:0.352777" /><path
         id="path18-1"
         d="m 155.27753,136.03408 h -1.45378 v 2.90755 h 1.45378 z m 17.44528,2.90755 h 1.45378 v -2.90755 h -1.45378 z m -17.44528,0 h 17.44528 v -2.90755 h -17.44528 z"
         style="fill:#606060;fill-opacity:1;fill-rule:nonzero;stroke:none;stroke-width:0.352777" /><path
         id="path21-4-9"
         style="fill:#0068ff;fill-opacity:1;fill-rule:nonzero;stroke:none;stroke-width:0.352777"
         d="m 100.48245,115.051 c -0.0473,1.82194 -0.543555,3.31275 -1.490017,4.47216 -0.94647,1.13577 -2.224598,1.89262 -3.833585,2.27121 -1.632656,0.37859 -4.578289,0.58031 -8.837387,0.60398 -4.259098,0.0237 -7.323584,0.18838 -9.192852,0.49598 -1.869276,0.28394 -3.418973,0.923 -4.649383,1.91679 -1.230397,0.99379 -2.106123,2.24795 -2.626672,3.76229 -0.378587,1.04111 -0.56728,2.72165 -0.56728,5.0405 v 1.43654 l -25.481411,10.75943 v 5.36554 l 25.481411,10.89155 v 1.3191 c 0,2.03491 0.117801,3.50174 0.354415,4.40087 0.378584,1.32506 0.934773,2.41345 1.668282,3.26528 0.709848,0.8518 1.668447,1.57374 2.87519,2.16529 1.206746,0.56788 2.803358,0.9583 4.790937,1.17126 1.25407,0.1183 3.857236,0.18918 7.808733,0.21286 3.951504,0.0238 6.743361,0.22434 8.376017,0.60293 1.632648,0.37859 2.921722,1.14851 3.86819,2.30791 0.9228,1.13575 1.408122,2.61456 1.455412,4.43653 h 5.78604 c 0.0473,-1.82197 0.54356,-3.30078 1.49003,-4.43653 0.94646,-1.1594 2.23658,-1.92932 3.86923,-2.30791 1.63266,-0.37859 4.57829,-0.57925 8.83739,-0.60293 4.2591,-0.0236 7.32358,-0.17743 9.19285,-0.46138 1.86927,-0.30761 3.40698,-0.95864 4.61373,-1.95244 1.2304,-0.99378 2.11811,-2.24793 2.66233,-3.76227 0.37859,-1.04111 0.56728,-2.72063 0.56728,-5.03947 v -1.33064 l 25.45414,-10.88001 v -5.36554 l -25.45414,-10.74789 v -1.44808 c 0,-2.03491 -0.12979,-3.50278 -0.39007,-4.40192 -0.37859,-1.32505 -0.93477,-2.41344 -1.66828,-3.26526 -0.70985,-0.85182 -1.66845,-1.56177 -2.87519,-2.12965 -1.18309,-0.59154 -2.7797,-0.99291 -4.79094,-1.20586 -1.25407,-0.11831 -3.85724,-0.18919 -7.80873,-0.21287 -3.95151,-0.0237 -6.73137,-0.22539 -8.34037,-0.60398 -1.63265,-0.37859 -2.92277,-1.13544 -3.86923,-2.27121 -0.94647,-1.15941 -1.44273,-2.65022 -1.49003,-4.47216 z m 2.91085,5.92758 c 0.87548,2.08223 2.10565,3.69084 3.69098,4.82659 1.56167,1.13576 3.65557,1.89263 6.28201,2.27122 1.58533,0.21295 5.33579,0.31981 11.2512,0.31981 3.09968,0 5.08777,0.40241 5.96325,1.20691 1.937,2.33901 1.34814,5.96283 1.35746,8.82794 l 24.56495,10.09359 -24.56495,10.19003 c -0.22044,2.65561 0.68169,6.00604 -0.96739,8.32673 -0.63887,0.75718 -1.76323,1.2305 -3.37222,1.41978 -0.87548,0.0947 -3.61938,0.14261 -8.23341,0.14261 -5.08725,0 -8.74388,0.59111 -10.96808,1.77419 -2.24786,1.1594 -3.91537,3.04064 -5.0038,5.64343 -1.06477,-2.20054 -2.284,-3.80915 -3.65638,-4.82658 -1.372378,-1.04114 -3.324492,-1.77507 -5.856285,-2.20097 -1.632661,-0.26027 -5.547822,-0.39007 -11.747179,-0.39007 -3.076019,0 -5.05211,-0.40241 -5.927592,-1.20692 -1.912622,-2.30301 -1.344862,-5.85501 -1.385188,-8.6822 l -24.59641,-10.19003 24.596406,-10.09359 c -0.05169,-6.1538 0.225165,-7.52533 0.995118,-8.43787 0.615206,-0.78083 1.715579,-1.25413 3.300915,-1.41977 0.899139,-0.1183 3.655031,-0.17721 8.269054,-0.17721 5.087257,0 8.707919,-0.55618 10.861135,-1.66828 2.129546,-1.1121 3.845016,-3.02824 5.146406,-5.74934 z"
         sodipodi:nodetypes="cccscscsccccsccccssccccsscccsccccsccccscccccccsccccccsccccsccccccscc" /><path
         id="path20-3-0"
         d="m 97.417008,155.73022 c 0,0.2326 -0.09692,0.51366 -0.290753,0.8432 -0.193836,0.32952 -0.397364,0.49427 -0.610587,0.49427 -0.193836,0 -0.377978,-0.0291 -0.552434,-0.0872 -0.17445,-0.0775 -0.436131,-0.21323 -0.785032,-0.40704 -1.221176,-0.7172 -2.820326,-1.41501 -4.797462,-2.09346 -0.872262,-0.29075 -1.909286,-0.59118 -3.111071,-0.90133 -1.182407,-0.32951 -2.112819,-0.57182 -2.791245,-0.72689 l 0.203528,3.75073 c 0.01939,0.52338 0.08723,0.95952 0.203525,1.30842 0.116303,0.36828 0.174453,0.60087 0.174453,0.69779 0,0.21323 -0.106608,0.38769 -0.319831,0.52337 -0.213217,0.15507 -0.436131,0.2326 -0.668737,0.2326 -0.29075,0 -0.474898,-0.20352 -0.552434,-0.61058 0,-0.0388 -0.0291,-0.21323 -0.08723,-0.52335 -0.03876,-0.31014 -0.05815,-0.74628 -0.05815,-1.30842 0,-0.36827 -0.03876,-1.15332 -0.116302,-2.35511 -0.01939,-0.40706 -0.03876,-0.79473 -0.05815,-1.163 -0.01939,-0.38769 -0.0291,-0.72689 -0.0291,-1.01764 -0.05815,-0.0582 -0.135684,-0.12599 -0.232603,-0.20354 -0.07754,-0.0775 -0.145375,-0.18415 -0.203528,-0.31983 -0.05815,-0.17447 -0.106606,-0.35859 -0.145373,-0.55243 -0.03876,-0.19383 -0.05815,-0.33922 -0.05815,-0.43613 0,-0.13568 0.03876,-0.24231 0.116303,-0.31983 0.07753,-0.0776 0.193836,-0.16476 0.348906,-0.26168 -0.116303,-4.84592 -0.174456,-7.61777 -0.174456,-8.31559 0,-0.62028 0.0097,-1.1921 0.0291,-1.71545 0.01939,-0.52337 0.0291,-0.87227 0.0291,-1.04672 -0.116303,0.0194 -0.465209,0.0678 -1.046721,0.14537 -0.581507,0.0775 -1.046713,0.15507 -1.395621,0.23261 -1.240555,0.29076 -2.180659,0.57183 -2.820324,0.84318 -0.65904,0.25199 -1.289007,0.54274 -1.889905,0.87225 -0.174451,0.11631 -0.339209,0.21323 -0.494279,0.29078 -0.174458,0.0582 -0.339217,0.0872 -0.494286,0.0872 -0.15507,0 -0.290754,-0.0678 -0.407057,-0.20352 -0.1163,-0.15507 -0.174455,-0.33922 -0.174455,-0.55242 0,-0.3683 0.620278,-0.79473 1.860835,-1.27934 1.240552,-0.48458 2.587715,-0.88195 4.041489,-1.19209 0.814115,-0.17445 1.851139,-0.31983 3.111074,-0.43613 1.259938,-0.13568 2.432651,-0.20353 3.518138,-0.20353 1.860828,0 3.440597,0.20353 4.739301,0.61058 1.318091,0.40706 2.306651,0.97889 2.965696,1.71546 0.678426,0.73657 1.017643,1.57978 1.017643,2.52958 0,1.22115 -0.348906,2.26787 -1.046713,3.14015 -0.697814,0.87225 -1.628232,1.62822 -2.791248,2.26788 -1.143635,0.63965 -2.70402,1.36654 -4.681151,2.18067 -0.503978,0.23259 -1.007954,0.44582 -1.511929,0.63965 -0.48459,0.19384 -0.81411,0.32952 -0.988566,0.40706 0,0.11629 0.0097,0.20352 0.0291,0.26168 2.093434,0.46521 4.157795,0.99824 6.193076,1.59914 l 0.610586,0.17447 c 2.11282,0.63965 3.6732,1.14363 4.681154,1.5119 1.007946,0.34891 1.511922,0.63969 1.511922,0.87228 z m -3.459977,-13.05488 c 0,-0.63969 -0.281067,-1.23087 -0.843192,-1.77361 -0.562124,-0.54274 -1.415008,-0.97888 -2.558643,-1.3084 -1.124254,-0.34891 -2.490798,-0.52336 -4.099642,-0.52336 -1.201787,0 -1.95775,0.0194 -2.267889,0.0581 -0.01939,0.13569 -0.04848,0.45552 -0.08722,0.95949 -0.01939,0.50397 -0.0291,1.00795 -0.0291,1.51193 l 0.116303,4.65206 0.116303,3.60538 c 0.174456,-0.0193 0.513665,-0.10663 1.017643,-0.26168 0.523356,-0.17446 0.959487,-0.33922 1.308393,-0.49429 2.461729,-0.98856 4.293479,-1.97713 5.495269,-2.96569 1.221168,-1.00796 1.831758,-2.1613 1.831758,-3.45998 z m 20.236529,6.13492 c 0,0.13568 -0.0388,0.28106 -0.1163,0.43614 -0.0581,0.15504 -0.14538,0.27135 -0.26168,0.3489 -0.13568,0.11629 -0.41675,0.22291 -0.84319,0.31983 -0.42644,0.0775 -0.71719,0.126 -0.87226,0.14536 0.3009,1.40092 0.39171,1.71252 0.66873,3.082 0.34891,1.95776 0.7075,3.62474 1.07579,5.001 0.0969,0.44582 0.14538,0.70749 0.14538,0.78504 0,0.19384 -0.0775,0.35859 -0.2326,0.49427 -0.15507,0.13568 -0.33922,0.20354 -0.55244,0.20354 -0.19383,0 -0.36829,-0.10662 -0.52335,-0.31982 -0.15507,-0.19386 -0.26169,-0.3683 -0.31984,-0.52338 -0.17445,-0.65905 -0.33921,-1.39562 -0.49428,-2.20972 -0.13568,-0.81412 -0.30044,-1.793 -0.49428,-2.93663 -0.0775,-0.50398 -0.20353,-1.12427 -0.37798,-1.86084 -0.17446,-0.75597 -0.29076,-1.25024 -0.34891,-1.48284 -1.14363,0.15508 -3.11107,0.46519 -5.90232,0.93041 l -1.68638,0.29075 -0.61058,1.71545 -0.81412,2.32604 c -0.67843,2.11283 -1.16302,3.74105 -1.45377,4.88468 -0.0581,0.27138 -0.17445,0.4943 -0.34891,0.66874 -0.17445,0.19383 -0.387673,0.29075 -0.639659,0.29075 -0.213217,0 -0.397365,-0.0582 -0.552432,-0.17444 -0.135683,-0.11631 -0.203528,-0.28107 -0.203528,-0.4943 0,-0.2132 0.116301,-0.66873 0.348906,-1.36654 0.232604,-0.67842 0.368287,-1.08548 0.407054,-1.22116 0.07754,-0.19384 0.232606,-0.63966 0.465209,-1.33747 0.251986,-0.75597 0.57182,-1.66701 0.95949,-2.73309 0.40706,-1.08551 0.67843,-1.80269 0.81412,-2.1516 -0.98857,0.2326 -1.725152,0.41675 -2.209741,0.55243 -0.736579,0.19383 -1.192099,0.29077 -1.366549,0.29077 -0.213218,0 -0.377979,-0.0775 -0.494279,-0.23262 -0.09692,-0.17444 -0.145381,-0.35859 -0.145381,-0.55242 0,-0.23262 0.05815,-0.38767 0.174451,-0.46522 0.116303,-0.0969 0.310139,-0.18415 0.581511,-0.26167 0.736579,-0.17447 1.511922,-0.34891 2.326038,-0.52337 0.83349,-0.17444 1.40532,-0.29075 1.71545,-0.34891 0.19384,-0.56211 0.33922,-1.03701 0.43614,-1.4247 0.0775,-0.25196 0.17445,-0.56211 0.29075,-0.93041 0.13568,-0.38767 0.28106,-0.86257 0.43613,-1.4247 l 0.43613,-1.48286 c 0.73659,-2.59739 1.16302,-4.08024 1.27933,-4.44852 0.0969,-0.27138 0.18414,-0.48461 0.26167,-0.63968 0.0969,-0.15507 0.22292,-0.23259 0.37799,-0.23259 0.38767,0 0.73658,0.0581 1.04671,0.17444 0.0388,-0.0388 0.0969,-0.11629 0.17446,-0.2326 0.0969,-0.13568 0.19383,-0.22291 0.29075,-0.26168 0.1163,-0.0581 0.26168,-0.0872 0.43614,-0.0872 0.3489,0 0.74627,0.39737 1.19209,1.1921 0.4652,0.79473 0.91103,1.73482 1.33747,2.82033 0.25199,0.63965 0.57182,1.59914 0.95949,2.87845 0.38768,1.25995 0.63966,2.09344 0.75596,2.5005 0.29076,-0.0388 0.53306,-0.0872 0.72689,-0.14539 0.21322,-0.0775 0.34891,-0.12597 0.40706,-0.14536 0.0969,-0.0388 0.20352,-0.10663 0.31983,-0.20355 0.1163,-0.0969 0.22291,-0.16475 0.31983,-0.20351 0.0969,-0.0582 0.20353,-0.0582 0.31983,0 0.25198,0.11631 0.37798,0.35859 0.37798,0.72689 z m -3.80889,0.20351 c -0.0969,-0.3489 -0.30044,-1.07579 -0.61058,-2.18064 -0.31014,-1.12427 -0.6009,-2.03531 -0.87227,-2.73309 -0.27137,-0.71721 -0.62027,-1.45378 -1.04672,-2.20975 -0.42644,-0.75597 -0.78503,-1.23087 -1.07579,-1.4247 l -0.31983,0.75597 c -0.36828,0.73657 -0.64935,1.40531 -0.84319,2.0062 -0.46521,1.39562 -1.20178,3.70229 -2.20973,6.91997 l 3.40183,-0.58151 2.79125,-0.43613 z m 20.55841,6.71645 c 0,0.25199 -0.1163,0.45551 -0.3489,0.61058 -0.21323,0.15507 -0.47491,0.24231 -0.78504,0.26167 l -5.00098,0.37799 -3.45999,0.29075 -1.80268,0.14539 c -0.15507,0 -0.30045,-0.0969 -0.43613,-0.29075 -0.1163,-0.19384 -0.17445,-0.37799 -0.17445,-0.55243 0,-0.1357 0.0388,-0.23262 0.1163,-0.29077 0.0969,-0.0775 0.19383,-0.126 0.29075,-0.14537 0.1163,-0.0388 0.19384,-0.0678 0.2326,-0.0872 0.0194,-1.04672 0.0291,-3.48906 0.0291,-7.32703 0,-2.83001 -0.1163,-5.02036 -0.3489,-6.57106 -0.21323,-1.57006 -0.31983,-2.41326 -0.31983,-2.52956 0,-0.27137 0.0969,-0.48459 0.29075,-0.63966 0.21322,-0.15507 0.42644,-0.2326 0.63966,-0.2326 0.13568,0 0.24229,0.0582 0.31983,0.17445 0.0775,0.0969 0.13569,0.26168 0.17445,0.49429 0.19384,0.65904 0.33922,1.87052 0.43613,3.63444 0.1163,1.7639 0.17446,3.60535 0.17446,5.52434 0,1.62822 -0.01,3.14013 -0.0291,4.53578 -0.0194,1.3956 -0.0291,2.33572 -0.0291,2.8203 0.25199,-0.0193 0.73658,-0.0485 1.45377,-0.0872 0.7172,-0.0582 1.45378,-0.11631 2.20975,-0.17446 1.12425,-0.13568 2.39388,-0.33923 3.80888,-0.61058 1.14364,-0.21323 1.83175,-0.31983 2.06435,-0.31983 0.21323,0 0.34892,0.0969 0.40707,0.29075 0.0581,0.19383 0.0872,0.42643 0.0872,0.69781 z"
         style="fill:#04ba00;fill-opacity:1;fill-rule:nonzero;stroke:#009f10;stroke-width:0.453001;stroke-dasharray:none;stroke-opacity:1"
         sodipodi:nodetypes="ssscccccccscsccscccccssscsscsccccscssccsccssccccccccsssscsccccccccsssccccccsssccccccccccccscsccscccscsccccccccccscccsccccccsccscccscccccccsccccccscccscscscccssccccssss" /></g></g></svg>
