<?xml version="1.0" encoding="UTF-8" standalone="no"?>
<!-- Created with Inkscape (http://www.inkscape.org/) -->

<svg
   width="32.062054mm"
   height="32.000694mm"
   viewBox="0 0 32.062054 32.000694"
   version="1.1"
   id="svg1"
   xml:space="preserve"
   xmlns="http://www.w3.org/2000/svg"
   xmlns:svg="http://www.w3.org/2000/svg"><defs
     id="defs1" /><g
     id="layer1"
     transform="translate(-102.08299,-145.45996)"><path
       d="m 109.28601,165.51916 c -1.80249,-8e-5 -3.60494,0.42871 -4.96236,1.28628 -1.2465,0.78741 -1.89066,1.79124 -1.89066,2.79291 0,1.00166 0.64416,2.00608 1.89066,2.79343 1.23824,0.78236 2.99051,1.28838 4.96184,1.28838 1.97134,0 3.72413,-0.50612 4.96238,-1.28838 1.24648,-0.78735 1.89012,-1.79177 1.89012,-2.79343 0,-1.00167 -0.64364,-2.0055 -1.89012,-2.79291 -1.35668,-0.8572 -3.15935,-1.28619 -4.96186,-1.28628 z"
       style="fill:#717171;fill-opacity:1;stroke:#000000;stroke-width:0.7;stroke-dasharray:none"
       id="path48-7-4-4-4" /><path
       d="m 109.28601,160.18454 c -1.80249,-8e-5 -3.60494,0.42871 -4.96236,1.28628 -1.2465,0.78741 -1.89066,1.79124 -1.89066,2.79291 0,1.00166 0.64416,2.00608 1.89066,2.79343 1.23824,0.78236 2.99051,1.28838 4.96184,1.28838 1.97134,0 3.72413,-0.50612 4.96238,-1.28838 1.24648,-0.78735 1.89012,-1.79177 1.89012,-2.79343 0,-1.00167 -0.64364,-2.0055 -1.89012,-2.79291 -1.35668,-0.8572 -3.15935,-1.28619 -4.96186,-1.28628 z"
       style="fill:#ffffff;fill-opacity:1;stroke:#000000;stroke-width:0.7;stroke-dasharray:none"
       id="path48-7-4-0" /><path
       d="m 109.34825,154.79409 c -1.80249,-8e-5 -3.60494,0.42871 -4.96236,1.28628 -1.2465,0.78741 -1.89066,1.79124 -1.89066,2.79291 0,1.00166 0.64416,2.00608 1.89066,2.79343 1.23824,0.78236 2.99051,1.28838 4.96184,1.28838 1.97134,0 3.72413,-0.50612 4.96238,-1.28838 1.24648,-0.78735 1.89012,-1.79177 1.89012,-2.79343 0,-1.00167 -0.64364,-2.0055 -1.89012,-2.79291 -1.35668,-0.8572 -3.15935,-1.28619 -4.96186,-1.28628 z"
       style="fill:#0068ff;fill-opacity:1;stroke:#000000;stroke-width:0.7;stroke-dasharray:none"
       id="path48-7-49" /><path
       d="m 109.28601,149.5152 c -1.80249,-8e-5 -3.60494,0.42871 -4.96236,1.28628 -1.2465,0.78741 -1.89066,1.79124 -1.89066,2.79291 0,1.00166 0.64416,2.00608 1.89066,2.79343 1.23824,0.78236 2.99051,1.28838 4.96184,1.28838 1.97134,0 3.72413,-0.50612 4.96238,-1.28838 1.24648,-0.78735 1.89012,-1.79177 1.89012,-2.79343 0,-1.00167 -0.64364,-2.0055 -1.89012,-2.79291 -1.35668,-0.8572 -3.15935,-1.28619 -4.96186,-1.28628 z"
       style="fill:#009f10;fill-opacity:1;stroke:#000000;stroke-width:0.7;stroke-dasharray:none"
       id="path48-1" /><path
       d="m 121.34763,145.46089 c -0.0181,0.001 -0.035,0.004 -0.0501,0.007 -0.18006,0.0504 -0.28474,0.23289 -0.23462,0.41031 0.1995,0.70539 0.39841,1.41077 0.5979,2.11615 -0.0527,-0.0403 -1.1179,-0.77187 -3.26492,-0.84904 -0.57121,-0.0202 -1.4014,-0.02 -2.42414,0.27492 -0.80033,0.23086 -1.51984,0.58175 -2.11925,1.13843 l -5.1e-4,-5.2e-4 c -0.133,0.12904 -0.13601,0.34024 -0.005,0.47129 0.13095,0.13106 0.34553,0.13318 0.47853,0.004 l 5.1e-4,5.1e-4 c 0.25167,-0.29235 0.56721,-0.49086 0.91054,-0.64647 1.32485,-0.60054 2.40399,-0.58656 2.90835,-0.57774 1.74916,0.0302 2.91382,0.61824 3.18534,0.76946 -0.71532,0.19658 -1.43081,0.39263 -2.14612,0.58911 -0.18006,0.0504 -0.28474,0.2334 -0.23461,0.41083 0.0512,0.17743 0.23645,0.28143 0.41651,0.23203 0.97793,-0.26816 1.95574,-0.53671 2.93367,-0.80512 0.18005,-0.0504 0.28526,-0.2334 0.23513,-0.41083 -0.27265,-0.96351 -0.54457,-1.92727 -0.81701,-2.89078 -0.0568,-0.19186 -0.24382,-0.25104 -0.37052,-0.24391 z"
       style="stroke-width:0.052106"
       id="path49" /><path
       d="m 126.88082,165.44007 c -1.80249,-8e-5 -3.60494,0.42871 -4.96236,1.28628 -1.2465,0.78741 -1.89066,1.79124 -1.89066,2.79291 0,1.00166 0.64416,2.00608 1.89066,2.79343 1.23824,0.78236 2.99051,1.28838 4.96184,1.28838 1.97134,0 3.72413,-0.50612 4.96238,-1.28838 1.24648,-0.78735 1.89012,-1.79177 1.89012,-2.79343 0,-1.00167 -0.64364,-2.0055 -1.89012,-2.79291 -1.35668,-0.8572 -3.15935,-1.28619 -4.96186,-1.28628 z"
       style="fill:#dadada;fill-opacity:1;stroke:#000000;stroke-width:0.7;stroke-dasharray:none"
       id="path48-7-4-4" /><path
       d="m 117.00629,173.09796 c -0.0224,0.002 -0.0452,0.005 -0.0677,0.0114 -0.97793,0.26816 -1.95574,0.53722 -2.93367,0.80564 -0.18006,0.0504 -0.28526,0.23288 -0.23513,0.41031 0.27264,0.96351 0.54457,1.92727 0.817,2.89078 0.0649,0.21898 0.29928,0.2652 0.42013,0.23719 0.18006,-0.0504 0.28526,-0.23288 0.23513,-0.41031 -0.19949,-0.70538 -0.3984,-1.41077 -0.59789,-2.11615 0.0527,0.0403 1.11789,0.77136 3.26491,0.84853 0.57122,0.0202 1.4014,0.0199 2.42414,-0.27492 0.80033,-0.23086 1.51985,-0.58175 2.11925,-1.13843 l 5.2e-4,5.1e-4 c 0.133,-0.12904 0.13601,-0.34023 0.005,-0.47129 -0.13095,-0.13105 -0.34553,-0.13317 -0.47852,-0.004 l -5.2e-4,-5.2e-4 c -0.25167,0.29236 -0.5672,0.49087 -0.91054,0.64648 -1.32484,0.60053 -2.40398,0.58656 -2.90835,0.57774 -1.74915,-0.0302 -2.91382,-0.61825 -3.18533,-0.76946 0.71531,-0.19659 1.4308,-0.39263 2.14612,-0.58911 0.18006,-0.0504 0.28474,-0.2334 0.23461,-0.41083 -0.0448,-0.15525 -0.19205,-0.25419 -0.34882,-0.2434 z"
       style="stroke-width:0.052106"
       id="path50" /><path
       d="m 126.88082,160.10545 c -1.80249,-8e-5 -3.60494,0.42871 -4.96236,1.28628 -1.2465,0.78741 -1.89066,1.79124 -1.89066,2.79291 0,1.00166 0.64416,2.00608 1.89066,2.79343 1.23824,0.78236 2.99051,1.28838 4.96184,1.28838 1.97134,0 3.72413,-0.50612 4.96238,-1.28838 1.24648,-0.78735 1.89012,-1.79177 1.89012,-2.79343 0,-1.00167 -0.64364,-2.0055 -1.89012,-2.79291 -1.35668,-0.8572 -3.15935,-1.28619 -4.96186,-1.28628 z"
       style="fill:#7a7a7a;fill-opacity:1;stroke:#000000;stroke-width:0.7;stroke-dasharray:none"
       id="path48-7-4" /><path
       d="m 126.94306,154.715 c -1.80249,-8e-5 -3.60494,0.42871 -4.96236,1.28628 -1.2465,0.78741 -1.89066,1.79124 -1.89066,2.79291 0,1.00166 0.64416,2.00608 1.89066,2.79343 1.23824,0.78236 2.99051,1.28838 4.96184,1.28838 1.97134,0 3.72413,-0.50612 4.96238,-1.28838 1.24648,-0.78735 1.89012,-1.79177 1.89012,-2.79343 0,-1.00167 -0.64364,-2.0055 -1.89012,-2.79291 -1.35668,-0.8572 -3.15935,-1.28619 -4.96186,-1.28628 z"
       style="fill:#dadada;fill-opacity:1;stroke:#000000;stroke-width:0.7;stroke-dasharray:none"
       id="path48-7" /><path
       d="m 126.88082,149.43611 c -1.80249,-8e-5 -3.60494,0.42871 -4.96236,1.28628 -1.2465,0.78741 -1.89066,1.79124 -1.89066,2.79291 0,1.00166 0.64416,2.00608 1.89066,2.79343 1.23824,0.78236 2.99051,1.28838 4.96184,1.28838 1.97134,0 3.72413,-0.50612 4.96238,-1.28838 1.24648,-0.78735 1.89012,-1.79177 1.89012,-2.79343 0,-1.00167 -0.64364,-2.0055 -1.89012,-2.79291 -1.35668,-0.8572 -3.15935,-1.28619 -4.96186,-1.28628 z"
       style="fill:#7a7a7a;fill-opacity:1;stroke:#000000;stroke-width:0.7;stroke-dasharray:none"
       id="path48" /></g></svg>
