<?xml version="1.0" encoding="UTF-8" standalone="no"?>
<!-- Created with Inkscape (http://www.inkscape.org/) -->

<svg
   width="32mm"
   height="31.999964mm"
   viewBox="0 0 32 31.999964"
   version="1.1"
   id="svg1"
   xml:space="preserve"
   xmlns:inkscape="http://www.inkscape.org/namespaces/inkscape"
   xmlns:sodipodi="http://sodipodi.sourceforge.net/DTD/sodipodi-0.dtd"
   xmlns="http://www.w3.org/2000/svg"
   xmlns:svg="http://www.w3.org/2000/svg"><sodipodi:namedview
     id="namedview1"
     pagecolor="#ffffff"
     bordercolor="#666666"
     borderopacity="1.0"
     inkscape:showpageshadow="2"
     inkscape:pageopacity="0.0"
     inkscape:pagecheckerboard="0"
     inkscape:deskcolor="#d1d1d1"
     inkscape:document-units="mm"
     showguides="true"><sodipodi:guide
       position="-3.7655616,-114.69267"
       orientation="0,-1"
       id="guide56"
       inkscape:locked="false" /><inkscape:page
       x="1.9916063e-06"
       y="-2.6156415e-06"
       width="32"
       height="31.999962"
       id="page57"
       margin="0"
       bleed="0" /></sodipodi:namedview><defs
     id="defs1"><linearGradient
       id="swatch1"
       inkscape:swatch="solid"><stop
         style="stop-color:#000000;stop-opacity:1;"
         offset="0"
         id="stop1" /></linearGradient></defs><g
     id="g563"
     inkscape:groupmode="layer"
     inkscape:label="33"
     transform="matrix(0.26458332,0,0,0.26458334,155.86596,-107.63409)"><g
       id="g56"
       transform="matrix(0.15997987,0,0,0.15997987,-346.39453,366.4931)"
       style="stroke-width:6.25078"><rect
         style="fill:#0068ff;fill-opacity:1;stroke:none;stroke-width:54.3374;stroke-linecap:butt;stroke-linejoin:bevel;stroke-miterlimit:0;stroke-dasharray:none"
         id="rect56"
         width="756.00067"
         height="309.27252"
         x="-1517.0983"
         y="251.98732"
         ry="0" /><path
         id="path565"
         d="m -1482.7338,286.35082 h 687.2717 v 240.54552 h -687.2717 z"
         style="fill:#d9d9d9;fill-opacity:1;fill-rule:nonzero;stroke:none;stroke-width:8.33435" /><rect
         style="fill:#0068ff;fill-opacity:1;stroke:none;stroke-width:54.3374;stroke-linecap:butt;stroke-linejoin:bevel;stroke-miterlimit:0;stroke-dasharray:none"
         id="rect56-3"
         width="756.00067"
         height="464.45587"
         x="-1517.0983"
         y="543.53125"
         ry="0" /><path
         id="path568-1"
         d="m -1482.7338,561.25989 h 687.27174 v 412.36362 h -687.27174 z"
         style="fill:#d9d9d9;fill-opacity:1;fill-rule:nonzero;stroke:none;stroke-width:8.33435" /><path
         id="path578-7"
         d="m -1269.2798,967.62334 z m 166.7418,-349.88427 h 93.622 v 239.86207 c 0,22.77897 -5.8659,42.82448 -17.2548,60.13653 -11.2756,17.19788 -26.881,30.63757 -46.811,40.31858 -19.8193,9.56709 -42.6539,14.35077 -68.5091,14.35077 -22.4377,0 -42.9374,-3.87261 -61.5015,-11.6173 -18.5666,-7.85862 -33.3731,-20.15944 -44.4193,-36.9019 -11.0487,-16.85639 -16.5151,-38.72403 -16.4017,-65.60317 h 94.9879 c 0.3351,8.76994 1.8299,16.1729 4.4433,22.20938 2.7319,6.03649 6.4921,10.59208 11.2755,13.66728 4.8968,2.96128 10.8194,4.44192 17.7678,4.44192 7.0617,0 12.9843,-1.53863 17.7677,-4.6128 4.8968,-3.07494 8.5978,-7.63079 11.1029,-13.66727 2.4999,-6.1504 3.8169,-13.72423 3.9303,-22.72201 z"
         style="fill:#000000;fill-opacity:1;fill-rule:nonzero;stroke:none;stroke-width:8.33435" /><path
         id="path577-9"
         d="m -1190.6434,561.27264 c 0,28.46777 23.0769,51.54544 51.5454,51.54544 28.4686,0 51.5455,-23.07767 51.5455,-51.54544 z m 103.0909,0 V 252 h -103.0909 v 309.27264 z"
         style="fill:#009f10;fill-opacity:1;fill-rule:nonzero;stroke:none;stroke-width:8.33435" /></g></g></svg>
