<?xml version="1.0" encoding="UTF-8" standalone="no"?>
<!-- Created with Inkscape (http://www.inkscape.org/) -->

<svg
   width="32.700413mm"
   height="32.400219mm"
   viewBox="0 0 32.700413 32.400219"
   version="1.1"
   id="svg1"
   xml:space="preserve"
   xmlns:inkscape="http://www.inkscape.org/namespaces/inkscape"
   xmlns:sodipodi="http://sodipodi.sourceforge.net/DTD/sodipodi-0.dtd"
   xmlns="http://www.w3.org/2000/svg"
   xmlns:svg="http://www.w3.org/2000/svg"><sodipodi:namedview
     id="namedview1"
     pagecolor="#ffffff"
     bordercolor="#666666"
     borderopacity="1.0"
     inkscape:showpageshadow="2"
     inkscape:pageopacity="0.0"
     inkscape:pagecheckerboard="0"
     inkscape:deskcolor="#d1d1d1"
     inkscape:document-units="mm"
     showguides="true" /><defs
     id="defs1"><filter
       id="filter0_i_321_7"
       x="2"
       y="6"
       width="20"
       height="21"
       filterUnits="userSpaceOnUse"
       color-interpolation-filters="sRGB"><feFlood
         flood-opacity="0"
         result="BackgroundImageFix"
         id="feFlood5-6" /><feBlend
         mode="normal"
         in="SourceGraphic"
         in2="BackgroundImageFix"
         result="shape"
         id="feBlend5-8" /><feColorMatrix
         in="SourceAlpha"
         type="matrix"
         values="0 0 0 0 0 0 0 0 0 0 0 0 0 0 0 0 0 0 127 0"
         result="hardAlpha"
         id="feColorMatrix5-1" /><feOffset
         dy="4"
         id="feOffset5-7" /><feGaussianBlur
         stdDeviation="2"
         id="feGaussianBlur5-9" /><feComposite
         in2="hardAlpha"
         operator="arithmetic"
         k2="-1"
         k3="1"
         id="feComposite5-1"
         k1="0"
         k4="0" /><feColorMatrix
         type="matrix"
         values="0 0 0 0 0 0 0 0 0 0 0 0 0 0 0 0 0 0 0.25 0"
         id="feColorMatrix6-3" /><feBlend
         mode="normal"
         in2="shape"
         result="effect1_innerShadow_321_7"
         id="feBlend6-5" /></filter><filter
       id="filter1_d_321_7"
       x="6"
       y="9"
       width="12"
       height="5"
       filterUnits="userSpaceOnUse"
       color-interpolation-filters="sRGB"><feFlood
         flood-opacity="0"
         result="BackgroundImageFix"
         id="feFlood6" /><feColorMatrix
         in="SourceAlpha"
         type="matrix"
         values="0 0 0 0 0 0 0 0 0 0 0 0 0 0 0 0 0 0 127 0"
         result="hardAlpha"
         id="feColorMatrix7" /><feOffset
         dy="1"
         id="feOffset7" /><feGaussianBlur
         stdDeviation="0.5"
         id="feGaussianBlur7" /><feComposite
         in2="hardAlpha"
         operator="out"
         id="feComposite7" /><feColorMatrix
         type="matrix"
         values="0 0 0 0 0 0 0 0 0 0 0 0 0 0 0 0 0 0 0.25 0"
         id="feColorMatrix8" /><feBlend
         mode="normal"
         in2="BackgroundImageFix"
         result="effect1_dropShadow_321_7"
         id="feBlend8" /><feBlend
         mode="normal"
         in="SourceGraphic"
         in2="effect1_dropShadow_321_7"
         result="shape"
         id="feBlend9" /></filter></defs><g
     inkscape:label="Camada 1"
     inkscape:groupmode="layer"
     id="layer1"
     transform="translate(-67.458894,-155.71806)"><g
       filter="url(#filter0_i_321_7)"
       id="g1"
       transform="matrix(1.4622749,0,0,1.3950283,66.528057,155.50013)"
       style="fill:none;stroke-width:0.18525"><path
         d="m 2,6 h 20 v 15 c 0,1.1046 -0.8954,2 -2,2 H 4 C 2.89543,23 2,22.1046 2,21 Z"
         fill="#d9d9d9"
         id="path1"
         style="stroke-width:0.18525" /></g><path
       d="m 69.452604,163.8703 h 28.713 v 21.49218 c 0,1.22787 -1.014933,2.2233 -2.266815,2.2233 H 71.71942 c -1.251928,0 -2.266816,-0.99543 -2.266816,-2.2233 z"
       stroke="#0068ff"
       id="path2"
       style="fill:none;stroke-width:1.065;stroke-dasharray:none" /><path
       d="m 67.941396,158.68254 c 0,-1.22793 1.014882,-2.22338 2.266815,-2.22338 h 27.201786 c 1.251888,0 2.266816,0.99545 2.266816,2.22338 v 5.18776 H 67.941396 Z"
       fill="#d9d9d9"
       stroke="#0068ff"
       id="path3"
       style="stroke-width:0.965;stroke-dasharray:none" /><path
       d="m 81.542289,162.38808 v 2.22331 h 4.533631 v -2.22331 z m 4.533631,0 v -6.67001 h -4.533631 v 6.67001 z"
       fill="#009f10"
       id="path4"
       style="stroke-width:0.264583" /><g
       filter="url(#filter1_d_321_7)"
       id="g5"
       transform="matrix(1.5112103,0,0,1.48222,65.674576,154.23587)"
       style="fill:none;stroke-width:0.310695;stroke-dasharray:none"><rect
         x="7"
         y="9"
         width="10"
         height="3"
         rx="1.5"
         fill="#ff00f5"
         id="rect4"
         style="stroke-width:0.310695;stroke-dasharray:none" /><rect
         x="7.0500002"
         y="9.0500002"
         width="9.8999996"
         height="2.9000001"
         rx="1.45"
         stroke="#0068ff"
         stroke-width="0.0176784"
         id="rect5"
         style="stroke-width:0.310695;stroke-dasharray:none" /></g><path
       d="m 74.382413,175.93024 h 1.764521 v 4.43389 c -0.0021,0.42129 -0.110578,0.79169 -0.325222,1.11168 -0.212531,0.3182 -0.506625,0.56637 -0.882258,0.74542 -0.373485,0.17702 -0.803905,0.26554 -1.291178,0.26554 -0.422891,0 -0.809268,-0.0718 -1.159176,-0.21455 -0.349896,-0.1451 -0.628951,-0.37256 -0.837181,-0.68229 -0.20819,-0.31147 -0.311228,-0.71574 -0.309115,-1.21257 h 1.790269 c 0.0063,0.16189 0.03427,0.29915 0.08373,0.41063 0.0514,0.11152 0.122344,0.19552 0.212531,0.25265 0.0923,0.0561 0.203906,0.0824 0.334875,0.0824 0.133081,0 0.244687,-0.0281 0.334874,-0.0851 0.0923,-0.0571 0.162097,-0.14116 0.209275,-0.25266 0.04741,-0.11379 0.07191,-0.25377 0.07402,-0.42016 z m 6.167737,2.02113 c -0.01713,-0.21063 -0.09767,-0.37478 -0.241489,-0.49243 -0.141649,-0.1176 -0.357378,-0.17701 -0.647188,-0.17701 -0.184601,0 -0.33596,0.0224 -0.45402,0.0661 -0.115947,0.0449 -0.201793,0.10034 -0.257596,0.17366 -0.05597,0.0734 -0.08476,0.15798 -0.08693,0.25266 -0.0043,0.078 0.0097,0.14846 0.0417,0.2112 0.03427,0.0611 0.08802,0.11712 0.161012,0.16751 0.07299,0.0504 0.16638,0.0925 0.280157,0.13277 0.113776,0.0392 0.249028,0.0756 0.405699,0.1076 l 0.540951,0.11379 c 0.364918,0.0756 0.677283,0.1759 0.937061,0.2997 0.259652,0.12442 0.47224,0.2706 0.637427,0.43922 0.165296,0.16637 0.286668,0.35348 0.36389,0.56205 0.07951,0.2084 0.120116,0.43585 0.122401,0.68228 -0.0023,0.42519 -0.110635,0.7853 -0.325222,1.08009 -0.214758,0.29466 -0.521703,0.51875 -0.920937,0.67264 -0.397132,0.15348 -0.874746,0.23024 -1.432867,0.23024 -0.573142,0 -1.073307,-0.083 -1.500482,-0.24929 -0.425005,-0.1664 -0.755601,-0.42183 -0.991733,-0.76732 -0.23395,-0.34732 -0.35201,-0.79164 -0.35418,-1.33279 h 1.70011 c 0.01085,0.19775 0.06117,0.36412 0.151359,0.49914 0.09019,0.13501 0.216815,0.23697 0.37994,0.30642 0.165295,0.0694 0.361719,0.10415 0.589238,0.10415 0.191055,0 0.350981,-0.0224 0.479779,-0.0694 0.128798,-0.0449 0.226468,-0.11034 0.293008,-0.19273 0.06654,-0.0824 0.100868,-0.17589 0.103039,-0.28121 -0.0021,-0.0992 -0.03541,-0.18543 -0.09984,-0.25881 -0.06226,-0.0763 -0.165295,-0.14341 -0.309115,-0.20224 -0.14382,-0.0611 -0.338073,-0.11819 -0.582801,-0.17087 l -0.656858,-0.13892 c -0.583875,-0.12443 -1.044326,-0.33166 -1.381337,-0.62224 -0.334874,-0.29241 -0.501255,-0.69157 -0.499085,-1.19687 -0.0021,-0.41065 0.109493,-0.76957 0.334875,-1.07701 0.227553,-0.30923 0.542037,-0.55068 0.943435,-0.72318 0.403586,-0.17255 0.866168,-0.25881 1.387791,-0.25881 0.532327,0 0.992807,0.0874 1.381365,0.26218 0.388564,0.17478 0.687907,0.42072 0.898267,0.73886 0.212646,0.31596 0.319911,0.68536 0.322024,1.10853 z m 8.872495,1.21279 c 0,0.72005 -0.142792,1.32748 -0.428261,1.82219 -0.285468,0.493 -0.670823,0.86637 -1.155926,1.12116 -0.485091,0.25266 -1.026111,0.37926 -1.622888,0.37926 -0.601004,0 -1.144137,-0.12778 -1.629234,-0.38206 -0.482978,-0.25658 -0.867282,-0.63159 -1.152751,-1.12423 -0.283355,-0.49467 -0.424947,-1.10014 -0.424947,-1.81587 0,-0.72009 0.141592,-1.32645 0.424947,-1.81916 0.285469,-0.49466 0.669767,-0.86843 1.152751,-1.12115 0.485091,-0.25489 1.02823,-0.38206 1.629234,-0.38206 0.596777,0 1.137791,0.12713 1.622888,0.38206 0.485092,0.25266 0.870458,0.62637 1.155926,1.12115 0.285469,0.49297 0.428261,1.09907 0.428261,1.81916 z m -1.841862,0 c 0,-0.38766 -0.05255,-0.71386 -0.157757,-0.97901 -0.103095,-0.26722 -0.256453,-0.46947 -0.460474,-0.60638 -0.201736,-0.13892 -0.450821,-0.20838 -0.746994,-0.20838 -0.296206,0 -0.54632,0.0694 -0.750163,0.20838 -0.201908,0.13669 -0.355266,0.33892 -0.460475,0.60638 -0.103095,0.26497 -0.154614,0.59152 -0.154614,0.97901 0,0.3871 0.05141,0.71473 0.154614,0.98211 0.105209,0.26553 0.258567,0.46722 0.460475,0.60637 0.203849,0.13668 0.453962,0.20504 0.750163,0.20504 0.296207,0 0.545236,-0.0684 0.746994,-0.20504 0.204021,-0.13894 0.357379,-0.34116 0.460474,-0.60637 0.105152,-0.26722 0.157757,-0.59484 0.157757,-0.98211 z m 8.375882,-3.23392 v 6.46779 h -1.49413 l -2.382728,-3.39812 h -0.03827 v 3.39812 h -1.790331 v -6.46779 h 1.519827 l 2.344037,3.38552 h 0.05141 v -3.38552 z"
       fill="#000000"
       id="path5"
       style="stroke-width:0.264583" /></g><style
     type="text/css"
     id="style1">
	.st0{fill:#FFFFFF;}
	.st1{fill:#2C282C;}
	.st2{fill:#173647;}
	.st3{fill:#50E4EA;}
	.st4{fill:#FCDC00;}
	.st5{fill:#85EA2D;}
	.st6{fill:#F4CF14;}
	.st7{fill:none;}
	.st8{fill:#04AADB;}
	.st9{fill:#07CED6;}
	.st10{fill:#63DB2A;}
	.st11{fill:#FF730B;}
	.st12{fill:#17D1FC;}
	.st13{fill:#00AADB;}
	.st14{fill:#758491;}
</style><style
     type="text/css"
     id="style1-2">
	.st0{fill:#FFFFFF;}
	.st1{fill:#2C282C;}
	.st2{fill:#173647;}
	.st3{fill:#50E4EA;}
	.st4{fill:#FCDC00;}
	.st5{fill:#85EA2D;}
	.st6{fill:#F4CF14;}
	.st7{fill:none;}
	.st8{fill:#04AADB;}
	.st9{fill:#07CED6;}
	.st10{fill:#63DB2A;}
	.st11{fill:#FF730B;}
	.st12{fill:#17D1FC;}
	.st13{fill:#00AADB;}
	.st14{fill:#758491;}
</style></svg>
