<?xml version="1.0" encoding="UTF-8" standalone="no"?>
<!-- Created with Inkscape (http://www.inkscape.org/) -->

<svg
   width="31.745083mm"
   height="39.200001mm"
   viewBox="0 0 31.745083 39.200001"
   version="1.1"
   id="svg1"
   xml:space="preserve"
   xmlns="http://www.w3.org/2000/svg"
   xmlns:svg="http://www.w3.org/2000/svg"><defs
     id="defs1"><linearGradient
       id="swatch1"><stop
         style="stop-color:#000000;stop-opacity:1;"
         offset="0"
         id="stop1" /></linearGradient><filter
       style="color-interpolation-filters:sRGB"
       id="filter9"
       x="-0.98353476"
       y="-0.74016557"
       width="3.2144997"
       height="2.6665363"><feFlood
         result="flood"
         in="SourceGraphic"
         flood-opacity="0.498039"
         flood-color="rgb(0,0,0)"
         id="feFlood7" /><feGaussianBlur
         result="blur"
         in="SourceGraphic"
         stdDeviation="3.000000"
         id="feGaussianBlur7" /><feOffset
         result="offset"
         in="blur"
         dx="2.000000"
         dy="2.000000"
         id="feOffset7" /><feComposite
         result="comp1"
         operator="in"
         in="flood"
         in2="offset"
         id="feComposite8" /><feComposite
         result="comp2"
         operator="over"
         in="SourceGraphic"
         in2="comp1"
         id="feComposite9" /></filter></defs><g
     id="layer1"
     transform="translate(-103.69097,-206.12904)"><path
       id="path74-8"
       d="m 115.76769,221.31868 c 0,-1.78318 1.69406,-3.22872 3.78367,-3.22872 h 11.35102 c 2.08971,0 3.78366,1.44554 3.78366,3.22872 v 16.14365 h -18.91835 z"
       style="fill:#0068ff;fill-opacity:1;fill-rule:nonzero;stroke:#000000;stroke-width:1.5;stroke-dasharray:none;stroke-opacity:1" /><path
       id="path77-2"
       d="m 115.76769,233.76472 h 18.91835 v 7.20955 c 0,1.99085 -1.69395,3.60477 -3.78366,3.60477 h -11.35102 c -2.08962,0 -3.78367,-1.61392 -3.78367,-3.60477 z"
       style="fill:#009f10;fill-opacity:1;fill-rule:nonzero;stroke:#000000;stroke-width:1.5;stroke-dasharray:none;stroke-opacity:1" /><path
       id="path80-4"
       d="m 111.64096,218.25603 c 0,-2.30689 1.80951,-4.17699 4.04153,-4.17699 v 0 c 2.23205,0 4.04156,1.8701 4.04156,4.17699 v 2.38685 c 0,2.3069 -1.80951,4.177 -4.04156,4.177 v 0 c -2.23202,0 -4.04153,-1.8701 -4.04153,-4.177 z"
       style="fill:#717171;fill-opacity:1;fill-rule:nonzero;stroke:#000000;stroke-width:1.5;stroke-dasharray:none;stroke-opacity:1;filter:url(#filter9)" /></g></svg>
