<?xml version="1.0" encoding="UTF-8" standalone="no"?>
<!-- Created with Inkscape (http://www.inkscape.org/) -->

<svg
   width="32.700413mm"
   height="32.400219mm"
   viewBox="0 0 32.700413 32.400219"
   version="1.1"
   id="svg1"
   xml:space="preserve"
   xmlns="http://www.w3.org/2000/svg"
   xmlns:svg="http://www.w3.org/2000/svg"><defs
     id="defs1"><filter
       id="filter0_i_321_7"
       x="2"
       y="6"
       width="20"
       height="21"
       filterUnits="userSpaceOnUse"
       color-interpolation-filters="sRGB"><feFlood
         flood-opacity="0"
         result="BackgroundImageFix"
         id="feFlood5-6" /><feBlend
         mode="normal"
         in="SourceGraphic"
         in2="BackgroundImageFix"
         result="shape"
         id="feBlend5-8" /><feColorMatrix
         in="SourceAlpha"
         type="matrix"
         values="0 0 0 0 0 0 0 0 0 0 0 0 0 0 0 0 0 0 127 0"
         result="hardAlpha"
         id="feColorMatrix5-1" /><feOffset
         dy="4"
         id="feOffset5-7" /><feGaussianBlur
         stdDeviation="2"
         id="feGaussianBlur5-9" /><feComposite
         in2="hardAlpha"
         operator="arithmetic"
         k2="-1"
         k3="1"
         id="feComposite5-1"
         k1="0"
         k4="0" /><feColorMatrix
         type="matrix"
         values="0 0 0 0 0 0 0 0 0 0 0 0 0 0 0 0 0 0 0.25 0"
         id="feColorMatrix6-3" /><feBlend
         mode="normal"
         in2="shape"
         result="effect1_innerShadow_321_7"
         id="feBlend6-5" /></filter><filter
       id="filter1_d_321_7"
       x="6"
       y="9"
       width="12"
       height="5"
       filterUnits="userSpaceOnUse"
       color-interpolation-filters="sRGB"><feFlood
         flood-opacity="0"
         result="BackgroundImageFix"
         id="feFlood6" /><feColorMatrix
         in="SourceAlpha"
         type="matrix"
         values="0 0 0 0 0 0 0 0 0 0 0 0 0 0 0 0 0 0 127 0"
         result="hardAlpha"
         id="feColorMatrix7" /><feOffset
         dy="1"
         id="feOffset7" /><feGaussianBlur
         stdDeviation="0.5"
         id="feGaussianBlur7" /><feComposite
         in2="hardAlpha"
         operator="out"
         id="feComposite7" /><feColorMatrix
         type="matrix"
         values="0 0 0 0 0 0 0 0 0 0 0 0 0 0 0 0 0 0 0.25 0"
         id="feColorMatrix8" /><feBlend
         mode="normal"
         in2="BackgroundImageFix"
         result="effect1_dropShadow_321_7"
         id="feBlend8" /><feBlend
         mode="normal"
         in="SourceGraphic"
         in2="effect1_dropShadow_321_7"
         result="shape"
         id="feBlend9" /></filter></defs><g
     id="layer1"
     transform="translate(-67.458894,-155.71806)"><g
       filter="url(#filter0_i_321_7)"
       id="g1"
       transform="matrix(1.4622749,0,0,1.3950283,66.528057,155.50013)"
       style="fill:none;stroke-width:0.18525"><path
         d="m 2,6 h 20 v 15 c 0,1.1046 -0.8954,2 -2,2 H 4 C 2.89543,23 2,22.1046 2,21 Z"
         fill="#d9d9d9"
         id="path1"
         style="stroke-width:0.18525" /></g><path
       d="m 72.276062,182.6197 v -6.40108 h 2.522733 c 0.443173,0 0.815333,0.0656 1.11648,0.19686 0.303027,0.13129 0.53124,0.31671 0.684653,0.55641 0.155307,0.23955 0.23296,0.52193 0.23296,0.847 0,0.23544 -0.04735,0.45006 -0.142053,0.64384 -0.0928,0.19378 -0.22348,0.35631 -0.39204,0.4876 -0.16856,0.12909 -0.365533,0.21872 -0.590907,0.26874 v 0.0625 c 0.25,0.0104 0.477267,0.0802 0.681814,0.20947 0.204546,0.12704 0.367426,0.30322 0.48864,0.52824 0.121213,0.22298 0.181813,0.48541 0.181813,0.7876 0,0.35001 -0.08333,0.66158 -0.25,0.93458 -0.164773,0.27299 -0.399613,0.4876 -0.704547,0.64383 -0.30492,0.15623 -0.66856,0.23441 -1.090906,0.23441 z m 1.579547,-1.38771 h 0.738639 c 0.265147,0 0.464014,-0.0543 0.596587,-0.16253 0.132573,-0.11046 0.198867,-0.273 0.198867,-0.48761 0,-0.15007 -0.03125,-0.2771 -0.09375,-0.38125 -0.06251,-0.1043 -0.15152,-0.18337 -0.267053,-0.23765 -0.113627,-0.0541 -0.250947,-0.0813 -0.411934,-0.0813 h -0.761359 z m 0,-2.42542 h 0.647733 c 0.138253,0 0.260413,-0.0241 0.36648,-0.0719 0.106053,-0.048 0.18844,-0.11677 0.247146,-0.2064 0.06061,-0.0917 0.09092,-0.20317 0.09092,-0.33431 0,-0.19804 -0.0644,-0.34913 -0.193186,-0.45328 -0.128787,-0.10621 -0.291667,-0.15946 -0.48864,-0.15946 h -0.670453 z m 6.900546,-0.58765 c -0.01507,-0.2083 -0.08613,-0.37084 -0.21304,-0.4876 -0.125,-0.11662 -0.315347,-0.17501 -0.571027,-0.17501 -0.16288,0 -0.2964,0.0219 -0.400573,0.0656 -0.102267,0.0417 -0.178027,0.099 -0.227267,0.17193 -0.04924,0.0729 -0.07481,0.15637 -0.07671,0.25011 -0.0038,0.077 0.0085,0.14684 0.03693,0.20933 0.03031,0.0604 0.07765,0.11574 0.14204,0.16576 0.0644,0.0478 0.146787,0.0917 0.24716,0.13129 0.100387,0.0395 0.219707,0.075 0.35796,0.10621 l 0.477267,0.11251 c 0.32192,0.075 0.59752,0.17398 0.82672,0.29691 0.2292,0.12293 0.416666,0.26771 0.562533,0.4345 0.145733,0.16459 0.2528,0.35001 0.320933,0.55626 0.07013,0.2064 0.106134,0.43142 0.108,0.67523 -0.0019,0.42086 -0.0976,0.77717 -0.286933,1.06895 -0.189333,0.29162 -0.460267,0.51357 -0.812533,0.66569 -0.3504,0.15212 -0.771747,0.2281 -1.264174,0.2281 -0.50568,0 -0.94696,-0.0823 -1.323866,-0.24688 -0.375,-0.16459 -0.666667,-0.41778 -0.875,-0.75943 -0.206427,-0.34384 -0.3106,-0.78348 -0.312494,-1.31906 h 1.5 c 0.0095,0.19584 0.05397,0.36043 0.13352,0.49392 0.07955,0.13334 0.191294,0.23441 0.335227,0.30306 0.14584,0.0688 0.319133,0.10313 0.519893,0.10313 0.16856,0 0.309654,-0.0229 0.423294,-0.0687 0.11364,-0.0459 0.199813,-0.10944 0.25852,-0.1907 0.05868,-0.0813 0.08908,-0.17398 0.09095,-0.27813 -0.0019,-0.098 -0.03133,-0.18337 -0.08813,-0.25628 -0.05489,-0.0751 -0.1458,-0.1417 -0.272693,-0.20008 -0.126894,-0.0604 -0.298307,-0.11677 -0.514214,-0.16885 l -0.579546,-0.13745 c -0.515147,-0.12293 -0.9214,-0.32815 -1.218747,-0.61581 -0.295453,-0.28958 -0.44224,-0.68447 -0.440333,-1.18455 -0.0019,-0.40634 0.09659,-0.76163 0.295453,-1.06587 0.200747,-0.30629 0.478213,-0.54481 0.832387,-0.71571 0.356053,-0.1709 0.7642,-0.25627 1.224426,-0.25627 0.469694,0 0.875934,0.0865 1.218734,0.2595 0.3428,0.1728 0.607066,0.4166 0.792666,0.73126 0.187467,0.3126 0.282134,0.67831 0.284,1.09711 z m 7.828133,1.20024 c 0,0.71264 -0.12587,1.31378 -0.37787,1.80344 -0.25186,0.48761 -0.59186,0.85742 -1.01986,1.10959 -0.428,0.24996 -0.90534,0.37509 -1.43174,0.37509 -0.5304,0 -1.00946,-0.12616 -1.437596,-0.37832 -0.426134,-0.25407 -0.765067,-0.62506 -1.017067,-1.11266 -0.25,-0.48966 -0.374933,-1.08876 -0.374933,-1.79714 0,-0.71263 0.124933,-1.31275 0.374933,-1.80036 0.252,-0.48966 0.590933,-0.85947 1.017067,-1.10958 0.428136,-0.25216 0.907196,-0.37817 1.437596,-0.37817 0.5264,0 1.00374,0.12601 1.43174,0.37817 0.428,0.25011 0.768,0.61992 1.01986,1.10958 0.252,0.48761 0.37787,1.08773 0.37787,1.80036 z m -1.62493,0 c 0,-0.38345 -0.0464,-0.70647 -0.1392,-0.9689 -0.0909,-0.26464 -0.2264,-0.46472 -0.40627,-0.60012 -0.17813,-0.1376 -0.39773,-0.20625 -0.65907,-0.20625 -0.26146,0 -0.48213,0.0686 -0.662,0.20625 -0.178,0.1354 -0.31346,0.33548 -0.40626,0.60012 -0.09094,0.26243 -0.136403,0.58545 -0.136403,0.9689 0,0.38331 0.04547,0.70736 0.136403,0.97199 0.0928,0.26258 0.22826,0.46267 0.40626,0.60012 0.17987,0.1354 0.40054,0.20317 0.662,0.20317 0.26134,0 0.48094,-0.0678 0.65907,-0.20317 0.17987,-0.13745 0.31533,-0.33754 0.40627,-0.60012 0.0928,-0.26463 0.1392,-0.58868 0.1392,-0.97199 z m 7.38986,-3.20054 v 6.40108 h -1.31813 l -2.10227,-3.36307 h -0.0341 v 3.36307 h -1.5796 v -6.40108 h 1.34093 l 2.06814,3.35061 h 0.0455 v -3.35061 z"
       fill="#000000"
       id="path5-4"
       style="stroke-width:0.264583" /><path
       d="m 69.452604,163.8703 h 28.713 v 21.49218 c 0,1.22787 -1.014933,2.2233 -2.266815,2.2233 H 71.71942 c -1.251928,0 -2.266816,-0.99543 -2.266816,-2.2233 z"
       stroke="#0068ff"
       id="path2"
       style="fill:none;stroke-width:1.065;stroke-dasharray:none" /><path
       d="m 67.941396,158.68254 c 0,-1.22793 1.014882,-2.22338 2.266815,-2.22338 h 27.201786 c 1.251888,0 2.266816,0.99545 2.266816,2.22338 v 5.18776 H 67.941396 Z"
       fill="#d9d9d9"
       stroke="#0068ff"
       id="path3"
       style="stroke-width:0.965;stroke-dasharray:none" /><path
       d="m 81.542289,162.38808 v 2.22331 h 4.533631 v -2.22331 z m 4.533631,0 v -6.67001 h -4.533631 v 6.67001 z"
       fill="#009f10"
       id="path4"
       style="stroke-width:0.264583" /><g
       filter="url(#filter1_d_321_7)"
       id="g5"
       transform="matrix(1.5112103,0,0,1.48222,65.674576,154.23587)"
       style="fill:#ff8819;fill-opacity:1;stroke-width:0.310695;stroke-dasharray:none"><rect
         x="7"
         y="9"
         width="10"
         height="3"
         rx="1.5"
         fill="#ff00f5"
         id="rect4"
         style="fill:#ff8819;fill-opacity:1;stroke-width:0.310695;stroke-dasharray:none" /><rect
         x="7.0500002"
         y="9.0500002"
         width="9.8999996"
         height="2.9000001"
         rx="1.45"
         stroke="#0068ff"
         stroke-width="0.0176784"
         id="rect5"
         style="fill:#ff8819;fill-opacity:1;stroke-width:0.310695;stroke-dasharray:none" /></g></g><style
     type="text/css"
     id="style1">
	.st0{fill:#FFFFFF;}
	.st1{fill:#2C282C;}
	.st2{fill:#173647;}
	.st3{fill:#50E4EA;}
	.st4{fill:#FCDC00;}
	.st5{fill:#85EA2D;}
	.st6{fill:#F4CF14;}
	.st7{fill:none;}
	.st8{fill:#04AADB;}
	.st9{fill:#07CED6;}
	.st10{fill:#63DB2A;}
	.st11{fill:#FF730B;}
	.st12{fill:#17D1FC;}
	.st13{fill:#00AADB;}
	.st14{fill:#758491;}
</style><style
     type="text/css"
     id="style1-2">
	.st0{fill:#FFFFFF;}
	.st1{fill:#2C282C;}
	.st2{fill:#173647;}
	.st3{fill:#50E4EA;}
	.st4{fill:#FCDC00;}
	.st5{fill:#85EA2D;}
	.st6{fill:#F4CF14;}
	.st7{fill:none;}
	.st8{fill:#04AADB;}
	.st9{fill:#07CED6;}
	.st10{fill:#63DB2A;}
	.st11{fill:#FF730B;}
	.st12{fill:#17D1FC;}
	.st13{fill:#00AADB;}
	.st14{fill:#758491;}
</style></svg>
