<?xml version="1.0" encoding="UTF-8" standalone="no"?>
<!-- Created with Inkscape (http://www.inkscape.org/) -->

<svg
   width="32mm"
   height="32.737652mm"
   viewBox="0 0 32 32.737652"
   version="1.1"
   id="svg1"
   xml:space="preserve"
   xmlns="http://www.w3.org/2000/svg"
   xmlns:svg="http://www.w3.org/2000/svg"><defs
     id="defs1"><filter
       id="filter0_i_255_2-7"
       x="1"
       y="6"
       width="22"
       height="21"
       filterUnits="userSpaceOnUse"
       color-interpolation-filters="sRGB"><feFlood
         flood-opacity="0"
         result="BackgroundImageFix"
         id="feFlood5-9" /><feBlend
         mode="normal"
         in="SourceGraphic"
         in2="BackgroundImageFix"
         result="shape"
         id="feBlend5-1" /><feColorMatrix
         in="SourceAlpha"
         type="matrix"
         values="0 0 0 0 0 0 0 0 0 0 0 0 0 0 0 0 0 0 127 0"
         result="hardAlpha"
         id="feColorMatrix5-2" /><feOffset
         dy="4"
         id="feOffset5-3" /><feGaussianBlur
         stdDeviation="2"
         id="feGaussianBlur5-89" /><feComposite
         in2="hardAlpha"
         operator="arithmetic"
         k2="-1"
         k3="1"
         id="feComposite5-5"
         k1="0"
         k4="0" /><feColorMatrix
         type="matrix"
         values="0 0 0 0 0 0 0 0 0 0 0 0 0 0 0 0 0 0 0.25 0"
         id="feColorMatrix6-1" /><feBlend
         mode="normal"
         in2="shape"
         result="effect1_innerShadow_255_2"
         id="feBlend6-76" /></filter></defs><g
     id="layer1"
     transform="translate(-83.727694,-100.97155)"><rect
       width="32"
       height="35.206249"
       fill="#ffffff"
       id="rect1"
       x="83.727684"
       y="101.29132"
       style="stroke-width:0.264583" /><path
       d="m 105.82091,108.79756 v -6.0435 h 8.12428 v 6.715 h -8.12428 z m -12.186435,0.6715 H 85.51019 v -6.715 h 8.124285 v 6.0435 z"
       fill="#009f10"
       stroke="#000000"
       id="path1-0"
       style="stroke-width:3.565;stroke-dasharray:none;paint-order:stroke fill markers" /><path
       d="m 85.06102,109.53521 h 29.33333 z m 30.66667,18.802 c 0,2.96682 -2.38787,5.372 -5.33334,5.372 H 89.06102 c -2.94552,0 -5.333333,-2.40518 -5.333333,-5.372 h 2.666667 c 0,1.48348 1.193906,2.686 2.666666,2.686 h 21.33333 c 1.4728,0 2.66667,-1.20252 2.66667,-2.686 z m -26.66667,5.372 c -2.94552,0 -5.333333,-2.40518 -5.333333,-5.372 v -18.802 h 2.666667 v 18.802 c 0,1.48348 1.193906,2.686 2.666666,2.686 z m 26.66667,-24.174 v 18.802 c 0,2.96682 -2.38787,5.372 -5.33334,5.372 v -2.686 c 1.4728,0 2.66667,-1.20252 2.66667,-2.686 v -18.802 z"
       fill="#000000"
       mask="url(#path-2-inside-1_255_2)"
       id="path4-9"
       style="stroke-width:0.264583" /><g
       filter="url(#filter0_i_255_2)"
       id="g3"
       style="fill:none;stroke-width:0.202905;filter:url(#filter0_i_255_2-7)"
       transform="matrix(1.2925001,0,0,1.3155781,84.217687,101.57559)"><path
         d="m 1,6 h 22 v 14 c 0,1.6569 -1.3431,3 -3,3 H 4 C 2.34315,23 1,21.6569 1,20 Z"
         fill="#d9d9d9"
         id="path3-7"
         style="stroke-width:0.202905" /></g><path
       d="m 88.069499,128.53778 v -13.83115 h 9.725036 v 3.02559 h -5.970107 v 2.37725 h 5.375804 v 3.02552 h -5.375804 v 5.40279 z m 16.427831,0 h -5.321782 v -13.83115 h 5.267752 c 1.42268,0 2.65187,0.27674 3.68738,0.8308 1.03995,0.54927 1.84139,1.34171 2.40416,2.37717 0.56735,1.03098 0.85104,2.26692 0.85104,3.70772 0,1.44074 -0.28147,2.67879 -0.84422,3.7143 -0.56276,1.0311 -1.35978,1.8235 -2.3907,2.37724 -1.03108,0.54928 -2.249,0.82392 -3.65363,0.82392 z m -1.56689,-3.18767 h 1.43172 c 0.68447,0 1.26753,-0.11024 1.74915,-0.33065 0.48638,-0.22042 0.85549,-0.60095 1.10763,-1.14123 0.2566,-0.54028 0.38496,-1.29225 0.38496,-2.25568 0,-0.96351 -0.13051,-1.71536 -0.39174,-2.25565 -0.2566,-0.54028 -0.6347,-0.92075 -1.13456,-1.14135 -0.49523,-0.22043 -1.10302,-0.33065 -1.82331,-0.33065 h -1.32385 z"
       fill="#ff0000"
       id="path5"
       style="stroke-width:0.264582" /></g><style
     type="text/css"
     id="style1">
	.st0{fill:#FFFFFF;}
	.st1{fill:#2C282C;}
	.st2{fill:#173647;}
	.st3{fill:#50E4EA;}
	.st4{fill:#FCDC00;}
	.st5{fill:#85EA2D;}
	.st6{fill:#F4CF14;}
	.st7{fill:none;}
	.st8{fill:#04AADB;}
	.st9{fill:#07CED6;}
	.st10{fill:#63DB2A;}
	.st11{fill:#FF730B;}
	.st12{fill:#17D1FC;}
	.st13{fill:#00AADB;}
	.st14{fill:#758491;}
</style><style
     type="text/css"
     id="style1-2">
	.st0{fill:#FFFFFF;}
	.st1{fill:#2C282C;}
	.st2{fill:#173647;}
	.st3{fill:#50E4EA;}
	.st4{fill:#FCDC00;}
	.st5{fill:#85EA2D;}
	.st6{fill:#F4CF14;}
	.st7{fill:none;}
	.st8{fill:#04AADB;}
	.st9{fill:#07CED6;}
	.st10{fill:#63DB2A;}
	.st11{fill:#FF730B;}
	.st12{fill:#17D1FC;}
	.st13{fill:#00AADB;}
	.st14{fill:#758491;}
</style><style
     type="text/css"
     id="style1-5">
	.st0{fill:#FFFFFF;}
	.st1{fill:#2C282C;}
	.st2{fill:#173647;}
	.st3{fill:#50E4EA;}
	.st4{fill:#FCDC00;}
	.st5{fill:#85EA2D;}
	.st6{fill:#F4CF14;}
	.st7{fill:none;}
	.st8{fill:#04AADB;}
	.st9{fill:#07CED6;}
	.st10{fill:#63DB2A;}
	.st11{fill:#FF730B;}
	.st12{fill:#17D1FC;}
	.st13{fill:#00AADB;}
	.st14{fill:#758491;}
</style><style
     type="text/css"
     id="style1-2-1">
	.st0{fill:#FFFFFF;}
	.st1{fill:#2C282C;}
	.st2{fill:#173647;}
	.st3{fill:#50E4EA;}
	.st4{fill:#FCDC00;}
	.st5{fill:#85EA2D;}
	.st6{fill:#F4CF14;}
	.st7{fill:none;}
	.st8{fill:#04AADB;}
	.st9{fill:#07CED6;}
	.st10{fill:#63DB2A;}
	.st11{fill:#FF730B;}
	.st12{fill:#17D1FC;}
	.st13{fill:#00AADB;}
	.st14{fill:#758491;}
</style><style
     type="text/css"
     id="style1-4">
	.st0{fill:#FFFFFF;}
	.st1{fill:#2C282C;}
	.st2{fill:#173647;}
	.st3{fill:#50E4EA;}
	.st4{fill:#FCDC00;}
	.st5{fill:#85EA2D;}
	.st6{fill:#F4CF14;}
	.st7{fill:none;}
	.st8{fill:#04AADB;}
	.st9{fill:#07CED6;}
	.st10{fill:#63DB2A;}
	.st11{fill:#FF730B;}
	.st12{fill:#17D1FC;}
	.st13{fill:#00AADB;}
	.st14{fill:#758491;}
</style><style
     type="text/css"
     id="style1-2-9">
	.st0{fill:#FFFFFF;}
	.st1{fill:#2C282C;}
	.st2{fill:#173647;}
	.st3{fill:#50E4EA;}
	.st4{fill:#FCDC00;}
	.st5{fill:#85EA2D;}
	.st6{fill:#F4CF14;}
	.st7{fill:none;}
	.st8{fill:#04AADB;}
	.st9{fill:#07CED6;}
	.st10{fill:#63DB2A;}
	.st11{fill:#FF730B;}
	.st12{fill:#17D1FC;}
	.st13{fill:#00AADB;}
	.st14{fill:#758491;}
</style><style
     type="text/css"
     id="style1-0">
	.st0{fill:#FFFFFF;}
	.st1{fill:#2C282C;}
	.st2{fill:#173647;}
	.st3{fill:#50E4EA;}
	.st4{fill:#FCDC00;}
	.st5{fill:#85EA2D;}
	.st6{fill:#F4CF14;}
	.st7{fill:none;}
	.st8{fill:#04AADB;}
	.st9{fill:#07CED6;}
	.st10{fill:#63DB2A;}
	.st11{fill:#FF730B;}
	.st12{fill:#17D1FC;}
	.st13{fill:#00AADB;}
	.st14{fill:#758491;}
</style><style
     type="text/css"
     id="style1-2-8">
	.st0{fill:#FFFFFF;}
	.st1{fill:#2C282C;}
	.st2{fill:#173647;}
	.st3{fill:#50E4EA;}
	.st4{fill:#FCDC00;}
	.st5{fill:#85EA2D;}
	.st6{fill:#F4CF14;}
	.st7{fill:none;}
	.st8{fill:#04AADB;}
	.st9{fill:#07CED6;}
	.st10{fill:#63DB2A;}
	.st11{fill:#FF730B;}
	.st12{fill:#17D1FC;}
	.st13{fill:#00AADB;}
	.st14{fill:#758491;}
</style></svg>
