<?xml version="1.0" encoding="UTF-8" standalone="no"?>
<!-- Created with Inkscape (http://www.inkscape.org/) -->

<svg
   width="32mm"
   height="31.999964mm"
   viewBox="0 0 32 31.999964"
   version="1.1"
   id="svg1"
   xml:space="preserve"
   xmlns="http://www.w3.org/2000/svg"
   xmlns:svg="http://www.w3.org/2000/svg"><defs
     id="defs1"><linearGradient
       id="swatch1"><stop
         style="stop-color:#000000;stop-opacity:1;"
         offset="0"
         id="stop1" /></linearGradient></defs><g
     id="g563"
     transform="matrix(0.26458332,0,0,0.26458334,155.86596,-107.63409)"><rect
       style="fill:#0068ff;fill-opacity:1;stroke:none;stroke-width:8.69289;stroke-linecap:butt;stroke-linejoin:bevel;stroke-miterlimit:0;stroke-dasharray:none"
       id="rect56"
       width="120.94489"
       height="49.477379"
       x="-589.09973"
       y="406.806"
       ry="0" /><path
       id="path565"
       d="m -583.60209,412.30347 h 109.94964 v 38.48244 h -109.94964 z"
       style="fill:#d9d9d9;fill-opacity:1;fill-rule:nonzero;stroke:none;stroke-width:1.33333" /><rect
       style="fill:#0068ff;fill-opacity:1;stroke:none;stroke-width:8.69289;stroke-linecap:butt;stroke-linejoin:bevel;stroke-miterlimit:0;stroke-dasharray:none"
       id="rect56-3"
       width="120.94489"
       height="74.303589"
       x="-589.09973"
       y="453.44714"
       ry="0" /><path
       id="path568-1"
       d="m -583.60209,456.28338 h 109.94964 v 65.96988 h -109.94964 z"
       style="fill:#d9d9d9;fill-opacity:1;fill-rule:nonzero;stroke:none;stroke-width:1.33333" /><path
       id="path577-9"
       d="m -536.87351,456.28542 c 0,4.55427 3.69184,8.24624 8.24623,8.24624 4.5544,0 8.24624,-3.69197 8.24624,-8.24624 z m 16.49247,0 v -49.47739 h -16.49247 v 49.47739 z"
       style="fill:#009f10;fill-opacity:1;fill-rule:nonzero;stroke:none;stroke-width:1.33333" /><path
       id="path593-2"
       d="m -553.44415,522.50616 z m 3.60774,0 v -55.9745 h 24.27034 c 4.26372,0 7.84382,0.57398 10.74114,1.72189 2.91505,1.14792 5.11102,2.76955 6.58669,4.86496 1.49421,2.09541 2.24132,4.56433 2.24132,7.40677 0,2.05897 -0.4556,3.93573 -1.36681,5.63025 -0.89266,1.69456 -2.1498,3.1158 -3.77142,4.26368 -1.62162,1.12969 -3.51661,1.91321 -5.68496,2.35051 v 0.54664 c 2.40502,0.0911 4.59151,0.70151 6.55947,1.83116 1.96797,1.11151 3.53476,2.65117 4.70078,4.61901 1.16643,1.94962 1.74944,4.24545 1.74944,6.88747 0,3.06113 -0.80195,5.78515 -2.40543,8.17206 -1.58493,2.38696 -3.8444,4.26368 -6.778,5.63025 -2.9336,1.36657 -6.43207,2.04985 -10.495,2.04985 z m 15.19617,-12.13509 h 7.1062 c 2.55098,0 4.4641,-0.47374 5.73939,-1.42124 1.27569,-0.96567 1.91354,-2.38691 1.91354,-4.26368 0,-1.31189 -0.30099,-2.42336 -0.90214,-3.33441 -0.60115,-0.91104 -1.45753,-1.60344 -2.56912,-2.07718 -1.09345,-0.47375 -2.41409,-0.71062 -3.96314,-0.71062 h -7.32473 z m 0,-21.20909 h 6.23169 c 1.33012,0 2.50521,-0.20945 3.52568,-0.62861 1.02047,-0.41907 1.81293,-1.02039 2.3778,-1.80386 0.58301,-0.80174 0.87452,-1.77653 0.87452,-2.92445 0,-1.73101 -0.6193,-3.05202 -1.8583,-3.96306 -1.23941,-0.92927 -2.80619,-1.39386 -4.70118,-1.39386 h -6.45021 z"
       style="fill:#000000;fill-opacity:1;fill-rule:nonzero;stroke:none;stroke-width:1.33333" /></g></svg>
