<?xml version="1.0" encoding="UTF-8" standalone="no"?>
<!-- Created with Inkscape (http://www.inkscape.org/) -->

<svg
   width="31.999985mm"
   height="32.000004mm"
   viewBox="0 0 31.999985 32.000004"
   version="1.1"
   id="svg1"
   xml:space="preserve"
   xmlns:inkscape="http://www.inkscape.org/namespaces/inkscape"
   xmlns:sodipodi="http://sodipodi.sourceforge.net/DTD/sodipodi-0.dtd"
   xmlns="http://www.w3.org/2000/svg"
   xmlns:svg="http://www.w3.org/2000/svg"><sodipodi:namedview
     id="namedview1"
     pagecolor="#ffffff"
     bordercolor="#666666"
     borderopacity="1.0"
     inkscape:showpageshadow="2"
     inkscape:pageopacity="0.0"
     inkscape:pagecheckerboard="0"
     inkscape:deskcolor="#d1d1d1"
     inkscape:document-units="mm"
     inkscape:zoom="2"
     inkscape:cx="-236.75"
     inkscape:cy="322.75"
     inkscape:window-width="1920"
     inkscape:window-height="1017"
     inkscape:window-x="-8"
     inkscape:window-y="-8"
     inkscape:window-maximized="1"
     inkscape:current-layer="layer1" /><defs
     id="defs1"><linearGradient
       id="swatch1"
       inkscape:swatch="solid"><stop
         style="stop-color:#000000;stop-opacity:1;"
         offset="0"
         id="stop1" /></linearGradient></defs><g
     inkscape:label="Camada 1"
     inkscape:groupmode="layer"
     id="layer1"
     transform="translate(78.8901,-69.14427)"><g
       inkscape:label="Camada 1"
       id="layer1-2"
       transform="matrix(0.98387097,0,0,0.98387097,-162.04334,-92.002425)"
       style="stroke-width:1.01639"><path
         id="path356-8-8"
         d="m 116.27869,180.05074 c 0,8.56043 -6.93958,15.5 -15.49998,15.5 -8.560428,0 -15.500008,-6.93957 -15.500008,-15.5 0,-8.5604 6.93958,-15.5 15.500008,-15.5 8.5604,0 15.49998,6.9396 15.49998,15.5 z"
         style="fill:#a0f2ae;fill-opacity:1;fill-rule:nonzero;stroke:#000000;stroke-width:1.52459;stroke-dasharray:none;stroke-opacity:1"
         inkscape:label="circulo" /><g
         id="g3"
         transform="translate(0,0.42174)"
         style="stroke-width:1.01639"><path
           id="path359"
           d="m 95.609459,174.95206 c 0,-2.8549 2.31434,-5.16924 5.169231,-5.16924 v 0 c 2.85488,0 5.16924,2.31434 5.16924,5.16924 v 3.91951 H 95.609459 Z"
           style="fill:#0068ff;fill-opacity:1;fill-rule:nonzero;stroke:#000000;stroke-width:1.32131;stroke-dasharray:none;stroke-opacity:1" /><path
           id="path362"
           d="m 92.163322,178.8114 c 0,-0.80332 0.651211,-1.45455 1.454539,-1.45455 h 14.321679 c 0.80332,0 1.45453,0.65123 1.45453,1.45455 v 9.20925 c 0,0.80331 -0.65121,1.45453 -1.45453,1.45453 H 93.617862 c -0.803328,0 -1.454539,-0.65122 -1.454539,-1.45453 z"
           style="fill:#0068ff;fill-opacity:1;fill-rule:nonzero;stroke:#000000;stroke-width:1.32131;stroke-dasharray:none;stroke-opacity:1" /></g></g></g></svg>
