<?xml version="1.0" encoding="UTF-8" standalone="no"?>
<!-- Created with Inkscape (http://www.inkscape.org/) -->

<svg
   width="31.999996mm"
   height="32.000004mm"
   viewBox="0 0 31.999996 32.000004"
   version="1.1"
   id="svg1"
   xml:space="preserve"
   xmlns:inkscape="http://www.inkscape.org/namespaces/inkscape"
   xmlns:sodipodi="http://sodipodi.sourceforge.net/DTD/sodipodi-0.dtd"
   xmlns="http://www.w3.org/2000/svg"
   xmlns:svg="http://www.w3.org/2000/svg"><sodipodi:namedview
     id="namedview1"
     pagecolor="#ffffff"
     bordercolor="#666666"
     borderopacity="1.0"
     inkscape:showpageshadow="2"
     inkscape:pageopacity="0.0"
     inkscape:pagecheckerboard="0"
     inkscape:deskcolor="#d1d1d1"
     inkscape:document-units="mm"
     inkscape:zoom="2"
     inkscape:cx="-236.75"
     inkscape:cy="322.75"
     inkscape:window-width="1920"
     inkscape:window-height="1017"
     inkscape:window-x="-8"
     inkscape:window-y="-8"
     inkscape:window-maximized="1"
     inkscape:current-layer="layer1" /><defs
     id="defs1"><linearGradient
       id="swatch1"
       inkscape:swatch="solid"><stop
         style="stop-color:#000000;stop-opacity:1;"
         offset="0"
         id="stop1" /></linearGradient></defs><g
     inkscape:label="Camada 1"
     inkscape:groupmode="layer"
     id="layer1"
     transform="translate(78.655107,-69.379271)"><g
       inkscape:label="Camada 1"
       id="layer1-9"
       transform="matrix(0.99904156,0,0,0.99904156,-164.8516,-138.0923)"
       style="stroke-width:1.00096"><path
         id="path7"
         style="fill:#000000;fill-opacity:1;stroke:none;stroke-width:1.10106;stroke-linecap:round;stroke-linejoin:round;stroke-miterlimit:0;stroke-dasharray:none;stroke-opacity:1"
         d="m 102.26146,209.17327 a 14.55,14.55 0 0 0 -14.550013,14.55002 14.55,14.55 0 0 0 14.550013,14.55001 14.55,14.55 0 0 0 14.55002,-14.55001 14.55,14.55 0 0 0 -14.55002,-14.55002 z m 0,4.35012 a 10.2,10.2 0 0 1 0.50075,0.0124 10.2,10.2 0 0 1 0.49919,0.0367 10.2,10.2 0 0 1 0.49713,0.061 10.2,10.2 0 0 1 0.49299,0.0858 10.2,10.2 0 0 1 0.48835,0.10955 10.2,10.2 0 0 1 0.48265,0.13384 10.2,10.2 0 0 1 0.47543,0.1571 10.2,10.2 0 0 1 0.46715,0.17983 10.2,10.2 0 0 1 0.45786,0.20309 10.2,10.2 0 0 1 0.447,0.22479 10.2,10.2 0 0 1 0.43563,0.24702 10.2,10.2 0 0 1 0.42271,0.26768 10.2,10.2 0 0 1 0.40928,0.28836 10.2,10.2 0 0 1 0.39481,0.30799 10.2,10.2 0 0 1 0.3793,0.32711 10.2,10.2 0 0 1 0.36225,0.3452 10.2,10.2 0 0 1 0.3452,0.36277 10.2,10.2 0 0 1 0.32711,0.37879 10.2,10.2 0 0 1 0.308,0.3948 10.2,10.2 0 0 1 0.28835,0.40928 10.2,10.2 0 0 1 0.26768,0.42323 10.2,10.2 0 0 1 0.24702,0.43512 10.2,10.2 0 0 1 0.22479,0.44751 10.2,10.2 0 0 1 0.20309,0.45786 10.2,10.2 0 0 1 0.18035,0.46664 10.2,10.2 0 0 1 0.1571,0.47542 10.2,10.2 0 0 1 0.13332,0.48266 10.2,10.2 0 0 1 0.10956,0.48834 10.2,10.2 0 0 1 0.0858,0.49351 10.2,10.2 0 0 1 0.0615,0.49661 10.2,10.2 0 0 1 0.0367,0.49919 10.2,10.2 0 0 1 0.0124,0.50075 10.2,10.2 0 0 1 -0.10387,1.45159 10.2,10.2 0 0 1 -0.30955,1.42213 10.2,10.2 0 0 1 -0.50849,1.36375 10.2,10.2 0 0 1 -0.69763,1.27692 10.2,10.2 0 0 1 -0.87179,1.1653 10.2,10.2 0 0 1 -1.02939,1.02888 10.2,10.2 0 0 1 -1.16479,0.8723 10.2,10.2 0 0 1 -1.27744,0.69763 10.2,10.2 0 0 1 -1.36374,0.5085 10.2,10.2 0 0 1 -1.42213,0.30902 10.2,10.2 0 0 1 -1.4516,0.10387 10.2,10.2 0 0 1 -1.45159,-0.10387 10.2,10.2 0 0 1 -1.422133,-0.30902 10.2,10.2 0 0 1 -1.36323,-0.5085 10.2,10.2 0 0 1 -1.27744,-0.69763 10.2,10.2 0 0 1 -1.16478,-0.8723 10.2,10.2 0 0 1 -1.0294,-1.02888 10.2,10.2 0 0 1 -0.87178,-1.1653 10.2,10.2 0 0 1 -0.69763,-1.27692 10.2,10.2 0 0 1 -0.5085,-1.36375 10.2,10.2 0 0 1 -0.30954,-1.42213 10.2,10.2 0 0 1 -0.10387,-1.45159 10.2,10.2 0 0 1 0.10387,-1.45159 10.2,10.2 0 0 1 0.30954,-1.42214 10.2,10.2 0 0 1 0.5085,-1.36374 10.2,10.2 0 0 1 0.69763,-1.27692 10.2,10.2 0 0 1 0.87178,-1.16531 10.2,10.2 0 0 1 1.0294,-1.02888 10.2,10.2 0 0 1 1.16478,-0.87229 10.2,10.2 0 0 1 1.27744,-0.69764 10.2,10.2 0 0 1 1.36323,-0.50849 10.2,10.2 0 0 1 1.422133,-0.30903 10.2,10.2 0 0 1 1.45159,-0.10387 z" /><circle
         style="fill:none;fill-opacity:1;stroke:#3be200;stroke-width:0.7307;stroke-linecap:round;stroke-linejoin:round;stroke-miterlimit:0;stroke-dasharray:none;stroke-opacity:1"
         id="path8-8"
         cx="102.29453"
         cy="223.68596"
         r="15.65" /><path
         id="path386"
         d="m 111.1428,230.23425 z m 0.89192,3.42538 c -0.36648,0.36581 -0.74391,0.55552 -1.13227,0.56916 -0.38836,0.0136 -0.7629,-0.15713 -1.12361,-0.51225 -0.36071,-0.35512 -0.53552,-0.7252 -0.52444,-1.11027 0.011,-0.38508 0.19984,-0.76052 0.56633,-1.12634 0.36648,-0.36582 0.74287,-0.55657 1.12916,-0.57223 0.38631,-0.0116 0.76085,0.16123 1.12363,0.51839 0.36278,0.35714 0.53862,0.72621 0.52755,1.1072 -0.011,0.38508 -0.19986,0.76051 -0.56635,1.12634 z m -0.51307,-0.50514 c 0.14618,-0.14591 0.21279,-0.30077 0.19983,-0.46458 -0.013,-0.16379 -0.0952,-0.32018 -0.24644,-0.46918 l -0.19901,-0.19592 c -0.15133,-0.14898 -0.30966,-0.22933 -0.47497,-0.24106 -0.16533,-0.0117 -0.32107,0.0554 -0.46726,0.20131 -0.14618,0.14591 -0.21279,0.30077 -0.19983,0.46456 0.0109,0.16587 0.0921,0.32328 0.24335,0.47227 l 0.19902,0.19592 c 0.15132,0.14899 0.31067,0.22832 0.47805,0.23797 0.16533,0.0118 0.32107,-0.0554 0.46726,-0.20129 z"
         style="fill:#ffffff;fill-opacity:1;fill-rule:nonzero;stroke:none;stroke-width:0.35311" /><path
         id="path387"
         d="m 108.11072,232.7569 z m -2.09935,1.02121 0.30106,0.32424 0.94569,-0.46001 -0.0734,-0.43495 0.88683,-0.43139 0.34329,3.17148 -1.00847,0.49057 -2.31314,-2.21328 z m 1.36355,0.55468 -0.58468,0.28441 0.75551,0.82133 0.0157,-0.007 z"
         style="fill:#ffffff;fill-opacity:1;fill-rule:nonzero;stroke:none;stroke-width:0.353115" /><path
         id="path388"
         d="m 104.41945,234.16425 z m -3.14001,1.60334 c -0.05,-0.40711 0.0404,-0.73329 0.27114,-0.97851 0.23075,-0.24522 0.58288,-0.3969 1.05643,-0.45504 0.47352,-0.0581 0.85335,0.003 1.13945,0.18543 0.28321,0.18211 0.44981,0.47673 0.4998,0.88385 l 0.21856,1.78009 -0.95717,0.11752 -0.21697,-1.76708 c -0.0206,-0.16748 -0.0819,-0.29624 -0.18372,-0.38632 -0.10159,-0.0871 -0.23752,-0.12031 -0.40789,-0.0994 -0.17035,0.021 -0.29407,0.0874 -0.37118,0.19945 -0.08,0.11239 -0.10988,0.2509 -0.0897,0.41547 l 0.21696,1.7671 -0.95717,0.11752 z"
         style="fill:#ffffff;fill-opacity:1;fill-rule:nonzero;stroke:none;stroke-width:0.353115" /><path
         id="path389"
         d="m 100.46929,234.30675 z m -2.481087,1.75905 0.474516,-2.18321 0.94352,0.19944 -0.474538,2.18321 0.96487,0.20396 -0.163127,0.75047 -2.868956,-0.60645 0.163105,-0.75047 z"
         style="fill:#ffffff;fill-opacity:1;fill-rule:nonzero;stroke:none;stroke-width:0.353115" /><path
         id="path390"
         d="m 96.687141,233.16471 z m -2.013432,-1.20727 -0.59418,0.97162 0.90941,0.5453 0.594193,-0.97164 0.827072,0.49594 -1.566288,2.56121 -0.827083,-0.49592 0.571426,-0.93439 -0.909412,-0.54531 -0.571416,0.93441 -0.827074,-0.49593 1.566281,-2.56122 z"
         style="fill:#ffffff;fill-opacity:1;fill-rule:nonzero;stroke:none;stroke-width:0.35311" /><path
         id="path391"
         d="m 93.448604,216.76999 z m -0.534789,-3.64933 c 0.380216,-0.35152 0.754851,-0.51832 1.123915,-0.50041 0.369065,0.0179 0.708358,0.22715 1.017863,0.62768 0.309501,0.40052 0.441592,0.80131 0.39625,1.20234 -0.04526,0.40104 -0.258095,0.77732 -0.63832,1.12884 -0.380217,0.35152 -0.753965,0.51948 -1.121257,0.50387 -0.366924,-0.0198 -0.706038,-0.23125 -1.017312,-0.63409 -0.311285,-0.40282 -0.444442,-0.80263 -0.39947,-1.19939 0.04536,-0.40104 0.258106,-0.77731 0.638331,-1.12884 z m 0.440232,0.56973 c -0.151649,0.14021 -0.228756,0.29634 -0.231299,0.46841 -0.0021,0.17204 0.06108,0.3421 0.190947,0.51012 l 0.170765,0.22099 c 0.129834,0.16805 0.272526,0.26502 0.428048,0.29094 0.155522,0.0259 0.309113,-0.0312 0.460783,-0.17146 0.151659,-0.14022 0.228756,-0.29635 0.231298,-0.46839 0.0042,-0.17404 -0.05792,-0.34507 -0.18774,-0.5131 l -0.170765,-0.22099 c -0.129844,-0.16805 -0.273592,-0.26404 -0.431255,-0.28796 -0.155519,-0.026 -0.30911,0.0312 -0.460782,0.17144 z"
         style="fill:#ffffff;fill-opacity:1;fill-rule:nonzero;stroke:none;stroke-width:0.352427" /><path
         id="path392"
         d="m 96.718904,214.13654 z m 2.152631,-0.90347 -0.258283,-0.34992 -0.969682,0.40699 0.0249,0.44786 -0.909336,0.38165 0.0053,-3.25308 1.034053,-0.434 2.014265,2.40532 z m -1.267682,-0.6539 0.599509,-0.25161 -0.647351,-0.88591 -0.01614,0.006 z"
         style="fill:#ffffff;fill-opacity:1;fill-rule:nonzero;stroke:none;stroke-width:0.352837" /><path
         id="path393"
         d="m 100.63682,212.88565 z m 3.2678,-1.32358 c 0.0142,0.40995 -0.10423,0.72699 -0.35539,0.95117 -0.25123,0.22418 -0.61526,0.34459 -1.09205,0.36124 -0.4768,0.0167 -0.84978,-0.078 -1.11895,-0.28403 -0.26627,-0.2061 -0.40656,-0.51412 -0.42088,-0.92405 l -0.0627,-1.79237 0.96377,-0.0335 0.0621,1.77928 c 0.005,0.16863 0.0556,0.30224 0.14935,0.40085 0.0936,0.0957 0.22614,0.14056 0.39767,0.13457 0.17152,-0.005 0.30058,-0.0614 0.38715,-0.16634 0.0895,-0.10507 0.13133,-0.24037 0.12554,-0.40609 l -0.0621,-1.77926 0.96378,-0.0336 z"
         style="fill:#ffffff;fill-opacity:1;fill-rule:nonzero;stroke:none;stroke-width:0.353115" /><path
         id="path394"
         d="m 104.71175,213.18618 z m 2.54077,-1.4927 -0.59887,2.15241 -0.9131,-0.3102 0.59887,-2.15242 -0.93378,-0.31723 0.20586,-0.73988 2.77653,0.94324 -0.20587,0.73988 z"
         style="fill:#ffffff;fill-opacity:1;fill-rule:nonzero;stroke:none;stroke-width:0.352837" /><path
         id="path395"
         d="m 108.43475,214.97859 z m 1.83079,1.46957 0.63182,-0.94758 -0.82693,-0.66376 -0.63182,0.94758 -0.75203,-0.60368 1.66548,-2.49783 0.75206,0.60366 -0.60762,0.91128 0.82691,0.66376 0.60761,-0.91127 0.75206,0.60366 -1.6655,2.49785 z"
         style="fill:#ffffff;fill-opacity:1;fill-rule:nonzero;stroke:none;stroke-width:0.352427" /><path
         id="path412"
         d="m 95.99199,230.81323 z m 7.04582,-14.25454 c 1.09964,0 2.04994,0.17648 2.85091,0.52945 0.81455,0.3394 1.43903,0.82812 1.87345,1.46618 0.448,0.63806 0.67199,1.37794 0.67199,2.21964 0,0.78739 -0.19684,1.50012 -0.59054,2.13819 -0.3937,0.63805 -0.88921,1.20144 -1.48655,1.69017 -0.59732,0.48873 -1.41865,1.08606 -2.46399,1.792 -0.58376,0.38011 -1.05891,0.70594 -1.42545,0.97746 h 6.12945 v 3.44145 H 96.98982 v -0.97745 c 0,-0.71952 0.16291,-1.35759 0.48873,-1.91419 0.33939,-0.57018 0.82811,-1.14035 1.46617,-1.71054 0.65163,-0.57018 1.58837,-1.344 2.81018,-2.32146 0.97746,-0.77381 1.66303,-1.36436 2.05673,-1.77164 0.3937,-0.40726 0.59054,-0.80775 0.59054,-1.20144 0,-0.42085 -0.14934,-0.77383 -0.44799,-1.05891 -0.28511,-0.28509 -0.71952,-0.42763 -1.30328,-0.42763 -0.6109,0 -1.09285,0.17648 -1.44582,0.52944 -0.35297,0.35297 -0.52946,0.81455 -0.52946,1.38474 v 0.40726 h -3.62471 c -0.0136,-0.10865 -0.0204,-0.25793 -0.0204,-0.44799 0,-1.46619 0.50909,-2.62012 1.52727,-3.46182 1.03176,-0.85527 2.52509,-1.28291 4.48,-1.28291 z"
         style="fill:#0068ff;fill-opacity:1;fill-rule:nonzero;stroke:none;stroke-width:0.353115" /></g></g></svg>
