<?xml version="1.0" encoding="UTF-8" standalone="no"?>
<!-- Created with Inkscape (http://www.inkscape.org/) -->

<svg
   width="31.952774mm"
   height="31.999994mm"
   viewBox="0 0 31.952774 31.999994"
   version="1.1"
   id="svg1"
   xml:space="preserve"
   xmlns:inkscape="http://www.inkscape.org/namespaces/inkscape"
   xmlns:sodipodi="http://sodipodi.sourceforge.net/DTD/sodipodi-0.dtd"
   xmlns="http://www.w3.org/2000/svg"
   xmlns:svg="http://www.w3.org/2000/svg"><sodipodi:namedview
     id="namedview1"
     pagecolor="#ffffff"
     bordercolor="#666666"
     borderopacity="1.0"
     inkscape:showpageshadow="2"
     inkscape:pageopacity="0.0"
     inkscape:pagecheckerboard="0"
     inkscape:deskcolor="#d1d1d1"
     inkscape:document-units="mm" /><defs
     id="defs1"><linearGradient
       id="swatch1"
       inkscape:swatch="solid"><stop
         style="stop-color:#000000;stop-opacity:1;"
         offset="0"
         id="stop1" /></linearGradient></defs><g
     inkscape:label="Camada 1"
     inkscape:groupmode="layer"
     id="layer1"
     transform="translate(56.761571,-74.574621)"><path
       id="path257"
       d="m -51.936393,105.84244 c -2.305887,0 -4.175175,-1.86929 -4.175175,-4.17517 V 80.929701 l 30.617973,0.05108 v 20.686489 c 0,2.30588 -1.869288,4.17517 -4.175178,4.17517 z"
       style="fill:#171717;fill-opacity:1;fill-rule:nonzero;stroke:#000000;stroke-width:1.3;stroke-dasharray:none;stroke-opacity:1"
       sodipodi:nodetypes="ssccsss"
       inkscape:export-filename="ral_server_cgi.svg"
       inkscape:export-xdpi="600"
       inkscape:export-ydpi="600" /><path
       id="path260"
       d="m -55.365245,89.655229 z m 0.769498,0 v -6.354577 h 2.147165 c 0.496461,0 0.90396,0.08475 1.22252,0.254426 0.318564,0.167552 0.554369,0.398203 0.707452,0.691936 0.153072,0.293736 0.229601,0.627803 0.229601,1.002207 0,0.374406 -0.07656,0.706411 -0.229601,0.996005 -0.153083,0.289595 -0.387863,0.517143 -0.704348,0.682619 -0.316489,0.163417 -0.720895,0.245121 -1.213215,0.245121 h -1.737592 v -0.695028 h 1.712777 c 0.339237,0 0.612286,-0.04958 0.819148,-0.148929 0.208916,-0.09928 0.359925,-0.239957 0.453013,-0.421992 0.09513,-0.184101 0.142729,-0.403359 0.142729,-0.657796 0,-0.254427 -0.04762,-0.476796 -0.142729,-0.667099 -0.09513,-0.190317 -0.247197,-0.337183 -0.456113,-0.440601 -0.208929,-0.105506 -0.485079,-0.158249 -0.828468,-0.158249 h -1.352829 v 5.671957 z m 2.991142,-2.85459 1.563831,2.85459 h -0.893625 l -1.539009,-2.85459 z m 1.828341,2.85459 z m 1.030139,0 h -0.80673 l 2.33333,-6.354577 h 0.794324 l 2.333342,6.354577 h -0.806746 l -1.898926,-5.34927 h -0.04969 z m 0.297876,-2.482263 h 3.25177 v 0.682623 h -3.25177 z m 4.576686,2.482263 z m 0.769507,0 v -6.354577 h 0.769499 v 5.671954 h 2.953906 v 0.682623 z m 4.145387,0 z m 1.20391,-0.812942 c -0.153082,0 -0.284431,-0.05483 -0.394067,-0.164442 -0.109623,-0.109632 -0.164452,-0.240991 -0.164452,-0.394062 0,-0.153071 0.05483,-0.284428 0.164452,-0.394052 0.109624,-0.109634 0.240985,-0.164452 0.394067,-0.164452 0.153072,0 0.284418,0.05483 0.394054,0.164452 0.109623,0.109624 0.164453,0.240981 0.164453,0.394052 0,0.101355 -0.0259,0.194443 -0.07755,0.279252 -0.04969,0.08475 -0.116876,0.153071 -0.201685,0.204786 -0.08279,0.04969 -0.175824,0.07449 -0.279254,0.07449 z m 0,-3.214522 c -0.153082,0 -0.284431,-0.05483 -0.394067,-0.16445 -0.109623,-0.109635 -0.164452,-0.240984 -0.164452,-0.394054 0,-0.153071 0.05483,-0.284428 0.164452,-0.394062 0.109624,-0.109635 0.240985,-0.164454 0.394067,-0.164454 0.153072,0 0.284418,0.05483 0.394054,0.164454 0.109623,0.109634 0.164453,0.240991 0.164453,0.394062 0,0.101356 -0.0259,0.194443 -0.07755,0.279252 -0.04969,0.08475 -0.116865,0.153071 -0.201674,0.204785 -0.08279,0.04959 -0.175835,0.07449 -0.279254,0.07449 z m 1.202347,4.027464 z m 2.246458,0.955667 -2.047876,-7.608118 h 0.670209 l 2.047872,7.608118 z m 0.868013,-0.955667 z m 4.877663,-2.234029 -3.996454,2.035444 v -0.794317 l 3.065604,-1.47694 -0.02479,0.04958 V 87.11086 l 0.02479,0.04959 -3.065604,-1.476939 V 84.88919 l 3.996454,2.035445 z"
       style="fill:#ffffff;fill-opacity:1;fill-rule:nonzero;stroke:none;stroke-width:0.352777" /><path
       id="path261"
       d="m -25.493593,81.447287 h -30.617979 v -2.48907 c 0,-2.06201 1.869289,-3.733598 4.175179,-3.733598 h 22.267621 c 2.305879,0 4.175179,1.671588 4.175179,3.733598 z"
       style="fill:#009f10;fill-opacity:1;fill-rule:nonzero;stroke:#000000;stroke-width:1.3;stroke-dasharray:none;stroke-opacity:1" /><path
       id="path264"
       d="m -34.402328,98.719614 c 0,-2.567468 2.024453,-4.648809 4.521757,-4.648809 v 0 c 2.497306,0 4.52177,2.081341 4.52177,4.648809 v 2.656456 c 0,2.56721 -2.024464,4.64854 -4.52177,4.64854 v 0 c -2.497304,0 -4.521757,-2.08133 -4.521757,-4.64854 z"
       style="fill:#ff8819;fill-opacity:1;fill-rule:nonzero;stroke:#000000;stroke-width:1.10001;stroke-dasharray:none;stroke-opacity:1" /></g></svg>
