<?xml version="1.0" encoding="UTF-8" standalone="no"?>
<!-- Created with Inkscape (http://www.inkscape.org/) -->

<svg
   width="37.452286mm"
   height="32.000004mm"
   viewBox="0 0 37.452286 32.000004"
   version="1.1"
   id="svg1"
   xml:space="preserve"
   xmlns="http://www.w3.org/2000/svg"
   xmlns:svg="http://www.w3.org/2000/svg"><defs
     id="defs1"><linearGradient
       id="swatch1"><stop
         style="stop-color:#000000;stop-opacity:1;"
         offset="0"
         id="stop1" /></linearGradient></defs><g
     id="layer1"
     transform="translate(-89.912401,-86.326726)"><path
       id="path84"
       d="m 95.157542,117.57672 c -2.481833,0 -4.493658,-2.0208 -4.493658,-4.51359 V 91.999759 H 126.6132 v 21.063371 c 0,2.49279 -2.01192,4.51359 -4.49366,4.51359 z"
       style="fill:#0068ff;fill-opacity:1;fill-rule:nonzero;stroke:#000000;stroke-width:1.50001;stroke-dasharray:none;stroke-opacity:1" /><path
       id="path90-5"
       d="m 97.610482,115.13284 c -1.960065,0 -3.548985,-1.74854 -3.548985,-3.90548 v 0 c 0,-2.15694 1.58892,-3.9055 3.548985,-3.9055 h 0.645263 c 1.960065,0 3.549035,1.74856 3.549035,3.9055 v 0 c 0,2.15694 -1.58897,3.90548 -3.549035,3.90548 z"
       style="fill:#717171;fill-opacity:1;fill-rule:nonzero;stroke:#000000;stroke-width:1.50001;stroke-dasharray:none;stroke-opacity:1" /><path
       id="path87"
       d="M 126.56468,95.535215 H 90.712403 v -4.204244 c 0,-2.32194 2.006394,-4.204245 4.481529,-4.204245 h 26.889228 c 2.47503,0 4.48152,1.882305 4.48152,4.204245 z"
       style="fill:#009f10;fill-opacity:1;fill-rule:nonzero;stroke:#000000;stroke-width:1.60001;stroke-dasharray:none;stroke-opacity:1" /><path
       id="path90"
       d="m 99.177022,104.91024 c -1.960075,0 -3.548994,-1.74855 -3.548994,-3.90548 v 0 c 0,-2.156943 1.588919,-3.905504 3.548994,-3.905504 h 0.645256 c 1.960072,0 3.549032,1.748561 3.549032,3.905504 v 0 c 0,2.15693 -1.58896,3.90548 -3.549032,3.90548 z"
       style="fill:#717171;fill-opacity:1;fill-rule:nonzero;stroke:#000000;stroke-width:1.50001;stroke-dasharray:none;stroke-opacity:1" /><path
       id="path90-5-0"
       d="m 117.89217,115.81273 c -1.96006,0 -3.54897,-1.74855 -3.54897,-3.90548 v 0 c 0,-2.15694 1.58891,-3.9055 3.54897,-3.9055 h 0.64526 c 1.96007,0 3.54903,1.74856 3.54903,3.9055 v 0 c 0,2.15693 -1.58896,3.90548 -3.54903,3.90548 z"
       style="fill:#717171;fill-opacity:1;fill-rule:nonzero;stroke:#000000;stroke-width:1.50001;stroke-dasharray:none;stroke-opacity:1" /><path
       id="path90-5-0-8"
       d="m 108.55036,111.01549 c -2.33342,0 -4.22499,-2.0816 -4.22499,-4.64938 v 0 c 0,-2.56779 1.89157,-4.64941 4.22499,-4.64941 h 0.76814 c 2.33343,0 4.22505,2.08162 4.22505,4.64941 v 0 c 0,2.56778 -1.89162,4.64938 -4.22503,4.64938 z"
       style="fill:#717171;fill-opacity:1;fill-rule:nonzero;stroke:#000000;stroke-width:1.50001;stroke-dasharray:none;stroke-opacity:1" /><path
       id="path90-7"
       d="m 119.3644,105.11439 c -1.96008,0 -3.549,-1.74854 -3.549,-3.90547 v 0 c 0,-2.156946 1.58892,-3.905507 3.549,-3.905507 h 0.64525 c 1.96006,0 3.54902,1.748561 3.54902,3.905507 v 0 c 0,2.15693 -1.58896,3.90547 -3.54902,3.90547 z"
       style="fill:#717171;fill-opacity:1;fill-rule:nonzero;stroke:#000000;stroke-width:1.50001;stroke-dasharray:none;stroke-opacity:1" /></g></svg>
