<?xml version="1.0" encoding="UTF-8" standalone="no"?>
<!-- Created with Inkscape (http://www.inkscape.org/) -->

<svg
   width="31.999996mm"
   height="32.000004mm"
   viewBox="0 0 31.999996 32.000004"
   version="1.1"
   id="svg1"
   xml:space="preserve"
   xmlns:inkscape="http://www.inkscape.org/namespaces/inkscape"
   xmlns:sodipodi="http://sodipodi.sourceforge.net/DTD/sodipodi-0.dtd"
   xmlns="http://www.w3.org/2000/svg"
   xmlns:svg="http://www.w3.org/2000/svg"><sodipodi:namedview
     id="namedview1"
     pagecolor="#ffffff"
     bordercolor="#666666"
     borderopacity="1.0"
     inkscape:showpageshadow="2"
     inkscape:pageopacity="0.0"
     inkscape:pagecheckerboard="0"
     inkscape:deskcolor="#d1d1d1"
     inkscape:document-units="mm" /><defs
     id="defs1"><linearGradient
       id="swatch1"
       inkscape:swatch="solid"><stop
         style="stop-color:#000000;stop-opacity:1;"
         offset="0"
         id="stop1" /></linearGradient></defs><g
     inkscape:label="Camada 1"
     inkscape:groupmode="layer"
     id="layer1"
     transform="translate(-52.151174,-179.25698)"><path
       id="path375"
       d="m 65.780698,186.07525 c 0,3.76563 -3.05107,6.81826 -6.814754,6.81826 -3.763695,0 -6.814769,-3.05263 -6.814769,-6.81826 0,-3.76562 3.051074,-6.81827 6.814769,-6.81827 3.763684,0 6.814754,3.05265 6.814754,6.81827 z"
       style="fill:#000000;fill-opacity:1;fill-rule:nonzero;stroke:none;stroke-width:0.352777"
       inkscape:export-filename="ral_auth_client_jwt.svg"
       inkscape:export-xdpi="600"
       inkscape:export-ydpi="600" /><path
       id="path376"
       d="m 82.489064,186.51574 c 0,2.89663 -2.346988,5.24482 -5.242122,5.24482 -2.895147,0 -5.242127,-2.34819 -5.242127,-5.24482 0,-2.89664 2.34698,-5.24482 5.242127,-5.24482 2.895134,0 5.242122,2.34818 5.242122,5.24482 z"
       style="fill:#000000;fill-opacity:1;fill-rule:nonzero;stroke:none;stroke-width:0.352777" /><path
       id="path377"
       d="m 62.435342,204.66696 c 0,2.31731 -1.877566,4.19586 -4.193698,4.19586 -2.316112,0 -4.193701,-1.87855 -4.193701,-4.19586 0,-2.31729 1.877589,-4.19585 4.193701,-4.19585 2.316132,0 4.193698,1.87856 4.193698,4.19585 z"
       style="fill:#000000;fill-opacity:1;fill-rule:nonzero;stroke:none;stroke-width:0.352777" /><path
       id="path378"
       d="m 57.686778,191.76056 v 9.38213 h 1.524975 v -9.38213 z"
       style="fill:#000000;fill-opacity:1;fill-rule:nonzero;stroke:none;stroke-width:0.352777" /><path
       id="path379"
       d="m 62.216008,189.78456 7.186974,7.63088 0.896156,-0.9515 -7.186975,-7.63088 z"
       style="fill:#000000;fill-opacity:1;fill-rule:nonzero;stroke:none;stroke-width:0.352467" /><path
       id="path380"
       d="m 76.474609,191.22193 v 3.56217 h 1.524975 v -3.56217 z"
       style="fill:#000000;fill-opacity:1;fill-rule:nonzero;stroke:none;stroke-width:0.352777" /><path
       id="path356-8-8-7"
       d="m 83.501174,202.39725 c 0,4.53411 -3.67373,8.20973 -8.205522,8.20973 -4.531792,0 -8.205521,-3.67562 -8.205521,-8.20973 0,-4.53411 3.673729,-8.20974 8.205521,-8.20974 4.531792,0 8.205522,3.67563 8.205522,8.20974 z"
       style="fill:#2e84ff;fill-opacity:1;fill-rule:nonzero;stroke:#000000;stroke-width:1.3;stroke-dasharray:none;stroke-opacity:1"
       inkscape:label="circulo"
       inkscape:export-filename="ral_auth_client_basic.svg"
       inkscape:export-xdpi="600"
       inkscape:export-ydpi="600" /><path
       id="path359-4"
       d="m 72.643718,199.99665 c 0,-1.46538 1.187309,-2.6533 2.651932,-2.6533 v 0 c 1.464617,0 2.651936,1.18792 2.651936,2.6533 v 2.01182 h -5.303868 z"
       style="fill:#3be200;fill-opacity:1;fill-rule:nonzero;stroke:#000000;stroke-width:1.10001;stroke-dasharray:none;stroke-opacity:1" /><path
       id="path362-4"
       d="m 70.875773,201.97759 c 0,-0.41233 0.334085,-0.7466 0.746211,-0.7466 h 7.347343 c 0.412121,0 0.746205,0.33427 0.746205,0.7466 v 4.72698 c 0,0.41233 -0.334084,0.74659 -0.746205,0.74659 h -7.347342 c -0.412126,0 -0.746211,-0.33426 -0.746211,-0.74659 z"
       style="fill:#3be200;fill-opacity:1;fill-rule:nonzero;stroke:#000000;stroke-width:1.10001;stroke-dasharray:none;stroke-opacity:1" /></g></svg>
