<?xml version="1.0" encoding="UTF-8" standalone="no"?>
<!-- Created with Inkscape (http://www.inkscape.org/) -->

<svg
   width="32.029999mm"
   height="32.029999mm"
   viewBox="0 0 32.029999 32.029999"
   version="1.1"
   id="svg1"
   xml:space="preserve"
   xmlns:inkscape="http://www.inkscape.org/namespaces/inkscape"
   xmlns:sodipodi="http://sodipodi.sourceforge.net/DTD/sodipodi-0.dtd"
   xmlns="http://www.w3.org/2000/svg"
   xmlns:svg="http://www.w3.org/2000/svg"><sodipodi:namedview
     id="namedview1"
     pagecolor="#ffffff"
     bordercolor="#666666"
     borderopacity="1.0"
     inkscape:showpageshadow="2"
     inkscape:pageopacity="0.0"
     inkscape:pagecheckerboard="0"
     inkscape:deskcolor="#d1d1d1"
     inkscape:document-units="mm" /><defs
     id="defs1"><linearGradient
       id="swatch1"
       inkscape:swatch="solid"><stop
         style="stop-color:#000000;stop-opacity:1;"
         offset="0"
         id="stop1" /></linearGradient></defs><g
     inkscape:label="Camada 1"
     inkscape:groupmode="layer"
     id="layer1"
     transform="translate(-119.25011,-80.499929)"><path
       id="path7"
       style="fill:#000000;fill-opacity:1;stroke:none;stroke-width:1.1;stroke-linecap:round;stroke-linejoin:round;stroke-miterlimit:0;stroke-dasharray:none;stroke-opacity:1"
       d="m 135.23203,82.00224 a 14.55,14.55 0 0 0 -14.55001,14.55002 14.55,14.55 0 0 0 14.55001,14.55001 14.55,14.55 0 0 0 14.55003,-14.55001 14.55,14.55 0 0 0 -14.55003,-14.55002 z m 0,4.35012 a 10.2,10.2 0 0 1 0.50075,0.0124 10.2,10.2 0 0 1 0.49919,0.0367 10.2,10.2 0 0 1 0.49713,0.061 10.2,10.2 0 0 1 0.49299,0.0858 10.2,10.2 0 0 1 0.48835,0.10955 10.2,10.2 0 0 1 0.48265,0.13384 10.2,10.2 0 0 1 0.47543,0.1571 10.2,10.2 0 0 1 0.46715,0.17983 10.2,10.2 0 0 1 0.45786,0.20309 10.2,10.2 0 0 1 0.447,0.22479 10.2,10.2 0 0 1 0.43563,0.24702 10.2,10.2 0 0 1 0.42271,0.26768 10.2,10.2 0 0 1 0.40928,0.28836 10.2,10.2 0 0 1 0.39481,0.30799 10.2,10.2 0 0 1 0.3793,0.32711 10.2,10.2 0 0 1 0.36226,0.3452 10.2,10.2 0 0 1 0.34519,0.36277 10.2,10.2 0 0 1 0.32711,0.37879 10.2,10.2 0 0 1 0.30801,0.3948 10.2,10.2 0 0 1 0.28835,0.40928 10.2,10.2 0 0 1 0.26768,0.42323 10.2,10.2 0 0 1 0.24702,0.43512 10.2,10.2 0 0 1 0.22479,0.44751 10.2,10.2 0 0 1 0.20309,0.45786 10.2,10.2 0 0 1 0.18035,0.46664 10.2,10.2 0 0 1 0.1571,0.47542 10.2,10.2 0 0 1 0.13332,0.48266 10.2,10.2 0 0 1 0.10956,0.48834 10.2,10.2 0 0 1 0.0858,0.49351 10.2,10.2 0 0 1 0.0615,0.49661 10.2,10.2 0 0 1 0.0367,0.49919 10.2,10.2 0 0 1 0.0124,0.50075 10.2,10.2 0 0 1 -0.10387,1.45159 10.2,10.2 0 0 1 -0.30956,1.42213 10.2,10.2 0 0 1 -0.50848,1.36375 10.2,10.2 0 0 1 -0.69763,1.27692 10.2,10.2 0 0 1 -0.87179,1.1653 10.2,10.2 0 0 1 -1.0294,1.02888 10.2,10.2 0 0 1 -1.16478,0.8723 10.2,10.2 0 0 1 -1.27745,0.69763 10.2,10.2 0 0 1 -1.36373,0.5085 10.2,10.2 0 0 1 -1.42213,0.30902 10.2,10.2 0 0 1 -1.4516,0.10387 10.2,10.2 0 0 1 -1.45159,-0.10387 10.2,10.2 0 0 1 -1.42214,-0.30902 10.2,10.2 0 0 1 -1.36323,-0.5085 10.2,10.2 0 0 1 -1.27744,-0.69763 10.2,10.2 0 0 1 -1.16478,-0.8723 10.2,10.2 0 0 1 -1.0294,-1.02888 10.2,10.2 0 0 1 -0.87178,-1.1653 10.2,10.2 0 0 1 -0.69763,-1.27692 10.2,10.2 0 0 1 -0.5085,-1.36375 10.2,10.2 0 0 1 -0.30954,-1.42213 10.2,10.2 0 0 1 -0.10387,-1.45159 10.2,10.2 0 0 1 0.10387,-1.45159 10.2,10.2 0 0 1 0.30954,-1.42214 10.2,10.2 0 0 1 0.5085,-1.36374 10.2,10.2 0 0 1 0.69763,-1.27692 10.2,10.2 0 0 1 0.87178,-1.16531 10.2,10.2 0 0 1 1.0294,-1.02888 10.2,10.2 0 0 1 1.16478,-0.87229 10.2,10.2 0 0 1 1.27744,-0.69764 10.2,10.2 0 0 1 1.36323,-0.50849 10.2,10.2 0 0 1 1.42214,-0.30903 10.2,10.2 0 0 1 1.45159,-0.10387 z" /><circle
       style="fill:none;fill-opacity:1;stroke:#3386ff;stroke-width:0.73;stroke-linecap:round;stroke-linejoin:round;stroke-miterlimit:0;stroke-dasharray:none;stroke-opacity:1"
       id="path8-8"
       cx="135.26511"
       cy="96.514931"
       r="15.65" /><path
       id="path386"
       d="m 144.11337,103.06322 z m 0.89192,3.42538 c -0.36648,0.36581 -0.74391,0.55552 -1.13227,0.56916 -0.38836,0.0136 -0.7629,-0.15713 -1.12361,-0.51225 -0.36071,-0.35512 -0.53552,-0.7252 -0.52444,-1.11027 0.011,-0.38508 0.19984,-0.76052 0.56633,-1.12634 0.36648,-0.36582 0.74287,-0.55657 1.12916,-0.57223 0.38631,-0.0116 0.76085,0.16123 1.12363,0.51839 0.36278,0.35714 0.53862,0.72621 0.52755,1.1072 -0.011,0.38508 -0.19986,0.76051 -0.56635,1.12634 z m -0.51307,-0.50514 c 0.14618,-0.14591 0.21279,-0.30077 0.19983,-0.46458 -0.013,-0.16379 -0.0952,-0.32018 -0.24644,-0.46918 l -0.19901,-0.19592 c -0.15133,-0.14898 -0.30966,-0.22933 -0.47497,-0.24106 -0.16533,-0.0117 -0.32107,0.0554 -0.46726,0.20131 -0.14618,0.14591 -0.21279,0.30077 -0.19983,0.46456 0.0109,0.16587 0.0921,0.32328 0.24335,0.47227 l 0.19903,0.19592 c 0.15131,0.14899 0.31066,0.22832 0.47804,0.23797 0.16533,0.0118 0.32107,-0.0554 0.46726,-0.20129 z"
       style="fill:#ffffff;fill-opacity:1;fill-rule:nonzero;stroke:none;stroke-width:0.352772" /><path
       id="path387"
       d="m 141.08129,105.58587 z m -2.09935,1.02121 0.30106,0.32424 0.9457,-0.46001 -0.0734,-0.43495 0.88683,-0.43139 0.34329,3.17148 -1.00847,0.49057 -2.31314,-2.21328 z m 1.36355,0.55468 -0.58468,0.28441 0.75551,0.82133 0.0157,-0.007 z"
       style="fill:#ffffff;fill-opacity:1;fill-rule:nonzero;stroke:none;stroke-width:0.352777" /><path
       id="path388"
       d="m 137.39002,106.99322 z m -3.14001,1.60334 c -0.05,-0.40711 0.0404,-0.73329 0.27114,-0.97851 0.23075,-0.24522 0.58288,-0.3969 1.05643,-0.45504 0.47352,-0.0581 0.85335,0.003 1.13945,0.18543 0.28321,0.18211 0.44981,0.47673 0.4998,0.88385 l 0.21856,1.78009 -0.95717,0.11752 -0.21697,-1.76708 c -0.0206,-0.16748 -0.0819,-0.29624 -0.18372,-0.38632 -0.10159,-0.0871 -0.23752,-0.12031 -0.40789,-0.0994 -0.17035,0.021 -0.29407,0.0874 -0.37118,0.19945 -0.08,0.11239 -0.10988,0.2509 -0.0897,0.41547 l 0.21696,1.7671 -0.95717,0.11752 z"
       style="fill:#ffffff;fill-opacity:1;fill-rule:nonzero;stroke:none;stroke-width:0.352777" /><path
       id="path389"
       d="m 133.43986,107.13572 z m -2.48108,1.75905 0.47451,-2.18321 0.94352,0.19944 -0.47453,2.18321 0.96487,0.20396 -0.16313,0.75047 -2.86896,-0.60645 0.16311,-0.75047 z"
       style="fill:#ffffff;fill-opacity:1;fill-rule:nonzero;stroke:none;stroke-width:0.352777" /><path
       id="path390"
       d="m 129.65772,105.99368 z m -2.01344,-1.20727 -0.59418,0.97162 0.90941,0.5453 0.5942,-0.97164 0.82707,0.49594 -1.56629,2.56121 -0.82708,-0.49592 0.57142,-0.93439 -0.90941,-0.54531 -0.57141,0.93441 -0.82708,-0.49593 1.56628,-2.56122 z"
       style="fill:#ffffff;fill-opacity:1;fill-rule:nonzero;stroke:none;stroke-width:0.352772" /><path
       id="path391"
       d="m 126.41918,89.59896 z m -0.53479,-3.64933 c 0.38022,-0.35152 0.75485,-0.51832 1.12391,-0.50041 0.36907,0.0179 0.70836,0.22715 1.01787,0.62768 0.3095,0.40052 0.44159,0.80131 0.39625,1.20234 -0.0453,0.40104 -0.2581,0.77732 -0.63832,1.12884 -0.38022,0.35152 -0.75397,0.51948 -1.12126,0.50387 -0.36692,-0.0198 -0.70604,-0.23125 -1.01731,-0.63409 -0.31129,-0.40282 -0.44444,-0.80263 -0.39947,-1.19939 0.0454,-0.40104 0.25811,-0.77731 0.63833,-1.12884 z m 0.44023,0.56973 c -0.15165,0.14021 -0.22875,0.29634 -0.2313,0.46841 -0.002,0.17204 0.0611,0.3421 0.19095,0.51012 l 0.17076,0.22099 c 0.12984,0.16805 0.27253,0.26502 0.42805,0.29094 0.15552,0.0259 0.30912,-0.0312 0.46079,-0.17146 0.15165,-0.14022 0.22875,-0.29635 0.23129,-0.46839 0.004,-0.17404 -0.0579,-0.34507 -0.18774,-0.5131 l -0.17076,-0.22099 c -0.12985,-0.16805 -0.27359,-0.26404 -0.43126,-0.28796 -0.15552,-0.026 -0.30911,0.0312 -0.46078,0.17144 z"
       style="fill:#ffffff;fill-opacity:1;fill-rule:nonzero;stroke:none;stroke-width:0.352089" /><path
       id="path392"
       d="m 129.68948,86.96551 z m 2.15263,-0.90347 -0.25828,-0.34992 -0.96969,0.40699 0.0249,0.44786 -0.90933,0.38165 0.005,-3.25308 1.03405,-0.434 2.01427,2.40532 z m -1.26768,-0.6539 0.59951,-0.25161 -0.64735,-0.88591 -0.0161,0.006 z"
       style="fill:#ffffff;fill-opacity:1;fill-rule:nonzero;stroke:none;stroke-width:0.352499" /><path
       id="path393"
       d="m 133.60739,85.71462 z m 3.2678,-1.32358 c 0.0142,0.40995 -0.10423,0.72699 -0.35539,0.95117 -0.25123,0.22418 -0.61526,0.34459 -1.09205,0.36124 -0.4768,0.0167 -0.84978,-0.078 -1.11895,-0.28403 -0.26627,-0.2061 -0.40656,-0.51412 -0.42088,-0.92405 l -0.0627,-1.79237 0.96377,-0.0335 0.0621,1.77928 c 0.005,0.16863 0.0556,0.30224 0.14935,0.40085 0.0936,0.0957 0.22614,0.14056 0.39767,0.13457 0.17152,-0.005 0.30058,-0.0614 0.38715,-0.16634 0.0895,-0.10507 0.13133,-0.24037 0.12554,-0.40609 l -0.0621,-1.77926 0.96378,-0.0336 z"
       style="fill:#ffffff;fill-opacity:1;fill-rule:nonzero;stroke:none;stroke-width:0.352777" /><path
       id="path394"
       d="m 137.68232,86.01515 z m 2.54077,-1.4927 -0.59887,2.15241 -0.9131,-0.3102 0.59887,-2.15242 -0.93378,-0.31723 0.20586,-0.73988 2.77653,0.94324 -0.20587,0.73988 z"
       style="fill:#ffffff;fill-opacity:1;fill-rule:nonzero;stroke:none;stroke-width:0.352499" /><path
       id="path395"
       d="m 141.40532,87.80756 z m 1.83079,1.46957 0.63182,-0.94758 -0.82693,-0.66376 -0.63182,0.94758 -0.75203,-0.60368 1.66548,-2.49783 0.75206,0.60366 -0.60762,0.91128 0.82691,0.66376 0.60761,-0.91127 0.75206,0.60366 -1.6655,2.49785 z"
       style="fill:#ffffff;fill-opacity:1;fill-rule:nonzero;stroke:none;stroke-width:0.352089" /><path
       id="path412"
       d="m 128.96256,103.6422 z m 7.04582,-14.25454 c 1.09964,0 2.04995,0.17648 2.85091,0.52945 0.81455,0.3394 1.43903,0.82812 1.87346,1.46618 0.44799,0.63806 0.67199,1.37794 0.67199,2.21964 0,0.78739 -0.19685,1.50012 -0.59055,2.13819 -0.39369,0.63805 -0.88921,1.20144 -1.48654,1.69017 -0.59733,0.48873 -1.41866,1.08606 -2.464,1.792 -0.58376,0.38011 -1.0589,0.70594 -1.42545,0.97746 h 6.12945 v 3.44145 h -11.60726 v -0.97745 c 0,-0.71952 0.16291,-1.35759 0.48873,-1.91419 0.33939,-0.57018 0.82811,-1.14035 1.46618,-1.71054 0.65162,-0.57018 1.58836,-1.344 2.81018,-2.32146 0.97745,-0.77381 1.66302,-1.36436 2.05672,-1.77164 0.3937,-0.40726 0.59054,-0.80775 0.59054,-1.20144 0,-0.42085 -0.14933,-0.77383 -0.44799,-1.05891 -0.28511,-0.28509 -0.71951,-0.42763 -1.30328,-0.42763 -0.61089,0 -1.09285,0.17648 -1.44582,0.52944 -0.35297,0.35297 -0.52946,0.81455 -0.52946,1.38474 v 0.40726 h -3.6247 c -0.0136,-0.10865 -0.0204,-0.25793 -0.0204,-0.44799 0,-1.46619 0.50908,-2.62012 1.52727,-3.46182 1.03176,-0.85527 2.52508,-1.28291 4.48,-1.28291 z"
       style="fill:#3be200;fill-opacity:1;fill-rule:nonzero;stroke:none;stroke-width:0.352777" /></g></svg>
