<?xml version="1.0" encoding="UTF-8" standalone="no"?>
<!-- Created with Inkscape (http://www.inkscape.org/) -->

<svg
   width="32.700413mm"
   height="32.400219mm"
   viewBox="0 0 32.700413 32.400219"
   version="1.1"
   id="svg1"
   xml:space="preserve"
   xmlns="http://www.w3.org/2000/svg"
   xmlns:svg="http://www.w3.org/2000/svg"><defs
     id="defs1"><filter
       id="filter0_i_321_7"
       x="2"
       y="6"
       width="20"
       height="21"
       filterUnits="userSpaceOnUse"
       color-interpolation-filters="sRGB"><feFlood
         flood-opacity="0"
         result="BackgroundImageFix"
         id="feFlood5-6" /><feBlend
         mode="normal"
         in="SourceGraphic"
         in2="BackgroundImageFix"
         result="shape"
         id="feBlend5-8" /><feColorMatrix
         in="SourceAlpha"
         type="matrix"
         values="0 0 0 0 0 0 0 0 0 0 0 0 0 0 0 0 0 0 127 0"
         result="hardAlpha"
         id="feColorMatrix5-1" /><feOffset
         dy="4"
         id="feOffset5-7" /><feGaussianBlur
         stdDeviation="2"
         id="feGaussianBlur5-9" /><feComposite
         in2="hardAlpha"
         operator="arithmetic"
         k2="-1"
         k3="1"
         id="feComposite5-1"
         k1="0"
         k4="0" /><feColorMatrix
         type="matrix"
         values="0 0 0 0 0 0 0 0 0 0 0 0 0 0 0 0 0 0 0.25 0"
         id="feColorMatrix6-3" /><feBlend
         mode="normal"
         in2="shape"
         result="effect1_innerShadow_321_7"
         id="feBlend6-5" /></filter><filter
       id="filter1_d_321_7"
       x="6"
       y="9"
       width="12"
       height="5"
       filterUnits="userSpaceOnUse"
       color-interpolation-filters="sRGB"><feFlood
         flood-opacity="0"
         result="BackgroundImageFix"
         id="feFlood6" /><feColorMatrix
         in="SourceAlpha"
         type="matrix"
         values="0 0 0 0 0 0 0 0 0 0 0 0 0 0 0 0 0 0 127 0"
         result="hardAlpha"
         id="feColorMatrix7" /><feOffset
         dy="1"
         id="feOffset7" /><feGaussianBlur
         stdDeviation="0.5"
         id="feGaussianBlur7" /><feComposite
         in2="hardAlpha"
         operator="out"
         id="feComposite7" /><feColorMatrix
         type="matrix"
         values="0 0 0 0 0 0 0 0 0 0 0 0 0 0 0 0 0 0 0.25 0"
         id="feColorMatrix8" /><feBlend
         mode="normal"
         in2="BackgroundImageFix"
         result="effect1_dropShadow_321_7"
         id="feBlend8" /><feBlend
         mode="normal"
         in="SourceGraphic"
         in2="effect1_dropShadow_321_7"
         result="shape"
         id="feBlend9" /></filter></defs><g
     id="layer1"
     transform="translate(-67.458894,-155.71806)"><g
       filter="url(#filter0_i_321_7)"
       id="g1"
       transform="matrix(1.4622749,0,0,1.3950283,66.528057,155.50013)"
       style="fill:none;stroke-width:0.18525"><path
         d="m 2,6 h 20 v 15 c 0,1.1046 -0.8954,2 -2,2 H 4 C 2.89543,23 2,22.1046 2,21 Z"
         fill="#d9d9d9"
         id="path1"
         style="stroke-width:0.18525" /></g><path
       d="m 80.876821,178.76588 h -1.60228 c -0.0114,-0.14581 -0.0417,-0.27812 -0.0909,-0.39695 -0.0474,-0.11867 -0.11364,-0.22077 -0.19887,-0.30629 -0.0833,-0.0874 -0.18465,-0.15417 -0.30397,-0.19994 -0.11932,-0.048 -0.25473,-0.0719 -0.40625,-0.0719 -0.26515,0 -0.48958,0.0707 -0.6733,0.21241 -0.18181,0.1417 -0.32008,0.34487 -0.41477,0.60951 -0.0928,0.26463 -0.1392,0.58237 -0.1392,0.95335 0,0.39167 0.0474,0.71982 0.14204,0.98446 0.0966,0.26258 0.2358,0.46061 0.41761,0.59396 0.18183,0.13129 0.40058,0.19686 0.65626,0.19686 0.14584,0 0.27652,-0.0198 0.39204,-0.0594 0.11553,-0.0417 0.21592,-0.10107 0.30114,-0.17809 0.0852,-0.0772 0.15435,-0.16987 0.20739,-0.27827 0.0549,-0.11032 0.0918,-0.23442 0.11079,-0.37187 l 1.60228,0.0125 c -0.0189,0.27094 -0.0881,0.54702 -0.20739,0.82823 -0.11932,0.2793 -0.28883,0.53763 -0.50852,0.77527 -0.21781,0.23544 -0.48769,0.42497 -0.80967,0.56873 -0.32197,0.1439 -0.69602,0.21578 -1.12216,0.21578 -0.53409,0 -1.01325,-0.12616 -1.43749,-0.37832 -0.42235,-0.25202 -0.75663,-0.623 -1.00284,-1.11266 -0.24432,-0.48966 -0.36648,-1.08876 -0.36648,-1.79714 0,-0.71263 0.125,-1.31275 0.375,-1.80036 0.25,-0.48966 0.58712,-0.85947 1.01136,-1.10958 0.42424,-0.25216 0.89773,-0.37817 1.42045,-0.37817 0.36743,0 0.7055,0.0551 1.01422,0.16561 0.3087,0.11046 0.57953,0.27197 0.81249,0.48453 0.23296,0.2105 0.42045,0.46986 0.56251,0.7782 0.14204,0.3085 0.22821,0.66159 0.25852,1.05956 z m 3.85292,-0.40003 c -0.0151,-0.2083 -0.0861,-0.37084 -0.21307,-0.4876 -0.12493,-0.11662 -0.31533,-0.17501 -0.57093,-0.17501 -0.16294,0 -0.2964,0.0219 -0.40054,0.0656 -0.1024,0.0417 -0.17813,0.099 -0.22733,0.17193 -0.0492,0.0729 -0.0748,0.15637 -0.0767,0.25011 -0.004,0.077 0.009,0.14684 0.0369,0.20933 0.0303,0.0604 0.0776,0.11574 0.142,0.16576 0.0644,0.0478 0.1468,0.0917 0.2472,0.13129 0.1004,0.0395 0.2196,0.075 0.35786,0.10621 l 0.47734,0.11251 c 0.322,0.075 0.59746,0.17398 0.82666,0.29691 0.2292,0.12293 0.41667,0.26771 0.56254,0.4345 0.14586,0.16459 0.2528,0.35001 0.32106,0.55626 0.07,0.2064 0.106,0.43142 0.10787,0.67523 -0.002,0.42086 -0.0975,0.77717 -0.28693,1.06895 -0.18934,0.29162 -0.46014,0.51357 -0.8124,0.66569 -0.3504,0.15212 -0.77187,0.2281 -1.26427,0.2281 -0.50573,0 -0.94693,-0.0823 -1.32387,-0.24688 -0.37493,-0.16459 -0.66666,-0.41778 -0.87493,-0.75943 -0.20653,-0.34384 -0.31067,-0.78348 -0.31253,-1.31906 h 1.5 c 0.009,0.19584 0.054,0.36043 0.13346,0.49392 0.0796,0.13334 0.19134,0.23441 0.3352,0.30306 0.14587,0.0688 0.3192,0.10313 0.52,0.10313 0.16854,0 0.3096,-0.0229 0.4232,-0.0686 0.11374,-0.0459 0.19987,-0.10944 0.25854,-0.1907 0.0588,-0.0813 0.0891,-0.17398 0.0909,-0.27813 -0.002,-0.098 -0.0312,-0.18337 -0.0881,-0.25628 -0.0548,-0.0751 -0.14574,-0.1417 -0.27267,-0.20008 -0.12693,-0.0604 -0.29827,-0.11677 -0.51427,-0.16885 l -0.57946,-0.13745 c -0.5152,-0.12293 -0.92147,-0.32815 -1.2188,-0.61581 -0.29547,-0.28958 -0.44214,-0.68447 -0.44027,-1.18455 -0.002,-0.40634 0.0965,-0.76163 0.29547,-1.06587 0.20066,-0.30629 0.47813,-0.54481 0.8324,-0.71571 0.356,-0.1709 0.76413,-0.25627 1.2244,-0.25627 0.4696,0 0.87586,0.0865 1.21866,0.2595 0.3428,0.1728 0.60707,0.4166 0.79267,0.73126 0.18747,0.3126 0.28213,0.67831 0.28413,1.09711 z m 3.78266,-2.0003 1.1932,4.5133 h 0.0455 l 1.1932,-4.5133 h 1.78413 l -1.92053,6.40108 h -2.15907 l -1.9204,-6.40108 z"
       fill="#000000"
       id="path5"
       style="stroke-width:0.264583" /><path
       d="m 69.452604,163.8703 h 28.713 v 21.49218 c 0,1.22787 -1.014933,2.2233 -2.266815,2.2233 H 71.71942 c -1.251928,0 -2.266816,-0.99543 -2.266816,-2.2233 z"
       stroke="#0068ff"
       id="path2"
       style="fill:none;stroke-width:1.065;stroke-dasharray:none" /><path
       d="m 67.941396,158.68254 c 0,-1.22793 1.014882,-2.22338 2.266815,-2.22338 h 27.201786 c 1.251888,0 2.266816,0.99545 2.266816,2.22338 v 5.18776 H 67.941396 Z"
       fill="#d9d9d9"
       stroke="#0068ff"
       id="path3"
       style="stroke-width:0.965;stroke-dasharray:none" /><path
       d="m 81.542289,162.38808 v 2.22331 h 4.533631 v -2.22331 z m 4.533631,0 v -6.67001 h -4.533631 v 6.67001 z"
       fill="#009f10"
       id="path4"
       style="stroke-width:0.264583" /><g
       filter="url(#filter1_d_321_7)"
       id="g5"
       transform="matrix(1.5112103,0,0,1.48222,65.674576,154.23587)"
       style="fill:#009f10;fill-opacity:1;stroke-width:0.310695;stroke-dasharray:none"><rect
         x="7"
         y="9"
         width="10"
         height="3"
         rx="1.5"
         fill="#ff00f5"
         id="rect4"
         style="fill:#009f10;fill-opacity:1;stroke-width:0.310695;stroke-dasharray:none" /><rect
         x="7.0500002"
         y="9.0500002"
         width="9.8999996"
         height="2.9000001"
         rx="1.45"
         stroke="#0068ff"
         stroke-width="0.0176784"
         id="rect5"
         style="fill:#009f10;fill-opacity:1;stroke-width:0.310695;stroke-dasharray:none" /></g></g><style
     type="text/css"
     id="style1">
	.st0{fill:#FFFFFF;}
	.st1{fill:#2C282C;}
	.st2{fill:#173647;}
	.st3{fill:#50E4EA;}
	.st4{fill:#FCDC00;}
	.st5{fill:#85EA2D;}
	.st6{fill:#F4CF14;}
	.st7{fill:none;}
	.st8{fill:#04AADB;}
	.st9{fill:#07CED6;}
	.st10{fill:#63DB2A;}
	.st11{fill:#FF730B;}
	.st12{fill:#17D1FC;}
	.st13{fill:#00AADB;}
	.st14{fill:#758491;}
</style><style
     type="text/css"
     id="style1-2">
	.st0{fill:#FFFFFF;}
	.st1{fill:#2C282C;}
	.st2{fill:#173647;}
	.st3{fill:#50E4EA;}
	.st4{fill:#FCDC00;}
	.st5{fill:#85EA2D;}
	.st6{fill:#F4CF14;}
	.st7{fill:none;}
	.st8{fill:#04AADB;}
	.st9{fill:#07CED6;}
	.st10{fill:#63DB2A;}
	.st11{fill:#FF730B;}
	.st12{fill:#17D1FC;}
	.st13{fill:#00AADB;}
	.st14{fill:#758491;}
</style></svg>
