<?xml version="1.0" encoding="UTF-8" standalone="no"?>
<!-- Created with Inkscape (http://www.inkscape.org/) -->

<svg
   width="31.745083mm"
   height="39.200001mm"
   viewBox="0 0 31.745083 39.200001"
   version="1.1"
   id="svg1"
   xml:space="preserve"
   xmlns="http://www.w3.org/2000/svg"
   xmlns:svg="http://www.w3.org/2000/svg"><defs
     id="defs1"><linearGradient
       id="swatch1"><stop
         style="stop-color:#000000;stop-opacity:1;"
         offset="0"
         id="stop1" /></linearGradient><filter
       style="color-interpolation-filters:sRGB"
       id="filter13"
       x="-0.98353476"
       y="-0.74016557"
       width="3.2144997"
       height="2.6665363"><feFlood
         result="flood"
         in="SourceGraphic"
         flood-opacity="0.498039"
         flood-color="rgb(0,0,0)"
         id="feFlood11" /><feGaussianBlur
         result="blur"
         in="SourceGraphic"
         stdDeviation="3.000000"
         id="feGaussianBlur11" /><feOffset
         result="offset"
         in="blur"
         dx="2.000000"
         dy="2.000000"
         id="feOffset11" /><feComposite
         result="comp1"
         operator="in"
         in="flood"
         in2="offset"
         id="feComposite12" /><feComposite
         result="comp2"
         operator="over"
         in="SourceGraphic"
         in2="comp1"
         id="feComposite13" /></filter></defs><g
     id="layer1"
     transform="translate(-51.383695,-147.61651)"><path
       id="path74-63"
       d="m 63.460426,162.80615 c 0,-1.78318 1.694054,-3.22872 3.783665,-3.22872 h 11.35102 c 2.089711,0 3.783664,1.44554 3.783664,3.22872 V 178.9498 H 63.460426 Z"
       style="fill:#0068ff;fill-opacity:1;fill-rule:nonzero;stroke:#000000;stroke-width:1.5;stroke-dasharray:none;stroke-opacity:1" /><path
       id="path77-86"
       d="m 63.460426,175.25219 h 18.918349 v 7.20955 c 0,1.99085 -1.693953,3.60477 -3.783664,3.60477 h -11.35102 c -2.089611,0 -3.783665,-1.61392 -3.783665,-3.60477 z"
       style="fill:#009f10;fill-opacity:1;fill-rule:nonzero;stroke:#000000;stroke-width:1.5;stroke-dasharray:none;stroke-opacity:1" /><path
       id="path80-1"
       d="m 59.333692,159.7435 c 0,-2.30689 1.809513,-4.17699 4.041534,-4.17699 v 0 c 2.232044,0 4.041556,1.8701 4.041556,4.17699 v 2.38685 c 0,2.3069 -1.809512,4.177 -4.041556,4.177 v 0 c -2.232021,0 -4.041534,-1.8701 -4.041534,-4.177 z"
       style="fill:#ffffff;fill-opacity:1;fill-rule:nonzero;stroke:#000000;stroke-width:1.5;stroke-dasharray:none;stroke-opacity:1;filter:url(#filter13)" /></g></svg>
