<?xml version="1.0" encoding="UTF-8" standalone="no"?>
<!-- Created with Inkscape (http://www.inkscape.org/) -->

<svg
   width="32mm"
   height="32.737652mm"
   viewBox="0 0 32 32.737652"
   version="1.1"
   id="svg1"
   xml:space="preserve"
   xmlns="http://www.w3.org/2000/svg"
   xmlns:svg="http://www.w3.org/2000/svg"><defs
     id="defs1"><filter
       id="filter0_i_255_2-7"
       x="1"
       y="6"
       width="22"
       height="21"
       filterUnits="userSpaceOnUse"
       color-interpolation-filters="sRGB"><feFlood
         flood-opacity="0"
         result="BackgroundImageFix"
         id="feFlood5-9" /><feBlend
         mode="normal"
         in="SourceGraphic"
         in2="BackgroundImageFix"
         result="shape"
         id="feBlend5-1" /><feColorMatrix
         in="SourceAlpha"
         type="matrix"
         values="0 0 0 0 0 0 0 0 0 0 0 0 0 0 0 0 0 0 127 0"
         result="hardAlpha"
         id="feColorMatrix5-2" /><feOffset
         dy="4"
         id="feOffset5-3" /><feGaussianBlur
         stdDeviation="2"
         id="feGaussianBlur5-89" /><feComposite
         in2="hardAlpha"
         operator="arithmetic"
         k2="-1"
         k3="1"
         id="feComposite5-5"
         k1="0"
         k4="0" /><feColorMatrix
         type="matrix"
         values="0 0 0 0 0 0 0 0 0 0 0 0 0 0 0 0 0 0 0.25 0"
         id="feColorMatrix6-1" /><feBlend
         mode="normal"
         in2="shape"
         result="effect1_innerShadow_255_2"
         id="feBlend6-76" /></filter></defs><g
     id="layer1"
     transform="translate(-83.727694,-100.97155)"><rect
       width="32"
       height="35.206249"
       fill="#ffffff"
       id="rect1"
       x="83.727684"
       y="101.29132"
       style="stroke-width:0.264583" /><path
       d="m 105.82091,108.79756 v -6.0435 h 8.12428 v 6.715 h -8.12428 z m -12.186435,0.6715 H 85.51019 v -6.715 h 8.124285 v 6.0435 z"
       fill="#009f10"
       stroke="#000000"
       id="path1-0"
       style="stroke-width:3.565;stroke-dasharray:none;paint-order:stroke fill markers" /><path
       d="m 85.06102,109.53521 h 29.33333 z m 30.66667,18.802 c 0,2.96682 -2.38787,5.372 -5.33334,5.372 H 89.06102 c -2.94552,0 -5.333333,-2.40518 -5.333333,-5.372 h 2.666667 c 0,1.48348 1.193906,2.686 2.666666,2.686 h 21.33333 c 1.4728,0 2.66667,-1.20252 2.66667,-2.686 z m -26.66667,5.372 c -2.94552,0 -5.333333,-2.40518 -5.333333,-5.372 v -18.802 h 2.666667 v 18.802 c 0,1.48348 1.193906,2.686 2.666666,2.686 z m 26.66667,-24.174 v 18.802 c 0,2.96682 -2.38787,5.372 -5.33334,5.372 v -2.686 c 1.4728,0 2.66667,-1.20252 2.66667,-2.686 v -18.802 z"
       fill="#000000"
       mask="url(#path-2-inside-1_255_2)"
       id="path4-9"
       style="stroke-width:0.264583" /><g
       filter="url(#filter0_i_255_2)"
       id="g3"
       style="fill:none;stroke-width:0.202905;filter:url(#filter0_i_255_2-7)"
       transform="matrix(1.2925001,0,0,1.3155781,84.217687,101.57559)"><path
         d="m 1,6 h 22 v 14 c 0,1.6569 -1.3431,3 -3,3 H 4 C 2.34315,23 1,21.6569 1,20 Z"
         fill="#d9d9d9"
         id="path3-7"
         style="stroke-width:0.202905" /></g><g
       id="g24"
       transform="matrix(0.96205316,0,0,0.96205316,57.586513,-23.501406)"
       style="stroke-width:1.03944"><path
         d="m 51.79921,157.18175 c 0,0.65383 -0.60652,1.47727 -2.13199,2.1795 -1.46318,0.6736 -3.53565,1.1096 -5.86385,1.1096 -2.3282,0 -4.40067,-0.436 -5.86385,-1.1096 -1.52548,-0.70223 -2.13198,-1.52567 -2.13198,-2.1795 0,-0.6537 0.6065,-1.47713 2.13198,-2.17952 1.46318,-0.6736 3.53565,-1.10947 5.86385,-1.10947 2.3282,0 4.40067,0.43587 5.86385,1.10947 1.52547,0.70239 2.13199,1.52582 2.13199,2.17952 z"
         fill="#717171"
         stroke="#000000"
         id="path1-4"
         style="stroke-width:0.69123;stroke-dasharray:none" /><path
         d="m 51.79921,152.59251 c 0,0.65378 -0.60652,1.47715 -2.13199,2.17952 -1.46318,0.67361 -3.53565,1.10945 -5.86385,1.10945 -2.3282,0 -4.40067,-0.43584 -5.86385,-1.10945 -1.52548,-0.70237 -2.13198,-1.52574 -2.13198,-2.17952 0,-0.65378 0.6065,-1.4772 2.13198,-2.17949 1.46318,-0.67361 3.53565,-1.10955 5.86385,-1.10955 2.3282,0 4.40067,0.43594 5.86385,1.10955 1.52547,0.70229 2.13199,1.52571 2.13199,2.17949 z"
         fill="#ffffff"
         stroke="#000000"
         id="path2"
         style="stroke-width:0.69123;stroke-dasharray:none" /><path
         d="m 51.79921,148.00311 c 0,0.65379 -0.60652,1.47722 -2.13199,2.17951 -1.46318,0.67361 -3.53565,1.10954 -5.86385,1.10954 -2.3282,0 -4.40067,-0.43593 -5.86385,-1.10954 -1.52548,-0.70229 -2.13198,-1.52572 -2.13198,-2.17951 0,-0.65377 0.6065,-1.47721 2.13198,-2.17949 1.46318,-0.6736 3.53565,-1.10954 5.86385,-1.10954 2.3282,0 4.40067,0.43594 5.86385,1.10954 1.52547,0.70228 2.13199,1.52572 2.13199,2.17949 z"
         fill="#0068ff"
         stroke="#000000"
         id="path3-1"
         style="stroke-width:0.69123;stroke-dasharray:none" /><path
         d="m 51.79921,143.41374 c 0,0.65377 -0.60652,1.4772 -2.13199,2.17949 -1.46318,0.67361 -3.53565,1.10955 -5.86385,1.10955 -2.3282,0 -4.40067,-0.43594 -5.86385,-1.10955 -1.52548,-0.70229 -2.13198,-1.52572 -2.13198,-2.17949 0,-0.65379 0.6065,-1.47722 2.13198,-2.17951 1.46318,-0.6736 3.53565,-1.10953 5.86385,-1.10953 2.3282,0 4.40067,0.43593 5.86385,1.10953 1.52547,0.70229 2.13199,1.52572 2.13199,2.17951 z"
         fill="#009f10"
         stroke="#000000"
         id="path4-6"
         style="stroke-width:0.69123;stroke-dasharray:none" /></g></g><style
     type="text/css"
     id="style1">
	.st0{fill:#FFFFFF;}
	.st1{fill:#2C282C;}
	.st2{fill:#173647;}
	.st3{fill:#50E4EA;}
	.st4{fill:#FCDC00;}
	.st5{fill:#85EA2D;}
	.st6{fill:#F4CF14;}
	.st7{fill:none;}
	.st8{fill:#04AADB;}
	.st9{fill:#07CED6;}
	.st10{fill:#63DB2A;}
	.st11{fill:#FF730B;}
	.st12{fill:#17D1FC;}
	.st13{fill:#00AADB;}
	.st14{fill:#758491;}
</style><style
     type="text/css"
     id="style1-2">
	.st0{fill:#FFFFFF;}
	.st1{fill:#2C282C;}
	.st2{fill:#173647;}
	.st3{fill:#50E4EA;}
	.st4{fill:#FCDC00;}
	.st5{fill:#85EA2D;}
	.st6{fill:#F4CF14;}
	.st7{fill:none;}
	.st8{fill:#04AADB;}
	.st9{fill:#07CED6;}
	.st10{fill:#63DB2A;}
	.st11{fill:#FF730B;}
	.st12{fill:#17D1FC;}
	.st13{fill:#00AADB;}
	.st14{fill:#758491;}
</style><style
     type="text/css"
     id="style1-5">
	.st0{fill:#FFFFFF;}
	.st1{fill:#2C282C;}
	.st2{fill:#173647;}
	.st3{fill:#50E4EA;}
	.st4{fill:#FCDC00;}
	.st5{fill:#85EA2D;}
	.st6{fill:#F4CF14;}
	.st7{fill:none;}
	.st8{fill:#04AADB;}
	.st9{fill:#07CED6;}
	.st10{fill:#63DB2A;}
	.st11{fill:#FF730B;}
	.st12{fill:#17D1FC;}
	.st13{fill:#00AADB;}
	.st14{fill:#758491;}
</style><style
     type="text/css"
     id="style1-2-1">
	.st0{fill:#FFFFFF;}
	.st1{fill:#2C282C;}
	.st2{fill:#173647;}
	.st3{fill:#50E4EA;}
	.st4{fill:#FCDC00;}
	.st5{fill:#85EA2D;}
	.st6{fill:#F4CF14;}
	.st7{fill:none;}
	.st8{fill:#04AADB;}
	.st9{fill:#07CED6;}
	.st10{fill:#63DB2A;}
	.st11{fill:#FF730B;}
	.st12{fill:#17D1FC;}
	.st13{fill:#00AADB;}
	.st14{fill:#758491;}
</style><style
     type="text/css"
     id="style1-4">
	.st0{fill:#FFFFFF;}
	.st1{fill:#2C282C;}
	.st2{fill:#173647;}
	.st3{fill:#50E4EA;}
	.st4{fill:#FCDC00;}
	.st5{fill:#85EA2D;}
	.st6{fill:#F4CF14;}
	.st7{fill:none;}
	.st8{fill:#04AADB;}
	.st9{fill:#07CED6;}
	.st10{fill:#63DB2A;}
	.st11{fill:#FF730B;}
	.st12{fill:#17D1FC;}
	.st13{fill:#00AADB;}
	.st14{fill:#758491;}
</style><style
     type="text/css"
     id="style1-2-9">
	.st0{fill:#FFFFFF;}
	.st1{fill:#2C282C;}
	.st2{fill:#173647;}
	.st3{fill:#50E4EA;}
	.st4{fill:#FCDC00;}
	.st5{fill:#85EA2D;}
	.st6{fill:#F4CF14;}
	.st7{fill:none;}
	.st8{fill:#04AADB;}
	.st9{fill:#07CED6;}
	.st10{fill:#63DB2A;}
	.st11{fill:#FF730B;}
	.st12{fill:#17D1FC;}
	.st13{fill:#00AADB;}
	.st14{fill:#758491;}
</style><style
     type="text/css"
     id="style1-0">
	.st0{fill:#FFFFFF;}
	.st1{fill:#2C282C;}
	.st2{fill:#173647;}
	.st3{fill:#50E4EA;}
	.st4{fill:#FCDC00;}
	.st5{fill:#85EA2D;}
	.st6{fill:#F4CF14;}
	.st7{fill:none;}
	.st8{fill:#04AADB;}
	.st9{fill:#07CED6;}
	.st10{fill:#63DB2A;}
	.st11{fill:#FF730B;}
	.st12{fill:#17D1FC;}
	.st13{fill:#00AADB;}
	.st14{fill:#758491;}
</style><style
     type="text/css"
     id="style1-2-8">
	.st0{fill:#FFFFFF;}
	.st1{fill:#2C282C;}
	.st2{fill:#173647;}
	.st3{fill:#50E4EA;}
	.st4{fill:#FCDC00;}
	.st5{fill:#85EA2D;}
	.st6{fill:#F4CF14;}
	.st7{fill:none;}
	.st8{fill:#04AADB;}
	.st9{fill:#07CED6;}
	.st10{fill:#63DB2A;}
	.st11{fill:#FF730B;}
	.st12{fill:#17D1FC;}
	.st13{fill:#00AADB;}
	.st14{fill:#758491;}
</style></svg>
