<?xml version="1.0" encoding="UTF-8" standalone="no"?>
<!-- Created with Inkscape (http://www.inkscape.org/) -->

<svg
   width="31.745073mm"
   height="39.200008mm"
   viewBox="0 0 31.745073 39.200008"
   version="1.1"
   id="svg1"
   xml:space="preserve"
   xmlns="http://www.w3.org/2000/svg"
   xmlns:svg="http://www.w3.org/2000/svg"><defs
     id="defs1"><linearGradient
       id="swatch1"><stop
         style="stop-color:#000000;stop-opacity:1;"
         offset="0"
         id="stop1" /></linearGradient><filter
       style="color-interpolation-filters:sRGB"
       id="filter4"
       x="-0.98353598"
       y="-0.74016488"
       width="3.2145024"
       height="2.6665348"><feFlood
         result="flood"
         in="SourceGraphic"
         flood-opacity="0.498039"
         flood-color="rgb(0,0,0)"
         id="feFlood3" /><feGaussianBlur
         result="blur"
         in="SourceGraphic"
         stdDeviation="3.000000"
         id="feGaussianBlur3" /><feOffset
         result="offset"
         in="blur"
         dx="2.000000"
         dy="2.000000"
         id="feOffset3" /><feComposite
         result="comp1"
         operator="in"
         in="flood"
         in2="offset"
         id="feComposite3" /><feComposite
         result="comp2"
         operator="over"
         in="SourceGraphic"
         in2="comp1"
         id="feComposite4" /></filter></defs><g
     id="layer1"
     transform="translate(-102.79923,-115.69867)"><path
       id="path74-2"
       d="m 114.87596,130.88833 c 0,-1.78318 1.69405,-3.22873 3.78366,-3.22873 h 11.35102 c 2.08971,0 3.78367,1.44555 3.78367,3.22873 v 16.14365 h -18.91835 z"
       style="fill:#0068ff;fill-opacity:1;fill-rule:nonzero;stroke:#000000;stroke-width:1.5;stroke-dasharray:none;stroke-opacity:1" /><path
       id="path77-8"
       d="m 114.87596,143.33437 h 18.91835 v 7.20954 c 0,1.99085 -1.69396,3.60477 -3.78367,3.60477 h -11.35102 c -2.08961,0 -3.78366,-1.61392 -3.78366,-3.60477 z"
       style="fill:#009f10;fill-opacity:1;fill-rule:nonzero;stroke:#000000;stroke-width:1.5;stroke-dasharray:none;stroke-opacity:1" /><path
       id="path80-7"
       d="m 110.74923,127.82567 c 0,-2.30689 1.80951,-4.17699 4.04153,-4.17699 v 0 c 2.23204,0 4.04155,1.8701 4.04155,4.17699 v 2.38686 c 0,2.30689 -1.80951,4.177 -4.04155,4.177 v 0 c -2.23202,0 -4.04153,-1.87011 -4.04153,-4.177 z"
       style="fill:#e0e0e0;fill-opacity:1;fill-rule:nonzero;stroke:#000000;stroke-width:1.5;stroke-dasharray:none;stroke-opacity:1;filter:url(#filter4)" /></g></svg>
