<?xml version="1.0" encoding="UTF-8" standalone="no"?>
<!-- Created with Inkscape (http://www.inkscape.org/) -->

<svg
   width="31.999994mm"
   height="32.000004mm"
   viewBox="0 0 31.999994 32.000004"
   version="1.1"
   id="svg1"
   xml:space="preserve"
   xmlns="http://www.w3.org/2000/svg"
   xmlns:svg="http://www.w3.org/2000/svg"><defs
     id="defs1"><linearGradient
       id="swatch1"><stop
         style="stop-color:#000000;stop-opacity:1;"
         offset="0"
         id="stop1" /></linearGradient></defs><g
     id="g593"
     transform="matrix(0.26458332,0,0,0.26458334,114.97478,-43.149122)"><rect
       style="fill:#0068ff;fill-opacity:1;stroke:none;stroke-width:8.69289;stroke-linecap:butt;stroke-linejoin:bevel;stroke-miterlimit:0;stroke-dasharray:none"
       id="rect56-3"
       width="120.86836"
       height="93.142204"
       x="-434.47391"
       y="190.88596"
       ry="0" /><path
       id="path568-1"
       d="m -428.97974,196.39511 h 109.88008 v 82.12388 h -109.88008 z"
       style="fill:#d9d9d9;fill-opacity:1;fill-rule:nonzero;stroke:none;stroke-width:1.33333" /><path
       id="path607"
       d="m -374.03993,203.02475 c -18.93375,0 -34.33745,15.44632 -34.33745,34.43229 0,18.98598 15.4037,34.4323 34.33745,34.4323 18.93375,0 34.33788,-15.44632 34.33788,-34.4323 0,-18.98597 -15.40413,-34.43229 -34.33788,-34.43229 z m 27.23329,30.98908 h -6.73003 c -0.27608,-4.87905 -1.14715,-9.42069 -2.47931,-13.45269 0.9098,-0.42009 1.72732,-0.88835 2.4587,-1.39452 3.61205,4.05958 6.03986,9.1831 6.75064,14.84721 z m -23.79925,-23.07997 c 1.77182,1.02265 3.48843,2.79245 5.00271,5.19237 -1.49698,0.25121 -3.14189,0.45108 -5.00271,0.56127 z m -6.86766,0 v 5.75364 c -1.86123,-0.11032 -3.50573,-0.31319 -5.00312,-0.56127 1.51429,-2.39992 3.2313,-4.16972 5.00312,-5.19237 z m 0,12.65041 v 10.42956 h -10.18096 c 0.27608,-4.25931 1.06103,-8.09848 2.18016,-11.40742 2.50693,0.51302 5.22276,0.83324 8.0008,0.97786 z m 0,17.31603 v 10.42952 c -2.77804,0.14462 -5.49387,0.46826 -8.0008,0.98132 -1.11913,-3.3124 -1.90202,-7.15157 -2.18016,-11.41084 z m 0,17.32633 v 5.75363 c -1.77182,-1.02264 -3.48883,-2.79249 -5.00312,-5.1924 1.49739,-0.25122 3.14189,-0.45108 5.00312,-0.56123 z m 6.86766,5.75363 v -5.75363 c 1.86082,0.11032 3.50573,0.31319 5.00271,0.56123 -1.51428,2.39991 -3.23089,4.16976 -5.00271,5.1924 z m 0,-12.65044 V 240.9003 h 10.18096 c -0.28019,4.25927 -1.06103,8.09844 -2.18058,11.40741 -2.5065,-0.51305 -5.22274,-0.83327 -8.00038,-0.97789 z m 0,-17.31599 v -10.42956 c 2.77764,-0.14462 5.49388,-0.46827 8.00038,-0.98132 1.11955,3.3124 1.90245,7.15157 2.18058,11.4074 z m -23.91628,-14.84721 c 0.73469,0.50617 1.54849,0.97443 2.45872,1.39452 -1.33258,4.032 -2.20118,8.57364 -2.47931,13.45269 h -6.73004 c 0.71079,-5.66411 3.13818,-10.78763 6.75063,-14.84721 z m -6.75063,21.73368 h 6.73004 c 0.28019,4.87905 1.14673,9.42064 2.47931,13.45269 -0.91023,0.42005 -1.72733,0.88835 -2.45872,1.39451 -3.61245,-4.05957 -6.03984,-9.1831 -6.75063,-14.8472 z m 47.71552,14.8472 c -0.73509,-0.50616 -1.5489,-0.97446 -2.4587,-1.39451 1.33216,-4.03205 2.20118,-8.57364 2.47931,-13.45269 h 6.73003 c -0.71078,5.6641 -3.13859,10.78763 -6.75064,14.8472 z"
       style="fill:#000000;fill-opacity:1;fill-rule:nonzero;stroke:none;stroke-width:1.33333" /><rect
       style="fill:#0068ff;fill-opacity:1;stroke:none;stroke-width:8.69291;stroke-linecap:butt;stroke-linejoin:bevel;stroke-miterlimit:0;stroke-dasharray:none"
       id="rect56"
       width="38.457966"
       height="27.802671"
       x="-352.06351"
       y="163.08328" /><rect
       style="fill:#0068ff;fill-opacity:1;stroke:none;stroke-width:8.69291;stroke-linecap:butt;stroke-linejoin:bevel;stroke-miterlimit:0;stroke-dasharray:none"
       id="rect56-0"
       width="38.457966"
       height="27.802671"
       x="-434.55042"
       y="163.08328" /><rect
       style="fill:#009f10;fill-opacity:1;stroke:none;stroke-width:8.69291;stroke-linecap:butt;stroke-linejoin:bevel;stroke-miterlimit:0;stroke-dasharray:none"
       id="rect57"
       width="27.470066"
       height="22.036678"
       x="-429.05646"
       y="168.84929" /><rect
       style="fill:#009f10;fill-opacity:1;stroke:none;stroke-width:8.69291;stroke-linecap:butt;stroke-linejoin:bevel;stroke-miterlimit:0;stroke-dasharray:none"
       id="rect57-9"
       width="27.470066"
       height="22.036678"
       x="-346.56955"
       y="168.84929" /></g></svg>
