<?xml version="1.0" encoding="UTF-8" standalone="no"?>
<!-- Created with Inkscape (http://www.inkscape.org/) -->

<svg
   width="31.999994mm"
   height="32.000004mm"
   viewBox="0 0 31.999994 32.000004"
   version="1.1"
   id="svg1"
   xml:space="preserve"
   xmlns="http://www.w3.org/2000/svg"
   xmlns:svg="http://www.w3.org/2000/svg"><defs
     id="defs1"><linearGradient
       id="swatch1"><stop
         style="stop-color:#000000;stop-opacity:1;"
         offset="0"
         id="stop1" /></linearGradient></defs><g
     id="g593"
     transform="matrix(0.26458332,0,0,0.26458334,114.97478,-43.149122)"><rect
       style="fill:#0068ff;fill-opacity:1;stroke:none;stroke-width:8.69289;stroke-linecap:butt;stroke-linejoin:bevel;stroke-miterlimit:0;stroke-dasharray:none"
       id="rect56-3"
       width="120.86836"
       height="93.142204"
       x="-434.47391"
       y="190.88596"
       ry="0" /><path
       id="path568-1"
       d="m -428.97974,196.39511 h 109.88008 v 82.12388 h -109.88008 z"
       style="fill:#d9d9d9;fill-opacity:1;fill-rule:nonzero;stroke:none;stroke-width:1.33333" /><rect
       style="fill:#0068ff;fill-opacity:1;stroke:none;stroke-width:8.69291;stroke-linecap:butt;stroke-linejoin:bevel;stroke-miterlimit:0;stroke-dasharray:none"
       id="rect56"
       width="38.457966"
       height="27.802671"
       x="-352.06351"
       y="163.08328" /><rect
       style="fill:#0068ff;fill-opacity:1;stroke:none;stroke-width:8.69291;stroke-linecap:butt;stroke-linejoin:bevel;stroke-miterlimit:0;stroke-dasharray:none"
       id="rect56-0"
       width="38.457966"
       height="27.802671"
       x="-434.55042"
       y="163.08328" /><rect
       style="fill:#009f10;fill-opacity:1;stroke:none;stroke-width:8.69291;stroke-linecap:butt;stroke-linejoin:bevel;stroke-miterlimit:0;stroke-dasharray:none"
       id="rect57"
       width="27.470066"
       height="22.036678"
       x="-429.05646"
       y="168.84929" /><rect
       style="fill:#009f10;fill-opacity:1;stroke:none;stroke-width:8.69291;stroke-linecap:butt;stroke-linejoin:bevel;stroke-miterlimit:0;stroke-dasharray:none"
       id="rect57-9"
       width="27.470066"
       height="22.036678"
       x="-346.56955"
       y="168.84929" /></g><g
     id="g607"
     transform="matrix(0.26458332,0,0,0.26458334,114.97478,-43.149122)"><g
       id="g57"
       transform="translate(0,-1.386127)"><path
         id="path618"
         d="m -341.05461,262.52366 c 0,7.62905 -14.76787,13.81361 -32.9851,13.81361 -18.21726,0 -32.98513,-6.18456 -32.98513,-13.81361 0,-7.62905 14.76787,-13.81364 32.98513,-13.81364 18.21723,0 32.9851,6.18459 32.9851,13.81364 z"
         style="fill:#717171;fill-opacity:1;fill-rule:nonzero;stroke:#000000;stroke-width:3.22394;stroke-dasharray:none" /><path
         id="path621"
         d="m -341.05461,246.7369 c 0,7.62909 -14.76787,13.81364 -32.9851,13.81364 -18.21726,0 -32.98513,-6.18455 -32.98513,-13.81364 0,-7.62901 14.76787,-13.81361 32.98513,-13.81361 18.21723,0 32.9851,6.1846 32.9851,13.81361 z"
         style="fill:#ffffff;fill-opacity:1;fill-rule:nonzero;stroke:#000000;stroke-width:3.22394;stroke-dasharray:none" /><path
         id="path624"
         d="m -341.05461,230.9498 c 0,7.62905 -14.76787,13.81361 -32.9851,13.81361 -18.21726,0 -32.98513,-6.18456 -32.98513,-13.81361 0,-7.62905 14.76787,-13.81365 32.98513,-13.81365 18.21723,0 32.9851,6.1846 32.9851,13.81365 z"
         style="fill:#0068ff;fill-opacity:1;fill-rule:nonzero;stroke:#000000;stroke-width:3.22394;stroke-dasharray:none" /><path
         id="path627"
         d="m -341.05461,215.1627 c 0,7.6291 -14.76787,13.81361 -32.9851,13.81361 -18.21726,0 -32.98513,-6.18451 -32.98513,-13.81361 0,-7.62905 14.76787,-13.8136 32.98513,-13.8136 18.21723,0 32.9851,6.18455 32.9851,13.8136 z"
         style="fill:#009f10;fill-opacity:1;fill-rule:nonzero;stroke:#000000;stroke-width:3.22394;stroke-dasharray:none" /></g></g></svg>
