<?xml version="1.0" encoding="UTF-8" standalone="no"?>
<!-- Created with Inkscape (http://www.inkscape.org/) -->

<svg
   width="24.545082mm"
   height="32mm"
   viewBox="0 0 24.545082 32"
   version="1.1"
   id="svg1"
   xml:space="preserve"
   xmlns="http://www.w3.org/2000/svg"
   xmlns:svg="http://www.w3.org/2000/svg"><defs
     id="defs1"><linearGradient
       id="swatch1"><stop
         style="stop-color:#000000;stop-opacity:1;"
         offset="0"
         id="stop1" /></linearGradient></defs><g
     id="g607"
     transform="matrix(0.26458332,0,0,0.26458334,173.6307,-10.759723)"><path
       id="path74-2"
       d="m -637.81032,70.863749 c 0,-6.739574 6.40273,-12.203063 14.30047,-12.203063 h 42.90149 c 7.89812,0 14.30047,5.463489 14.30047,12.203063 v 61.015361 h -71.50243 z"
       style="fill:#0068ff;fill-opacity:1;fill-rule:nonzero;stroke:#000000;stroke-width:5.66929;stroke-dasharray:none;stroke-opacity:1" /><path
       id="path77-8"
       d="m -637.81032,117.9039 h 71.50243 v 27.24867 c 0,7.52448 -6.40235,13.62433 -14.30047,13.62433 h -42.90149 c -7.89774,0 -14.30047,-6.09985 -14.30047,-13.62433 z"
       style="fill:#009f10;fill-opacity:1;fill-rule:nonzero;stroke:#000000;stroke-width:5.66929;stroke-dasharray:none;stroke-opacity:1" /><path
       id="path80-7"
       d="m -653.40742,59.288356 c 0,-8.718961 6.8391,-15.787044 15.27509,-15.787044 v 0 c 8.43607,0 15.27517,7.068083 15.27517,15.787044 v 9.021192 c 0,8.718958 -6.8391,15.787083 -15.27517,15.787083 v 0 c -8.43599,0 -15.27509,-7.068125 -15.27509,-15.787083 z"
       style="fill:#e0e0e0;fill-opacity:1;fill-rule:nonzero;stroke:#000000;stroke-width:5.66929;stroke-dasharray:none;stroke-opacity:1" /></g></svg>
